<svg width="313" height="242" viewBox="0 0 313 242" fill="none" xmlns="http://www.w3.org/2000/svg">
<rect width="313" height="242" fill="white"/>
<g clip-path="url(#clip0_12_1337)">
<path d="M46.3183 155.163L16 147.297V206H297V84L264.019 111.587C260.795 114.283 257.238 116.554 253.434 118.343L239.327 124.978C229.477 129.61 217.882 128.484 209.108 122.043C201.843 116.71 192.55 114.963 183.845 117.295L178.128 118.826C168.558 121.389 158.391 120.49 149.42 116.288L146.707 115.017C124.888 104.796 98.8754 111.955 85.3582 131.901L77.5858 143.37C74.2761 148.254 69.5546 152.011 64.0524 154.14C58.3939 156.329 52.191 156.687 46.3183 155.163Z" fill="url(#paint0_linear_12_1337)"/>
<path d="M16 148L46.0952 155.717C51.8886 157.202 58.0002 156.853 63.5866 154.717V154.717C69.0655 152.622 73.7767 148.909 77.0939 144.071L84.5811 133.153C98.1027 113.434 123.882 106.353 145.579 116.398L148.219 117.62C157.126 121.743 167.193 122.625 176.68 120.114L182.393 118.602C191.004 116.323 200.183 118.035 207.393 123.266V123.266C216.101 129.583 227.548 130.689 237.304 126.154L251.199 119.696C255.05 117.906 258.652 115.623 261.915 112.904L296 84.5" stroke="#003649" stroke-width="2" stroke-linecap="round"/>
<path d="M37.1008 150.595L16 157.845V206H296V125.404L285.331 114.848C278.492 108.082 268.96 104.769 259.399 105.836C249.929 106.893 240.48 103.651 233.651 97.0054C224.336 87.9404 210.445 85.4353 198.553 90.6817L191.97 93.5857C188.866 94.9554 185.936 96.6916 183.244 98.7574L167.386 110.926C164.344 113.261 161.032 115.221 157.521 116.764L140.149 124.4C133.326 127.399 125.817 128.49 118.423 127.557C107.508 126.179 96.4951 129.227 87.8411 136.02L85.5724 137.8C77.1538 144.409 66.761 148.001 56.0585 148.001H52.6331C47.3479 148.001 42.0992 148.877 37.1008 150.595Z" fill="url(#paint1_linear_12_1337)"/>
<path d="M16.897 158.254L36.4569 151.195C41.6605 149.317 47.1507 148.357 52.6828 148.357H55.5998C66.3344 148.357 76.7546 144.733 85.1725 138.071L87.4413 136.276C96.0392 129.472 107.015 126.418 117.891 127.802V127.802C125.268 128.741 132.76 127.645 139.558 124.632L156.864 116.964C160.383 115.404 163.701 113.425 166.746 111.07L182.565 98.8328C185.236 96.7659 188.147 95.0274 191.233 93.6548L197.752 90.7557C209.634 85.4715 223.562 88.0065 232.845 97.1131V97.1131C239.626 103.765 249.058 107.027 258.497 105.965V105.965C268.027 104.893 277.527 108.211 284.317 114.983L295 125.638" stroke="#0B7029" stroke-width="1.95099" stroke-linecap="round"/>
</g>
<line x1="17" y1="205.313" x2="295.103" y2="205.313" stroke="#003649" stroke-width="0.975494"/>
<g filter="url(#filter0_dd_12_1337)">
<circle cx="191.5" cy="93.5" r="8.5" fill="#F8F8F8"/>
<circle cx="191.5" cy="93.5" r="7.5" stroke="#0B7029" stroke-width="2"/>
</g>
<path d="M17.4091 30V18.3636H21.4773C22.2879 18.3636 22.9564 18.5038 23.483 18.7841C24.0095 19.0606 24.4015 19.4337 24.6591 19.9034C24.9167 20.3693 25.0455 20.8864 25.0455 21.4545C25.0455 21.9545 24.9564 22.3674 24.7784 22.6932C24.6042 23.0189 24.3731 23.2765 24.0852 23.4659C23.8011 23.6553 23.4924 23.7955 23.1591 23.8864V24C23.5152 24.0227 23.8731 24.1477 24.233 24.375C24.5928 24.6023 24.8939 24.928 25.1364 25.3523C25.3788 25.7765 25.5 26.2955 25.5 26.9091C25.5 27.4924 25.3674 28.017 25.1023 28.483C24.8371 28.9489 24.4186 29.3182 23.8466 29.5909C23.2746 29.8636 22.5303 30 21.6136 30H17.4091ZM18.8182 28.75H21.6136C22.5341 28.75 23.1875 28.572 23.5739 28.2159C23.964 27.8561 24.1591 27.4205 24.1591 26.9091C24.1591 26.5152 24.0587 26.1515 23.858 25.8182C23.6572 25.4811 23.3712 25.2121 23 25.0114C22.6288 24.8068 22.1894 24.7045 21.6818 24.7045H18.8182V28.75ZM18.8182 23.4773H21.4318C21.8561 23.4773 22.2386 23.3939 22.5795 23.2273C22.9242 23.0606 23.197 22.8258 23.3977 22.5227C23.6023 22.2197 23.7045 21.8636 23.7045 21.4545C23.7045 20.9432 23.5265 20.5095 23.1705 20.1534C22.8144 19.7936 22.25 19.6136 21.4773 19.6136H18.8182V23.4773ZM33.1335 26.4318V21.2727H34.4744V30H33.1335V28.5227H33.0426C32.8381 28.9659 32.5199 29.3428 32.0881 29.6534C31.6563 29.9602 31.1108 30.1136 30.4517 30.1136C29.9062 30.1136 29.4214 29.9943 28.9972 29.7557C28.5729 29.5133 28.2396 29.1496 27.9972 28.6648C27.7547 28.1761 27.6335 27.5606 27.6335 26.8182V21.2727H28.9744V26.7273C28.9744 27.3636 29.1525 27.8712 29.5085 28.25C29.8684 28.6288 30.3267 28.8182 30.8835 28.8182C31.2169 28.8182 31.5559 28.733 31.9006 28.5625C32.2491 28.392 32.5407 28.1307 32.7756 27.7784C33.0142 27.4261 33.1335 26.9773 33.1335 26.4318ZM40.2259 30.1818C39.4986 30.1818 38.8565 29.9981 38.2997 29.6307C37.7429 29.2595 37.3073 28.7367 36.9929 28.0625C36.6785 27.3845 36.5213 26.5833 36.5213 25.6591C36.5213 24.7424 36.6785 23.947 36.9929 23.2727C37.3073 22.5985 37.7448 22.0777 38.3054 21.7102C38.866 21.3428 39.5137 21.1591 40.2486 21.1591C40.8168 21.1591 41.2656 21.2538 41.5952 21.4432C41.9285 21.6288 42.1823 21.8409 42.3565 22.0795C42.5346 22.3144 42.6728 22.5076 42.7713 22.6591H42.8849V18.3636H44.2259V30H42.9304V28.6591H42.7713C42.6728 28.8182 42.5327 29.0189 42.3509 29.2614C42.169 29.5 41.9096 29.714 41.5724 29.9034C41.2353 30.089 40.7865 30.1818 40.2259 30.1818ZM40.4077 28.9773C40.9455 28.9773 41.4001 28.8371 41.7713 28.5568C42.1425 28.2727 42.4247 27.8807 42.6179 27.3807C42.8111 26.8769 42.9077 26.2955 42.9077 25.6364C42.9077 24.9848 42.813 24.4148 42.6236 23.9261C42.4342 23.4337 42.1539 23.0511 41.7827 22.7784C41.4115 22.5019 40.9531 22.3636 40.4077 22.3636C39.8395 22.3636 39.366 22.5095 38.9872 22.8011C38.6122 23.089 38.33 23.4811 38.1406 23.9773C37.955 24.4697 37.8622 25.0227 37.8622 25.6364C37.8622 26.2576 37.9569 26.822 38.1463 27.3295C38.3395 27.8333 38.6236 28.2348 38.9986 28.5341C39.3774 28.8295 39.8471 28.9773 40.4077 28.9773ZM50.3906 33.4545C49.7429 33.4545 49.1861 33.3712 48.7202 33.2045C48.2543 33.0417 47.866 32.8258 47.5554 32.5568C47.2486 32.2917 47.0043 32.0076 46.8224 31.7045L47.8906 30.9545C48.0118 31.1136 48.1652 31.2955 48.3509 31.5C48.5365 31.7083 48.7902 31.8883 49.1122 32.0398C49.438 32.1951 49.8641 32.2727 50.3906 32.2727C51.0952 32.2727 51.6766 32.1023 52.1349 31.7614C52.5933 31.4205 52.8224 30.8864 52.8224 30.1591V28.3864H52.7088C52.6103 28.5455 52.4702 28.7424 52.2884 28.9773C52.1103 29.2083 51.8527 29.4148 51.5156 29.5966C51.1823 29.7746 50.7315 29.8636 50.1634 29.8636C49.4588 29.8636 48.8262 29.697 48.2656 29.3636C47.7088 29.0303 47.2675 28.5455 46.9418 27.9091C46.6198 27.2727 46.4588 26.5 46.4588 25.5909C46.4588 24.697 46.616 23.9186 46.9304 23.2557C47.2448 22.589 47.6823 22.0739 48.2429 21.7102C48.8035 21.3428 49.4512 21.1591 50.1861 21.1591C50.7543 21.1591 51.205 21.2538 51.5384 21.4432C51.8755 21.6288 52.133 21.8409 52.3111 22.0795C52.4929 22.3144 52.633 22.5076 52.7315 22.6591H52.8679V21.2727H54.1634V30.25C54.1634 31 53.9929 31.6098 53.652 32.0795C53.3149 32.553 52.8603 32.8996 52.2884 33.1193C51.7202 33.3428 51.0876 33.4545 50.3906 33.4545ZM50.3452 28.6591C50.883 28.6591 51.3376 28.536 51.7088 28.2898C52.08 28.0436 52.3622 27.6894 52.5554 27.2273C52.7486 26.7652 52.8452 26.2121 52.8452 25.5682C52.8452 24.9394 52.7505 24.3845 52.5611 23.9034C52.3717 23.4223 52.0914 23.0455 51.7202 22.7727C51.349 22.5 50.8906 22.3636 50.3452 22.3636C49.777 22.3636 49.3035 22.5076 48.9247 22.7955C48.5497 23.0833 48.2675 23.4697 48.0781 23.9545C47.8925 24.4394 47.7997 24.9773 47.7997 25.5682C47.7997 26.1742 47.8944 26.7102 48.0838 27.1761C48.277 27.6383 48.5611 28.0019 48.9361 28.267C49.3149 28.5284 49.7846 28.6591 50.3452 28.6591ZM60.277 30.1818C59.4361 30.1818 58.7107 29.9962 58.1009 29.625C57.4948 29.25 57.027 28.7273 56.6974 28.0568C56.3717 27.3826 56.2088 26.5985 56.2088 25.7045C56.2088 24.8106 56.3717 24.0227 56.6974 23.3409C57.027 22.6553 57.4853 22.1212 58.0724 21.7386C58.6634 21.3523 59.3527 21.1591 60.1406 21.1591C60.5952 21.1591 61.044 21.2348 61.4872 21.3864C61.9304 21.5379 62.3338 21.7841 62.6974 22.125C63.0611 22.4621 63.3509 22.9091 63.5668 23.4659C63.7827 24.0227 63.8906 24.7083 63.8906 25.5227V26.0909H57.1634V24.9318H62.527C62.527 24.4394 62.4285 24 62.2315 23.6136C62.0384 23.2273 61.7618 22.9223 61.402 22.6989C61.0459 22.4754 60.6255 22.3636 60.1406 22.3636C59.6065 22.3636 59.1444 22.4962 58.7543 22.7614C58.3679 23.0227 58.0705 23.3636 57.8622 23.7841C57.6539 24.2045 57.5497 24.6553 57.5497 25.1364V25.9091C57.5497 26.5682 57.6634 27.1269 57.8906 27.5852C58.1217 28.0398 58.4418 28.3864 58.8509 28.625C59.2599 28.8598 59.7353 28.9773 60.277 28.9773C60.6293 28.9773 60.9474 28.928 61.2315 28.8295C61.5194 28.7273 61.7675 28.5758 61.9759 28.375C62.1842 28.1705 62.3452 27.9167 62.4588 27.6136L63.7543 27.9773C63.6179 28.4167 63.3887 28.803 63.0668 29.1364C62.7448 29.4659 62.3471 29.7235 61.8736 29.9091C61.4001 30.0909 60.8679 30.1818 60.277 30.1818ZM69.7259 21.2727V22.4091H65.2031V21.2727H69.7259ZM66.5213 19.1818H67.8622V27.5C67.8622 27.8788 67.9171 28.1629 68.027 28.3523C68.1406 28.5379 68.2846 28.6629 68.4588 28.7273C68.6368 28.7879 68.8243 28.8182 69.0213 28.8182C69.169 28.8182 69.2902 28.8106 69.3849 28.7955C69.4796 28.7765 69.5554 28.7614 69.6122 28.75L69.8849 29.9545C69.794 29.9886 69.6671 30.0227 69.5043 30.0568C69.3414 30.0947 69.1349 30.1136 68.8849 30.1136C68.5062 30.1136 68.1349 30.0322 67.7713 29.8693C67.4115 29.7064 67.1122 29.4583 66.8736 29.125C66.6387 28.7917 66.5213 28.3712 66.5213 27.8636V19.1818Z" fill="black"/>
<path d="M20.6364 54.4545V39.9091H21.5682V54.4545H20.6364ZM23.7727 44.2727C23.7045 43.697 23.428 43.25 22.9432 42.9318C22.4583 42.6136 21.8636 42.4545 21.1591 42.4545C20.6439 42.4545 20.1932 42.5379 19.8068 42.7045C19.4242 42.8712 19.125 43.1004 18.9091 43.392C18.697 43.6837 18.5909 44.0152 18.5909 44.3864C18.5909 44.697 18.6648 44.964 18.8125 45.1875C18.964 45.4072 19.1572 45.5909 19.392 45.7386C19.6269 45.8826 19.8731 46.0019 20.1307 46.0966C20.3883 46.1875 20.625 46.2614 20.8409 46.3182L22.0227 46.6364C22.3258 46.7159 22.6629 46.8258 23.0341 46.9659C23.4091 47.1061 23.767 47.2973 24.108 47.5398C24.4527 47.7784 24.7367 48.0852 24.9602 48.4602C25.1837 48.8352 25.2955 49.2955 25.2955 49.8409C25.2955 50.4697 25.1307 51.0379 24.8011 51.5455C24.4754 52.053 23.9981 52.4564 23.3693 52.7557C22.7443 53.0549 21.9848 53.2045 21.0909 53.2045C20.2576 53.2045 19.536 53.0701 18.9261 52.8011C18.3201 52.5322 17.8428 52.1572 17.4943 51.6761C17.1496 51.1951 16.9545 50.6364 16.9091 50H18.3636C18.4015 50.4394 18.5492 50.803 18.8068 51.0909C19.0682 51.375 19.3977 51.5871 19.7955 51.7273C20.197 51.8636 20.6288 51.9318 21.0909 51.9318C21.6288 51.9318 22.1117 51.8447 22.5398 51.6705C22.9678 51.4924 23.3068 51.2462 23.5568 50.9318C23.8068 50.6136 23.9318 50.2424 23.9318 49.8182C23.9318 49.4318 23.8239 49.1174 23.608 48.875C23.392 48.6326 23.108 48.4356 22.7557 48.2841C22.4034 48.1326 22.0227 48 21.6136 47.8864L20.1818 47.4773C19.2727 47.2159 18.553 46.8428 18.0227 46.358C17.4924 45.8731 17.2273 45.2386 17.2273 44.4545C17.2273 43.803 17.4034 43.2348 17.7557 42.75C18.1117 42.2614 18.589 41.8826 19.1875 41.6136C19.7898 41.3409 20.4621 41.2045 21.2045 41.2045C21.9545 41.2045 22.6212 41.339 23.2045 41.608C23.7879 41.8731 24.25 42.2367 24.5909 42.6989C24.9356 43.161 25.1174 43.6856 25.1364 44.2727H23.7727ZM31.3395 53.1591C30.5895 53.1591 29.9209 53.0303 29.3338 52.7727C28.7505 52.5152 28.2865 52.1572 27.9418 51.6989C27.6009 51.2367 27.4152 50.7008 27.3849 50.0909H28.8168C28.8471 50.4659 28.9759 50.7898 29.2031 51.0625C29.4304 51.3314 29.7277 51.5398 30.0952 51.6875C30.4626 51.8352 30.8698 51.9091 31.3168 51.9091C31.8168 51.9091 32.2599 51.822 32.6463 51.6477C33.0327 51.4735 33.3357 51.2311 33.5554 50.9205C33.7751 50.6098 33.8849 50.25 33.8849 49.8409C33.8849 49.4129 33.7789 49.036 33.5668 48.7102C33.3546 48.3807 33.044 48.1231 32.6349 47.9375C32.2259 47.7519 31.7259 47.6591 31.1349 47.6591H30.2031V46.4091H31.1349C31.5971 46.4091 32.0024 46.3258 32.3509 46.1591C32.7031 45.9924 32.9777 45.7576 33.1747 45.4545C33.3755 45.1515 33.4759 44.7955 33.4759 44.3864C33.4759 43.9924 33.3887 43.6496 33.2145 43.358C33.0402 43.0663 32.794 42.839 32.4759 42.6761C32.1615 42.5133 31.7902 42.4318 31.3622 42.4318C30.9607 42.4318 30.5819 42.5057 30.2259 42.6534C29.8736 42.7973 29.5857 43.0076 29.3622 43.2841C29.1387 43.5568 29.0175 43.8864 28.9986 44.2727H27.6349C27.6577 43.6629 27.8414 43.1288 28.1861 42.6705C28.5308 42.2083 28.9815 41.8485 29.5384 41.5909C30.099 41.3333 30.7145 41.2045 31.3849 41.2045C32.1046 41.2045 32.7221 41.3504 33.2372 41.642C33.7524 41.9299 34.1482 42.3106 34.4247 42.7841C34.7012 43.2576 34.8395 43.7689 34.8395 44.3182C34.8395 44.9735 34.6671 45.5322 34.3224 45.9943C33.9815 46.4564 33.5175 46.7765 32.9304 46.9545V47.0455C33.6652 47.1667 34.2391 47.4792 34.652 47.983C35.0649 48.483 35.2713 49.1023 35.2713 49.8409C35.2713 50.4735 35.099 51.0417 34.7543 51.5455C34.4134 52.0455 33.9474 52.4394 33.3565 52.7273C32.7656 53.0152 32.0933 53.1591 31.3395 53.1591ZM41.3906 53.1591C40.5346 53.1591 39.8054 52.9261 39.2031 52.4602C38.6009 51.9905 38.1406 51.3106 37.8224 50.4205C37.5043 49.5265 37.3452 48.447 37.3452 47.1818C37.3452 45.9242 37.5043 44.8504 37.8224 43.9602C38.1444 43.0663 38.6065 42.3845 39.2088 41.9148C39.8149 41.4413 40.5421 41.2045 41.3906 41.2045C42.2391 41.2045 42.9645 41.4413 43.5668 41.9148C44.1728 42.3845 44.6349 43.0663 44.9531 43.9602C45.2751 44.8504 45.4361 45.9242 45.4361 47.1818C45.4361 48.447 45.277 49.5265 44.9588 50.4205C44.6406 51.3106 44.1804 51.9905 43.5781 52.4602C42.9759 52.9261 42.2467 53.1591 41.3906 53.1591ZM41.3906 51.9091C42.2391 51.9091 42.8982 51.5 43.3679 50.6818C43.8376 49.8636 44.0724 48.697 44.0724 47.1818C44.0724 46.1742 43.9645 45.3163 43.7486 44.608C43.5365 43.8996 43.2296 43.3598 42.8281 42.9886C42.4304 42.6174 41.9512 42.4318 41.3906 42.4318C40.5497 42.4318 39.8925 42.8466 39.419 43.6761C38.9455 44.5019 38.7088 45.6705 38.7088 47.1818C38.7088 48.1894 38.8149 49.0455 39.027 49.75C39.2391 50.4545 39.544 50.9905 39.9418 51.358C40.3433 51.7254 40.8262 51.9091 41.3906 51.9091ZM51.3906 53.1591C50.5346 53.1591 49.8054 52.9261 49.2031 52.4602C48.6009 51.9905 48.1406 51.3106 47.8224 50.4205C47.5043 49.5265 47.3452 48.447 47.3452 47.1818C47.3452 45.9242 47.5043 44.8504 47.8224 43.9602C48.1444 43.0663 48.6065 42.3845 49.2088 41.9148C49.8149 41.4413 50.5421 41.2045 51.3906 41.2045C52.2391 41.2045 52.9645 41.4413 53.5668 41.9148C54.1728 42.3845 54.6349 43.0663 54.9531 43.9602C55.2751 44.8504 55.4361 45.9242 55.4361 47.1818C55.4361 48.447 55.277 49.5265 54.9588 50.4205C54.6406 51.3106 54.1804 51.9905 53.5781 52.4602C52.9759 52.9261 52.2467 53.1591 51.3906 53.1591ZM51.3906 51.9091C52.2391 51.9091 52.8982 51.5 53.3679 50.6818C53.8376 49.8636 54.0724 48.697 54.0724 47.1818C54.0724 46.1742 53.9645 45.3163 53.7486 44.608C53.5365 43.8996 53.2296 43.3598 52.8281 42.9886C52.4304 42.6174 51.9512 42.4318 51.3906 42.4318C50.5497 42.4318 49.8925 42.8466 49.419 43.6761C48.9455 44.5019 48.7088 45.6705 48.7088 47.1818C48.7088 48.1894 48.8149 49.0455 49.027 49.75C49.2391 50.4545 49.544 50.9905 49.9418 51.358C50.3433 51.7254 50.8262 51.9091 51.3906 51.9091ZM59.2116 51.4091L59.1207 52.0227C59.0563 52.4545 58.9579 52.9167 58.8253 53.4091C58.6965 53.9015 58.562 54.3655 58.4219 54.8011C58.2817 55.2367 58.1662 55.5833 58.0753 55.8409H57.0526C57.1018 55.5985 57.1662 55.2784 57.2457 54.8807C57.3253 54.483 57.4048 54.0379 57.4844 53.5455C57.5677 53.0568 57.6359 52.5568 57.6889 52.0455L57.7571 51.4091H59.2116ZM65.0625 53.1591C64.2064 53.1591 63.4773 52.9261 62.875 52.4602C62.2727 51.9905 61.8125 51.3106 61.4943 50.4205C61.1761 49.5265 61.017 48.447 61.017 47.1818C61.017 45.9242 61.1761 44.8504 61.4943 43.9602C61.8163 43.0663 62.2784 42.3845 62.8807 41.9148C63.4867 41.4413 64.214 41.2045 65.0625 41.2045C65.911 41.2045 66.6364 41.4413 67.2386 41.9148C67.8447 42.3845 68.3068 43.0663 68.625 43.9602C68.947 44.8504 69.108 45.9242 69.108 47.1818C69.108 48.447 68.9489 49.5265 68.6307 50.4205C68.3125 51.3106 67.8523 51.9905 67.25 52.4602C66.6477 52.9261 65.9186 53.1591 65.0625 53.1591ZM65.0625 51.9091C65.911 51.9091 66.5701 51.5 67.0398 50.6818C67.5095 49.8636 67.7443 48.697 67.7443 47.1818C67.7443 46.1742 67.6364 45.3163 67.4205 44.608C67.2083 43.8996 66.9015 43.3598 66.5 42.9886C66.1023 42.6174 65.6231 42.4318 65.0625 42.4318C64.2216 42.4318 63.5644 42.8466 63.0909 43.6761C62.6174 44.5019 62.3807 45.6705 62.3807 47.1818C62.3807 48.1894 62.4867 49.0455 62.6989 49.75C62.911 50.4545 63.2159 50.9905 63.6136 51.358C64.0152 51.7254 64.4981 51.9091 65.0625 51.9091ZM75.0625 53.1591C74.2064 53.1591 73.4773 52.9261 72.875 52.4602C72.2727 51.9905 71.8125 51.3106 71.4943 50.4205C71.1761 49.5265 71.017 48.447 71.017 47.1818C71.017 45.9242 71.1761 44.8504 71.4943 43.9602C71.8163 43.0663 72.2784 42.3845 72.8807 41.9148C73.4867 41.4413 74.214 41.2045 75.0625 41.2045C75.911 41.2045 76.6364 41.4413 77.2386 41.9148C77.8447 42.3845 78.3068 43.0663 78.625 43.9602C78.947 44.8504 79.108 45.9242 79.108 47.1818C79.108 48.447 78.9489 49.5265 78.6307 50.4205C78.3125 51.3106 77.8523 51.9905 77.25 52.4602C76.6477 52.9261 75.9186 53.1591 75.0625 53.1591ZM75.0625 51.9091C75.911 51.9091 76.5701 51.5 77.0398 50.6818C77.5095 49.8636 77.7443 48.697 77.7443 47.1818C77.7443 46.1742 77.6364 45.3163 77.4205 44.608C77.2083 43.8996 76.9015 43.3598 76.5 42.9886C76.1023 42.6174 75.6231 42.4318 75.0625 42.4318C74.2216 42.4318 73.5644 42.8466 73.0909 43.6761C72.6174 44.5019 72.3807 45.6705 72.3807 47.1818C72.3807 48.1894 72.4867 49.0455 72.6989 49.75C72.911 50.4545 73.2159 50.9905 73.6136 51.358C74.0152 51.7254 74.4981 51.9091 75.0625 51.9091ZM85.0625 53.1591C84.2064 53.1591 83.4773 52.9261 82.875 52.4602C82.2727 51.9905 81.8125 51.3106 81.4943 50.4205C81.1761 49.5265 81.017 48.447 81.017 47.1818C81.017 45.9242 81.1761 44.8504 81.4943 43.9602C81.8163 43.0663 82.2784 42.3845 82.8807 41.9148C83.4867 41.4413 84.214 41.2045 85.0625 41.2045C85.911 41.2045 86.6364 41.4413 87.2386 41.9148C87.8447 42.3845 88.3068 43.0663 88.625 43.9602C88.947 44.8504 89.108 45.9242 89.108 47.1818C89.108 48.447 88.9489 49.5265 88.6307 50.4205C88.3125 51.3106 87.8523 51.9905 87.25 52.4602C86.6477 52.9261 85.9186 53.1591 85.0625 53.1591ZM85.0625 51.9091C85.911 51.9091 86.5701 51.5 87.0398 50.6818C87.5095 49.8636 87.7443 48.697 87.7443 47.1818C87.7443 46.1742 87.6364 45.3163 87.4205 44.608C87.2083 43.8996 86.9015 43.3598 86.5 42.9886C86.1023 42.6174 85.6231 42.4318 85.0625 42.4318C84.2216 42.4318 83.5644 42.8466 83.0909 43.6761C82.6174 44.5019 82.3807 45.6705 82.3807 47.1818C82.3807 48.1894 82.4867 49.0455 82.6989 49.75C82.911 50.4545 83.2159 50.9905 83.6136 51.358C84.0152 51.7254 84.4981 51.9091 85.0625 51.9091Z" fill="#003649"/>
<path d="M29.4672 217.595H30.3639V222.888C30.3639 223.361 30.2771 223.762 30.1036 224.092C29.93 224.423 29.6853 224.673 29.3696 224.845C29.0538 225.016 28.6814 225.101 28.2523 225.101C27.8474 225.101 27.487 225.028 27.1712 224.881C26.8555 224.731 26.6072 224.519 26.4264 224.244C26.2456 223.97 26.1552 223.643 26.1552 223.264H27.0374C27.0374 223.474 27.0893 223.657 27.1929 223.814C27.299 223.968 27.4436 224.089 27.6268 224.176C27.81 224.262 28.0185 224.306 28.2523 224.306C28.5102 224.306 28.7296 224.252 28.9104 224.143C29.0912 224.035 29.2286 223.876 29.3226 223.666C29.419 223.454 29.4672 223.195 29.4672 222.888V217.595Z" fill="black"/>
<path d="M49.4088 225V217.595H53.8489V218.39H50.3055V220.893H53.5162V221.688H50.3055V225H49.4088Z" fill="black"/>
<path d="M70.8676 217.595H71.9378L74.4544 223.742H74.5411L77.0577 217.595H78.1279V225H77.2891V219.374H77.2167L74.9027 225H74.0928L71.7787 219.374H71.7064V225H70.8676V217.595Z" fill="black"/>
<path d="M95.2601 225H94.32L97.039 217.595H97.9646L100.684 225H99.7435L97.5307 218.767H97.4729L95.2601 225ZM95.6072 222.107H99.3964V222.903H95.6072V222.107Z" fill="black"/>
<path d="M116.868 217.595H117.938L120.454 223.742H120.541L123.058 217.595H124.128V225H123.289V219.374H123.217L120.903 225H120.093L117.779 219.374H117.706V225H116.868V217.595Z" fill="black"/>
<path d="M144.467 217.595H145.364V222.888C145.364 223.361 145.277 223.762 145.104 224.092C144.93 224.423 144.685 224.673 144.37 224.845C144.054 225.016 143.681 225.101 143.252 225.101C142.847 225.101 142.487 225.028 142.171 224.881C141.855 224.731 141.607 224.519 141.426 224.244C141.246 223.97 141.155 223.643 141.155 223.264H142.037C142.037 223.474 142.089 223.657 142.193 223.814C142.299 223.968 142.444 224.089 142.627 224.176C142.81 224.262 143.019 224.306 143.252 224.306C143.51 224.306 143.73 224.252 143.91 224.143C144.091 224.035 144.229 223.876 144.323 223.666C144.419 223.454 144.467 223.195 144.467 222.888V217.595Z" fill="black"/>
<path d="M167.467 217.595H168.364V222.888C168.364 223.361 168.277 223.762 168.104 224.092C167.93 224.423 167.685 224.673 167.37 224.845C167.054 225.016 166.681 225.101 166.252 225.101C165.847 225.101 165.487 225.028 165.171 224.881C164.855 224.731 164.607 224.519 164.426 224.244C164.246 223.97 164.155 223.643 164.155 223.264H165.037C165.037 223.474 165.089 223.657 165.193 223.814C165.299 223.968 165.444 224.089 165.627 224.176C165.81 224.262 166.019 224.306 166.252 224.306C166.51 224.306 166.73 224.252 166.91 224.143C167.091 224.035 167.229 223.876 167.323 223.666C167.419 223.454 167.467 223.195 167.467 222.888V217.595Z" fill="black"/>
<path d="M187.26 225H186.32L189.039 217.595H189.965L192.684 225H191.744L189.531 218.767H189.473L187.26 225ZM187.607 222.107H191.396V222.903H187.607V222.107Z" fill="black"/>
<path d="M214.2 219.446C214.156 219.08 213.98 218.795 213.672 218.593C213.363 218.39 212.985 218.289 212.537 218.289C212.209 218.289 211.922 218.342 211.676 218.448C211.433 218.554 211.242 218.7 211.105 218.886C210.97 219.071 210.902 219.282 210.902 219.519C210.902 219.716 210.949 219.886 211.043 220.028C211.14 220.168 211.263 220.285 211.412 220.379C211.562 220.471 211.718 220.547 211.882 220.607C212.046 220.665 212.197 220.712 212.334 220.748L213.086 220.95C213.279 221.001 213.494 221.071 213.73 221.16C213.968 221.249 214.196 221.371 214.413 221.525C214.633 221.677 214.813 221.872 214.956 222.111C215.098 222.35 215.169 222.643 215.169 222.99C215.169 223.39 215.064 223.751 214.854 224.074C214.647 224.397 214.343 224.654 213.943 224.845C213.545 225.035 213.062 225.13 212.493 225.13C211.963 225.13 211.504 225.045 211.116 224.873C210.73 224.702 210.426 224.464 210.204 224.158C209.985 223.851 209.861 223.496 209.832 223.091H210.758C210.782 223.371 210.876 223.602 211.04 223.785C211.206 223.966 211.416 224.101 211.669 224.19C211.924 224.277 212.199 224.32 212.493 224.32C212.836 224.32 213.143 224.265 213.415 224.154C213.688 224.041 213.903 223.884 214.062 223.684C214.222 223.481 214.301 223.245 214.301 222.975C214.301 222.729 214.232 222.529 214.095 222.375C213.958 222.221 213.777 222.095 213.553 221.999C213.328 221.903 213.086 221.818 212.826 221.746L211.915 221.486C211.336 221.319 210.878 221.082 210.541 220.773C210.203 220.465 210.035 220.061 210.035 219.562C210.035 219.147 210.147 218.786 210.371 218.477C210.597 218.166 210.901 217.925 211.282 217.754C211.665 217.581 212.093 217.494 212.566 217.494C213.043 217.494 213.467 217.579 213.838 217.751C214.209 217.919 214.504 218.151 214.72 218.445C214.94 218.739 215.056 219.073 215.068 219.446H214.2Z" fill="black"/>
<path d="M238.767 221.298C238.767 222.079 238.626 222.753 238.344 223.322C238.062 223.891 237.675 224.33 237.183 224.638C236.691 224.947 236.13 225.101 235.498 225.101C234.867 225.101 234.305 224.947 233.813 224.638C233.322 224.33 232.935 223.891 232.653 223.322C232.371 222.753 232.23 222.079 232.23 221.298C232.23 220.517 232.371 219.842 232.653 219.273C232.935 218.704 233.322 218.265 233.813 217.957C234.305 217.648 234.867 217.494 235.498 217.494C236.13 217.494 236.691 217.648 237.183 217.957C237.675 218.265 238.062 218.704 238.344 219.273C238.626 219.842 238.767 220.517 238.767 221.298ZM237.899 221.298C237.899 220.656 237.792 220.115 237.577 219.674C237.365 219.233 237.077 218.899 236.713 218.673C236.351 218.446 235.947 218.333 235.498 218.333C235.05 218.333 234.644 218.446 234.28 218.673C233.918 218.899 233.63 219.233 233.416 219.674C233.203 220.115 233.097 220.656 233.097 221.298C233.097 221.939 233.203 222.48 233.416 222.921C233.63 223.362 233.918 223.696 234.28 223.923C234.644 224.149 235.05 224.262 235.498 224.262C235.947 224.262 236.351 224.149 236.713 223.923C237.077 223.696 237.365 223.362 237.577 222.921C237.792 222.48 237.899 221.939 237.899 221.298Z" fill="black"/>
<path d="M261.435 217.595V225H260.568L256.533 219.186H256.46V225H255.564V217.595H256.431L260.481 223.424H260.553V217.595H261.435Z" fill="black"/>
<path d="M281.023 225H278.738V217.595H281.124C281.842 217.595 282.457 217.743 282.968 218.04C283.479 218.334 283.871 218.757 284.143 219.309C284.415 219.858 284.552 220.517 284.552 221.283C284.552 222.054 284.414 222.718 284.139 223.275C283.865 223.83 283.465 224.256 282.939 224.555C282.414 224.852 281.775 225 281.023 225ZM279.634 224.205H280.965C281.577 224.205 282.085 224.086 282.487 223.85C282.89 223.614 283.19 223.278 283.387 222.841C283.585 222.405 283.684 221.886 283.684 221.283C283.684 220.685 283.586 220.171 283.391 219.739C283.196 219.305 282.904 218.973 282.516 218.741C282.128 218.507 281.645 218.39 281.066 218.39H279.634V224.205Z" fill="black"/>
<g filter="url(#filter1_dd_12_1337)">
<rect x="146" y="61" width="47" height="20" rx="10" fill="#F8F8F8"/>
<path d="M152.977 75.9256V66.6694H153.57V75.9256H152.977ZM154.973 69.4463C154.929 69.0799 154.753 68.7955 154.445 68.593C154.136 68.3905 153.758 68.2893 153.309 68.2893C152.982 68.2893 152.695 68.3423 152.449 68.4483C152.205 68.5544 152.015 68.7002 151.878 68.8858C151.743 69.0715 151.675 69.2824 151.675 69.5186C151.675 69.7163 151.722 69.8862 151.816 70.0284C151.912 70.1682 152.035 70.2851 152.185 70.3791C152.334 70.4707 152.491 70.5467 152.655 70.6069C152.819 70.6648 152.969 70.7118 153.107 70.7479L153.859 70.9504C154.052 71.001 154.266 71.0709 154.503 71.1601C154.741 71.2493 154.969 71.371 155.186 71.5253C155.405 71.6772 155.586 71.8724 155.728 72.1111C155.87 72.3497 155.942 72.6426 155.942 72.9897C155.942 73.3898 155.837 73.7514 155.627 74.0744C155.42 74.3974 155.116 74.6541 154.716 74.8445C154.318 75.035 153.835 75.1302 153.266 75.1302C152.736 75.1302 152.276 75.0446 151.888 74.8735C151.503 74.7023 151.199 74.4637 150.977 74.1575C150.758 73.8514 150.634 73.4959 150.605 73.0909H151.53C151.555 73.3705 151.649 73.6019 151.812 73.7851C151.979 73.9659 152.188 74.1009 152.442 74.1901C152.697 74.2769 152.972 74.3202 153.266 74.3202C153.608 74.3202 153.916 74.2648 154.188 74.1539C154.46 74.0406 154.676 73.884 154.835 73.6839C154.994 73.4814 155.074 73.2452 155.074 72.9752C155.074 72.7293 155.005 72.5293 154.868 72.375C154.73 72.2207 154.55 72.0954 154.325 71.999C154.101 71.9025 153.859 71.8182 153.599 71.7459L152.687 71.4855C152.109 71.3192 151.651 71.0818 151.313 70.7732C150.976 70.4647 150.807 70.061 150.807 69.562C150.807 69.1474 150.919 68.7858 151.144 68.4773C151.37 68.1663 151.674 67.9253 152.055 67.7541C152.438 67.5806 152.866 67.4938 153.338 67.4938C153.816 67.4938 154.24 67.5794 154.611 67.7505C154.982 67.9192 155.276 68.1507 155.493 68.4447C155.713 68.7388 155.828 69.0727 155.84 69.4463H154.973ZM157.286 75V74.3492L159.73 71.6736C160.017 71.3602 160.253 71.0878 160.439 70.8564C160.624 70.6226 160.762 70.4032 160.851 70.1983C160.942 69.991 160.988 69.7741 160.988 69.5475C160.988 69.2872 160.926 69.0618 160.8 68.8714C160.677 68.681 160.509 68.5339 160.294 68.4303C160.079 68.3266 159.838 68.2748 159.571 68.2748C159.286 68.2748 159.038 68.3338 158.826 68.452C158.616 68.5677 158.454 68.7304 158.338 68.9401C158.225 69.1498 158.168 69.3957 158.168 69.6777H157.315C157.315 69.2438 157.415 68.8629 157.615 68.5351C157.815 68.2073 158.087 67.9518 158.432 67.7686C158.779 67.5854 159.168 67.4938 159.6 67.4938C160.034 67.4938 160.418 67.5854 160.753 67.7686C161.088 67.9518 161.351 68.1989 161.541 68.5098C161.732 68.8208 161.827 69.1667 161.827 69.5475C161.827 69.8199 161.778 70.0863 161.679 70.3466C161.582 70.6045 161.414 70.8926 161.173 71.2107C160.934 71.5265 160.603 71.9122 160.178 72.3678L158.515 74.1467V74.2045H161.957V75H157.286ZM165.953 75.1012C165.475 75.1012 165.05 75.0193 164.676 74.8554C164.305 74.6915 164.01 74.4637 163.79 74.172C163.573 73.8779 163.455 73.5368 163.436 73.1488H164.347C164.366 73.3874 164.448 73.5935 164.593 73.767C164.738 73.9382 164.927 74.0708 165.161 74.1648C165.395 74.2588 165.654 74.3058 165.938 74.3058C166.256 74.3058 166.538 74.2503 166.784 74.1395C167.03 74.0286 167.223 73.8743 167.363 73.6767C167.502 73.479 167.572 73.25 167.572 72.9897C167.572 72.7173 167.505 72.4774 167.37 72.2701C167.235 72.0604 167.037 71.8965 166.777 71.7784C166.517 71.6603 166.198 71.6012 165.822 71.6012H165.229V70.8058H165.822C166.116 70.8058 166.374 70.7528 166.596 70.6467C166.82 70.5406 166.995 70.3912 167.12 70.1983C167.248 70.0055 167.312 69.7789 167.312 69.5186C167.312 69.2679 167.257 69.0498 167.146 68.8642C167.035 68.6785 166.878 68.5339 166.676 68.4303C166.476 68.3266 166.239 68.2748 165.967 68.2748C165.711 68.2748 165.47 68.3218 165.244 68.4158C165.02 68.5074 164.836 68.6412 164.694 68.8171C164.552 68.9907 164.475 69.2004 164.463 69.4463H163.595C163.61 69.0582 163.726 68.7183 163.946 68.4267C164.165 68.1326 164.452 67.9036 164.806 67.7397C165.163 67.5758 165.555 67.4938 165.981 67.4938C166.439 67.4938 166.832 67.5866 167.16 67.7722C167.488 67.9554 167.74 68.1977 167.916 68.499C168.092 68.8003 168.18 69.1257 168.18 69.4752C168.18 69.8922 168.07 70.2478 167.851 70.5418C167.634 70.8359 167.339 71.0396 166.965 71.1529V71.2107C167.433 71.2879 167.798 71.4867 168.06 71.8073C168.323 72.1255 168.455 72.5196 168.455 72.9897C168.455 73.3922 168.345 73.7538 168.126 74.0744C167.909 74.3926 167.612 74.6433 167.236 74.8264C166.86 75.0096 166.432 75.1012 165.953 75.1012ZM170.992 73.9876L170.934 74.3781C170.893 74.6529 170.83 74.947 170.746 75.2603C170.664 75.5737 170.579 75.869 170.489 76.1462C170.4 76.4234 170.327 76.6439 170.269 76.8079H169.618C169.649 76.6536 169.69 76.4499 169.741 76.1968C169.792 75.9437 169.842 75.6605 169.893 75.3471C169.946 75.0362 169.989 74.718 170.023 74.3926L170.066 73.9876H170.992ZM174.846 67.4938C175.15 67.4962 175.454 67.5541 175.757 67.6674C176.061 67.7806 176.338 67.9687 176.589 68.2314C176.84 68.4917 177.041 68.8473 177.193 69.298C177.345 69.7488 177.421 70.314 177.421 70.9938C177.421 71.6519 177.358 72.2364 177.233 72.7474C177.11 73.256 176.931 73.6851 176.698 74.0346C176.466 74.3841 176.184 74.6493 175.851 74.8301C175.521 75.0108 175.148 75.1012 174.731 75.1012C174.316 75.1012 173.946 75.0193 173.621 74.8554C173.298 74.689 173.032 74.4588 172.825 74.1648C172.62 73.8683 172.489 73.5248 172.431 73.1343H173.313C173.393 73.4742 173.551 73.755 173.787 73.9768C174.026 74.1961 174.34 74.3058 174.731 74.3058C175.302 74.3058 175.753 74.0563 176.083 73.5573C176.415 73.0584 176.582 72.3533 176.582 71.4421H176.524C176.389 71.6446 176.229 71.8194 176.043 71.9664C175.857 72.1135 175.651 72.2268 175.425 72.3063C175.198 72.3858 174.957 72.4256 174.702 72.4256C174.277 72.4256 173.888 72.3208 173.534 72.1111C173.182 71.8989 172.9 71.6085 172.688 71.2397C172.478 70.8685 172.373 70.4442 172.373 69.9669C172.373 69.5138 172.474 69.0992 172.677 68.7231C172.882 68.3447 173.169 68.0434 173.537 67.8192C173.909 67.595 174.345 67.4866 174.846 67.4938ZM174.846 68.2893C174.543 68.2893 174.269 68.3652 174.026 68.517C173.784 68.6665 173.593 68.869 173.451 69.1245C173.311 69.3776 173.241 69.6584 173.241 69.9669C173.241 70.2755 173.308 70.5563 173.443 70.8094C173.581 71.0601 173.768 71.2602 174.004 71.4096C174.242 71.5566 174.514 71.6302 174.817 71.6302C175.046 71.6302 175.26 71.5856 175.457 71.4964C175.655 71.4048 175.827 71.2806 175.974 71.124C176.124 70.9649 176.241 70.7853 176.325 70.5852C176.409 70.3827 176.452 70.1718 176.452 69.9525C176.452 69.6632 176.382 69.392 176.242 69.1389C176.105 68.8858 175.914 68.681 175.671 68.5243C175.43 68.3676 175.155 68.2893 174.846 68.2893ZM178.843 75V74.3492L181.287 71.6736C181.574 71.3602 181.81 71.0878 181.995 70.8564C182.181 70.6226 182.318 70.4032 182.408 70.1983C182.499 69.991 182.545 69.7741 182.545 69.5475C182.545 69.2872 182.482 69.0618 182.357 68.8714C182.234 68.681 182.065 68.5339 181.851 68.4303C181.636 68.3266 181.395 68.2748 181.128 68.2748C180.843 68.2748 180.595 68.3338 180.383 68.452C180.173 68.5677 180.01 68.7304 179.895 68.9401C179.781 69.1498 179.725 69.3957 179.725 69.6777H178.871C178.871 69.2438 178.971 68.8629 179.172 68.5351C179.372 68.2073 179.644 67.9518 179.989 67.7686C180.336 67.5854 180.725 67.4938 181.157 67.4938C181.59 67.4938 181.975 67.5854 182.31 67.7686C182.645 67.9518 182.908 68.1989 183.098 68.5098C183.289 68.8208 183.384 69.1667 183.384 69.5475C183.384 69.8199 183.334 70.0863 183.236 70.3466C183.139 70.6045 182.97 70.8926 182.729 71.2107C182.491 71.5265 182.159 71.9122 181.735 72.3678L180.072 74.1467V74.2045H183.514V75H178.843ZM187.611 67.595V75H186.714V68.5351H186.671L184.863 69.7355V68.8244L186.714 67.595H187.611Z" fill="black"/>
</g>
<defs>
<filter id="filter0_dd_12_1337" x="180" y="83" width="23" height="23" filterUnits="userSpaceOnUse" color-interpolation-filters="sRGB">
<feFlood flood-opacity="0" result="BackgroundImageFix"/>
<feColorMatrix in="SourceAlpha" type="matrix" values="0 0 0 0 0 0 0 0 0 0 0 0 0 0 0 0 0 0 127 0" result="hardAlpha"/>
<feOffset dy="1"/>
<feGaussianBlur stdDeviation="1.5"/>
<feComposite in2="hardAlpha" operator="out"/>
<feColorMatrix type="matrix" values="0 0 0 0 0 0 0 0 0 0 0 0 0 0 0 0 0 0 0.1 0"/>
<feBlend mode="normal" in2="BackgroundImageFix" result="effect1_dropShadow_12_1337"/>
<feColorMatrix in="SourceAlpha" type="matrix" values="0 0 0 0 0 0 0 0 0 0 0 0 0 0 0 0 0 0 127 0" result="hardAlpha"/>
<feMorphology radius="1" operator="erode" in="SourceAlpha" result="effect2_dropShadow_12_1337"/>
<feOffset dy="1"/>
<feGaussianBlur stdDeviation="1"/>
<feComposite in2="hardAlpha" operator="out"/>
<feColorMatrix type="matrix" values="0 0 0 0 0 0 0 0 0 0 0 0 0 0 0 0 0 0 0.1 0"/>
<feBlend mode="normal" in2="effect1_dropShadow_12_1337" result="effect2_dropShadow_12_1337"/>
<feBlend mode="normal" in="SourceGraphic" in2="effect2_dropShadow_12_1337" result="shape"/>
</filter>
<filter id="filter1_dd_12_1337" x="143" y="59" width="53" height="26" filterUnits="userSpaceOnUse" color-interpolation-filters="sRGB">
<feFlood flood-opacity="0" result="BackgroundImageFix"/>
<feColorMatrix in="SourceAlpha" type="matrix" values="0 0 0 0 0 0 0 0 0 0 0 0 0 0 0 0 0 0 127 0" result="hardAlpha"/>
<feOffset dy="1"/>
<feGaussianBlur stdDeviation="1.5"/>
<feComposite in2="hardAlpha" operator="out"/>
<feColorMatrix type="matrix" values="0 0 0 0 0 0 0 0 0 0 0 0 0 0 0 0 0 0 0.1 0"/>
<feBlend mode="normal" in2="BackgroundImageFix" result="effect1_dropShadow_12_1337"/>
<feColorMatrix in="SourceAlpha" type="matrix" values="0 0 0 0 0 0 0 0 0 0 0 0 0 0 0 0 0 0 127 0" result="hardAlpha"/>
<feMorphology radius="1" operator="erode" in="SourceAlpha" result="effect2_dropShadow_12_1337"/>
<feOffset dy="1"/>
<feGaussianBlur stdDeviation="1"/>
<feComposite in2="hardAlpha" operator="out"/>
<feColorMatrix type="matrix" values="0 0 0 0 0 0 0 0 0 0 0 0 0 0 0 0 0 0 0.1 0"/>
<feBlend mode="normal" in2="effect1_dropShadow_12_1337" result="effect2_dropShadow_12_1337"/>
<feBlend mode="normal" in="SourceGraphic" in2="effect2_dropShadow_12_1337" result="shape"/>
</filter>
<linearGradient id="paint0_linear_12_1337" x1="156.5" y1="84" x2="156.5" y2="206" gradientUnits="userSpaceOnUse">
<stop stop-color="#005C7C"/>
<stop offset="1" stop-color="#005C7C" stop-opacity="0"/>
</linearGradient>
<linearGradient id="paint1_linear_12_1337" x1="156.576" y1="82" x2="156.576" y2="206" gradientUnits="userSpaceOnUse">
<stop stop-color="#6D8B76"/>
<stop offset="1" stop-color="#6D8B76" stop-opacity="0"/>
</linearGradient>
<clipPath id="clip0_12_1337">
<rect width="280" height="145" fill="white" transform="translate(16 61)"/>
</clipPath>
</defs>
</svg>
