<svg width="313" height="242" viewBox="0 0 313 242" fill="none" xmlns="http://www.w3.org/2000/svg">
<rect width="313" height="242" fill="white"/>
<g clip-path="url(#clip0_12_1595)">
<path d="M-143.518 187.146L-356 171.172V265H1194V70L985.293 120.586L796.176 146.358C790.578 147.12 784.891 146.909 779.365 145.734L652.722 118.795C648.128 117.818 643.418 117.507 638.735 117.87L461.774 131.604C458.313 131.873 454.833 131.773 451.392 131.306L169.44 93.0338C160.663 91.8425 151.728 93.0522 143.585 96.5342L-37.6957 174.046C-42.0951 175.927 -46.7462 177.154 -51.5011 177.687L-134.386 186.979C-137.418 187.318 -140.476 187.374 -143.518 187.146Z" fill="url(#paint0_linear_12_1595)"/>
<path d="M-356 171.082L-144.878 186.668C-141.889 186.889 -138.887 186.835 -135.908 186.507L-53.4598 177.43C-48.7777 176.915 -44.1944 175.727 -39.8514 173.903L140.366 98.2305C148.396 94.8589 157.179 93.6882 165.811 94.8389L446.087 132.2C449.468 132.65 452.885 132.747 456.286 132.488L632.208 119.08C636.808 118.729 641.435 119.03 645.951 119.973L771.914 146.285C777.346 147.42 782.932 147.624 788.432 146.888L976.386 121.735L1192 70" stroke="#003649" stroke-width="2" stroke-linecap="round"/>
<path d="M-197.605 170.856L-356 186.495V263H1192V134.956L1080.39 103.225C1075.65 101.876 1070.72 101.269 1065.79 101.427L914.289 106.285C909.427 106.441 904.569 105.854 899.884 104.544L771.356 68.6013C765.217 66.8845 758.796 66.413 752.472 67.2148L591.026 87.682L455.628 117.539L276.571 140.157C274.01 140.48 271.427 140.596 268.848 140.502L122.147 135.181C118.031 135.032 113.913 135.415 109.896 136.321L-38.0104 169.684C-41.4622 170.463 -44.9897 170.856 -48.5282 170.856H-197.605Z" fill="url(#paint1_linear_12_1595)"/>
<path d="M-354 187L-202.234 171.295H-53.4519C-49.8931 171.295 -46.3455 170.898 -42.875 170.11L104.698 136.625C108.737 135.709 112.879 135.321 117.018 135.472L263.393 140.814C265.987 140.908 268.585 140.791 271.161 140.464L449.884 117.755L585.051 87.7729L746.15 67.229C752.51 66.418 758.968 66.8947 765.14 68.6309L893.333 104.691C898.042 106.016 902.928 106.61 907.817 106.452L1058.95 101.578C1063.91 101.418 1068.86 102.031 1073.63 103.395L1185 135.245" stroke="#0B7029" stroke-width="1.95099" stroke-linecap="round"/>
</g>
<line x1="17" y1="205.313" x2="295.103" y2="205.313" stroke="#003649" stroke-width="0.975494"/>
<g filter="url(#filter0_dd_12_1595)">
<circle cx="115.5" cy="133.5" r="8.5" fill="#F8F8F8"/>
<circle cx="115.5" cy="133.5" r="7.5" stroke="#0B7029" stroke-width="2"/>
</g>
<path d="M17.4091 30V18.3636H21.4773C22.2879 18.3636 22.9564 18.5038 23.483 18.7841C24.0095 19.0606 24.4015 19.4337 24.6591 19.9034C24.9167 20.3693 25.0455 20.8864 25.0455 21.4545C25.0455 21.9545 24.9564 22.3674 24.7784 22.6932C24.6042 23.0189 24.3731 23.2765 24.0852 23.4659C23.8011 23.6553 23.4924 23.7955 23.1591 23.8864V24C23.5152 24.0227 23.8731 24.1477 24.233 24.375C24.5928 24.6023 24.8939 24.928 25.1364 25.3523C25.3788 25.7765 25.5 26.2955 25.5 26.9091C25.5 27.4924 25.3674 28.017 25.1023 28.483C24.8371 28.9489 24.4186 29.3182 23.8466 29.5909C23.2746 29.8636 22.5303 30 21.6136 30H17.4091ZM18.8182 28.75H21.6136C22.5341 28.75 23.1875 28.572 23.5739 28.2159C23.964 27.8561 24.1591 27.4205 24.1591 26.9091C24.1591 26.5152 24.0587 26.1515 23.858 25.8182C23.6572 25.4811 23.3712 25.2121 23 25.0114C22.6288 24.8068 22.1894 24.7045 21.6818 24.7045H18.8182V28.75ZM18.8182 23.4773H21.4318C21.8561 23.4773 22.2386 23.3939 22.5795 23.2273C22.9242 23.0606 23.197 22.8258 23.3977 22.5227C23.6023 22.2197 23.7045 21.8636 23.7045 21.4545C23.7045 20.9432 23.5265 20.5095 23.1705 20.1534C22.8144 19.7936 22.25 19.6136 21.4773 19.6136H18.8182V23.4773ZM33.1335 26.4318V21.2727H34.4744V30H33.1335V28.5227H33.0426C32.8381 28.9659 32.5199 29.3428 32.0881 29.6534C31.6563 29.9602 31.1108 30.1136 30.4517 30.1136C29.9062 30.1136 29.4214 29.9943 28.9972 29.7557C28.5729 29.5133 28.2396 29.1496 27.9972 28.6648C27.7547 28.1761 27.6335 27.5606 27.6335 26.8182V21.2727H28.9744V26.7273C28.9744 27.3636 29.1525 27.8712 29.5085 28.25C29.8684 28.6288 30.3267 28.8182 30.8835 28.8182C31.2169 28.8182 31.5559 28.733 31.9006 28.5625C32.2491 28.392 32.5407 28.1307 32.7756 27.7784C33.0142 27.4261 33.1335 26.9773 33.1335 26.4318ZM40.2259 30.1818C39.4986 30.1818 38.8565 29.9981 38.2997 29.6307C37.7429 29.2595 37.3073 28.7367 36.9929 28.0625C36.6785 27.3845 36.5213 26.5833 36.5213 25.6591C36.5213 24.7424 36.6785 23.947 36.9929 23.2727C37.3073 22.5985 37.7448 22.0777 38.3054 21.7102C38.866 21.3428 39.5137 21.1591 40.2486 21.1591C40.8168 21.1591 41.2656 21.2538 41.5952 21.4432C41.9285 21.6288 42.1823 21.8409 42.3565 22.0795C42.5346 22.3144 42.6728 22.5076 42.7713 22.6591H42.8849V18.3636H44.2259V30H42.9304V28.6591H42.7713C42.6728 28.8182 42.5327 29.0189 42.3509 29.2614C42.169 29.5 41.9096 29.714 41.5724 29.9034C41.2353 30.089 40.7865 30.1818 40.2259 30.1818ZM40.4077 28.9773C40.9455 28.9773 41.4001 28.8371 41.7713 28.5568C42.1425 28.2727 42.4247 27.8807 42.6179 27.3807C42.8111 26.8769 42.9077 26.2955 42.9077 25.6364C42.9077 24.9848 42.813 24.4148 42.6236 23.9261C42.4342 23.4337 42.1539 23.0511 41.7827 22.7784C41.4115 22.5019 40.9531 22.3636 40.4077 22.3636C39.8395 22.3636 39.366 22.5095 38.9872 22.8011C38.6122 23.089 38.33 23.4811 38.1406 23.9773C37.955 24.4697 37.8622 25.0227 37.8622 25.6364C37.8622 26.2576 37.9569 26.822 38.1463 27.3295C38.3395 27.8333 38.6236 28.2348 38.9986 28.5341C39.3774 28.8295 39.8471 28.9773 40.4077 28.9773ZM50.3906 33.4545C49.7429 33.4545 49.1861 33.3712 48.7202 33.2045C48.2543 33.0417 47.866 32.8258 47.5554 32.5568C47.2486 32.2917 47.0043 32.0076 46.8224 31.7045L47.8906 30.9545C48.0118 31.1136 48.1652 31.2955 48.3509 31.5C48.5365 31.7083 48.7902 31.8883 49.1122 32.0398C49.438 32.1951 49.8641 32.2727 50.3906 32.2727C51.0952 32.2727 51.6766 32.1023 52.1349 31.7614C52.5933 31.4205 52.8224 30.8864 52.8224 30.1591V28.3864H52.7088C52.6103 28.5455 52.4702 28.7424 52.2884 28.9773C52.1103 29.2083 51.8527 29.4148 51.5156 29.5966C51.1823 29.7746 50.7315 29.8636 50.1634 29.8636C49.4588 29.8636 48.8262 29.697 48.2656 29.3636C47.7088 29.0303 47.2675 28.5455 46.9418 27.9091C46.6198 27.2727 46.4588 26.5 46.4588 25.5909C46.4588 24.697 46.616 23.9186 46.9304 23.2557C47.2448 22.589 47.6823 22.0739 48.2429 21.7102C48.8035 21.3428 49.4512 21.1591 50.1861 21.1591C50.7543 21.1591 51.205 21.2538 51.5384 21.4432C51.8755 21.6288 52.133 21.8409 52.3111 22.0795C52.4929 22.3144 52.633 22.5076 52.7315 22.6591H52.8679V21.2727H54.1634V30.25C54.1634 31 53.9929 31.6098 53.652 32.0795C53.3149 32.553 52.8603 32.8996 52.2884 33.1193C51.7202 33.3428 51.0876 33.4545 50.3906 33.4545ZM50.3452 28.6591C50.883 28.6591 51.3376 28.536 51.7088 28.2898C52.08 28.0436 52.3622 27.6894 52.5554 27.2273C52.7486 26.7652 52.8452 26.2121 52.8452 25.5682C52.8452 24.9394 52.7505 24.3845 52.5611 23.9034C52.3717 23.4223 52.0914 23.0455 51.7202 22.7727C51.349 22.5 50.8906 22.3636 50.3452 22.3636C49.777 22.3636 49.3035 22.5076 48.9247 22.7955C48.5497 23.0833 48.2675 23.4697 48.0781 23.9545C47.8925 24.4394 47.7997 24.9773 47.7997 25.5682C47.7997 26.1742 47.8944 26.7102 48.0838 27.1761C48.277 27.6383 48.5611 28.0019 48.9361 28.267C49.3149 28.5284 49.7846 28.6591 50.3452 28.6591ZM60.277 30.1818C59.4361 30.1818 58.7107 29.9962 58.1009 29.625C57.4948 29.25 57.027 28.7273 56.6974 28.0568C56.3717 27.3826 56.2088 26.5985 56.2088 25.7045C56.2088 24.8106 56.3717 24.0227 56.6974 23.3409C57.027 22.6553 57.4853 22.1212 58.0724 21.7386C58.6634 21.3523 59.3527 21.1591 60.1406 21.1591C60.5952 21.1591 61.044 21.2348 61.4872 21.3864C61.9304 21.5379 62.3338 21.7841 62.6974 22.125C63.0611 22.4621 63.3509 22.9091 63.5668 23.4659C63.7827 24.0227 63.8906 24.7083 63.8906 25.5227V26.0909H57.1634V24.9318H62.527C62.527 24.4394 62.4285 24 62.2315 23.6136C62.0384 23.2273 61.7618 22.9223 61.402 22.6989C61.0459 22.4754 60.6255 22.3636 60.1406 22.3636C59.6065 22.3636 59.1444 22.4962 58.7543 22.7614C58.3679 23.0227 58.0705 23.3636 57.8622 23.7841C57.6539 24.2045 57.5497 24.6553 57.5497 25.1364V25.9091C57.5497 26.5682 57.6634 27.1269 57.8906 27.5852C58.1217 28.0398 58.4418 28.3864 58.8509 28.625C59.2599 28.8598 59.7353 28.9773 60.277 28.9773C60.6293 28.9773 60.9474 28.928 61.2315 28.8295C61.5194 28.7273 61.7675 28.5758 61.9759 28.375C62.1842 28.1705 62.3452 27.9167 62.4588 27.6136L63.7543 27.9773C63.6179 28.4167 63.3887 28.803 63.0668 29.1364C62.7448 29.4659 62.3471 29.7235 61.8736 29.9091C61.4001 30.0909 60.8679 30.1818 60.277 30.1818ZM69.7259 21.2727V22.4091H65.2031V21.2727H69.7259ZM66.5213 19.1818H67.8622V27.5C67.8622 27.8788 67.9171 28.1629 68.027 28.3523C68.1406 28.5379 68.2846 28.6629 68.4588 28.7273C68.6368 28.7879 68.8243 28.8182 69.0213 28.8182C69.169 28.8182 69.2902 28.8106 69.3849 28.7955C69.4796 28.7765 69.5554 28.7614 69.6122 28.75L69.8849 29.9545C69.794 29.9886 69.6671 30.0227 69.5043 30.0568C69.3414 30.0947 69.1349 30.1136 68.8849 30.1136C68.5062 30.1136 68.1349 30.0322 67.7713 29.8693C67.4115 29.7064 67.1122 29.4583 66.8736 29.125C66.6387 28.7917 66.5213 28.3712 66.5213 27.8636V19.1818Z" fill="black"/>
<path d="M20.6364 54.4545V39.9091H21.5682V54.4545H20.6364ZM23.7727 44.2727C23.7045 43.697 23.428 43.25 22.9432 42.9318C22.4583 42.6136 21.8636 42.4545 21.1591 42.4545C20.6439 42.4545 20.1932 42.5379 19.8068 42.7045C19.4242 42.8712 19.125 43.1004 18.9091 43.392C18.697 43.6837 18.5909 44.0152 18.5909 44.3864C18.5909 44.697 18.6648 44.964 18.8125 45.1875C18.964 45.4072 19.1572 45.5909 19.392 45.7386C19.6269 45.8826 19.8731 46.0019 20.1307 46.0966C20.3883 46.1875 20.625 46.2614 20.8409 46.3182L22.0227 46.6364C22.3258 46.7159 22.6629 46.8258 23.0341 46.9659C23.4091 47.1061 23.767 47.2973 24.108 47.5398C24.4527 47.7784 24.7367 48.0852 24.9602 48.4602C25.1837 48.8352 25.2955 49.2955 25.2955 49.8409C25.2955 50.4697 25.1307 51.0379 24.8011 51.5455C24.4754 52.053 23.9981 52.4564 23.3693 52.7557C22.7443 53.0549 21.9848 53.2045 21.0909 53.2045C20.2576 53.2045 19.536 53.0701 18.9261 52.8011C18.3201 52.5322 17.8428 52.1572 17.4943 51.6761C17.1496 51.1951 16.9545 50.6364 16.9091 50H18.3636C18.4015 50.4394 18.5492 50.803 18.8068 51.0909C19.0682 51.375 19.3977 51.5871 19.7955 51.7273C20.197 51.8636 20.6288 51.9318 21.0909 51.9318C21.6288 51.9318 22.1117 51.8447 22.5398 51.6705C22.9678 51.4924 23.3068 51.2462 23.5568 50.9318C23.8068 50.6136 23.9318 50.2424 23.9318 49.8182C23.9318 49.4318 23.8239 49.1174 23.608 48.875C23.392 48.6326 23.108 48.4356 22.7557 48.2841C22.4034 48.1326 22.0227 48 21.6136 47.8864L20.1818 47.4773C19.2727 47.2159 18.553 46.8428 18.0227 46.358C17.4924 45.8731 17.2273 45.2386 17.2273 44.4545C17.2273 43.803 17.4034 43.2348 17.7557 42.75C18.1117 42.2614 18.589 41.8826 19.1875 41.6136C19.7898 41.3409 20.4621 41.2045 21.2045 41.2045C21.9545 41.2045 22.6212 41.339 23.2045 41.608C23.7879 41.8731 24.25 42.2367 24.5909 42.6989C24.9356 43.161 25.1174 43.6856 25.1364 44.2727H23.7727ZM31.1122 41.2045C31.5895 41.2083 32.0668 41.2992 32.544 41.4773C33.0213 41.6553 33.4569 41.9508 33.8509 42.3636C34.2448 42.7727 34.5611 43.3314 34.7997 44.0398C35.0384 44.7481 35.1577 45.6364 35.1577 46.7045C35.1577 47.7386 35.0592 48.6572 34.8622 49.4602C34.669 50.2595 34.3887 50.9337 34.0213 51.483C33.6577 52.0322 33.2145 52.4489 32.6918 52.733C32.1728 53.017 31.5857 53.1591 30.9304 53.1591C30.2789 53.1591 29.6974 53.0303 29.1861 52.7727C28.6785 52.5114 28.2618 52.1496 27.9361 51.6875C27.6141 51.2216 27.4077 50.6818 27.3168 50.0682H28.7031C28.8281 50.6023 29.0762 51.0436 29.4474 51.392C29.8224 51.7367 30.3168 51.9091 30.9304 51.9091C31.8281 51.9091 32.5365 51.517 33.0554 50.733C33.5781 49.9489 33.8395 48.8409 33.8395 47.4091H33.7486C33.5365 47.7273 33.2846 48.0019 32.9929 48.233C32.7012 48.464 32.3774 48.642 32.0213 48.767C31.6652 48.892 31.2865 48.9545 30.8849 48.9545C30.2183 48.9545 29.6065 48.7898 29.0497 48.4602C28.4967 48.1269 28.0535 47.6705 27.7202 47.0909C27.3906 46.5076 27.2259 45.8409 27.2259 45.0909C27.2259 44.3788 27.3849 43.7273 27.7031 43.1364C28.0251 42.5417 28.4759 42.0682 29.0554 41.7159C29.6387 41.3636 30.3243 41.1932 31.1122 41.2045ZM31.1122 42.4545C30.6349 42.4545 30.205 42.5739 29.8224 42.8125C29.4437 43.0473 29.1425 43.3655 28.919 43.767C28.6993 44.1648 28.5895 44.6061 28.5895 45.0909C28.5895 45.5758 28.6955 46.017 28.9077 46.4148C29.1236 46.8087 29.4171 47.1231 29.7884 47.358C30.1634 47.589 30.5895 47.7045 31.0668 47.7045C31.4266 47.7045 31.7618 47.6345 32.0724 47.4943C32.383 47.3504 32.6539 47.1553 32.8849 46.9091C33.1198 46.6591 33.3035 46.3769 33.4361 46.0625C33.5687 45.7443 33.6349 45.4129 33.6349 45.0682C33.6349 44.6136 33.5251 44.1875 33.3054 43.7898C33.0895 43.392 32.7902 43.0701 32.4077 42.8239C32.0289 42.5777 31.5971 42.4545 31.1122 42.4545ZM41.1875 53.1591C40.3314 53.1591 39.6023 52.9261 39 52.4602C38.3977 51.9905 37.9375 51.3106 37.6193 50.4205C37.3011 49.5265 37.142 48.447 37.142 47.1818C37.142 45.9242 37.3011 44.8504 37.6193 43.9602C37.9413 43.0663 38.4034 42.3845 39.0057 41.9148C39.6117 41.4413 40.339 41.2045 41.1875 41.2045C42.036 41.2045 42.7614 41.4413 43.3636 41.9148C43.9697 42.3845 44.4318 43.0663 44.75 43.9602C45.072 44.8504 45.233 45.9242 45.233 47.1818C45.233 48.447 45.0739 49.5265 44.7557 50.4205C44.4375 51.3106 43.9773 51.9905 43.375 52.4602C42.7727 52.9261 42.0436 53.1591 41.1875 53.1591ZM41.1875 51.9091C42.036 51.9091 42.6951 51.5 43.1648 50.6818C43.6345 49.8636 43.8693 48.697 43.8693 47.1818C43.8693 46.1742 43.7614 45.3163 43.5455 44.608C43.3333 43.8996 43.0265 43.3598 42.625 42.9886C42.2273 42.6174 41.7481 42.4318 41.1875 42.4318C40.3466 42.4318 39.6894 42.8466 39.2159 43.6761C38.7424 44.5019 38.5057 45.6705 38.5057 47.1818C38.5057 48.1894 38.6117 49.0455 38.8239 49.75C39.036 50.4545 39.3409 50.9905 39.7386 51.358C40.1402 51.7254 40.6231 51.9091 41.1875 51.9091ZM51.1875 53.1591C50.3314 53.1591 49.6023 52.9261 49 52.4602C48.3977 51.9905 47.9375 51.3106 47.6193 50.4205C47.3011 49.5265 47.142 48.447 47.142 47.1818C47.142 45.9242 47.3011 44.8504 47.6193 43.9602C47.9413 43.0663 48.4034 42.3845 49.0057 41.9148C49.6117 41.4413 50.339 41.2045 51.1875 41.2045C52.036 41.2045 52.7614 41.4413 53.3636 41.9148C53.9697 42.3845 54.4318 43.0663 54.75 43.9602C55.072 44.8504 55.233 45.9242 55.233 47.1818C55.233 48.447 55.0739 49.5265 54.7557 50.4205C54.4375 51.3106 53.9773 51.9905 53.375 52.4602C52.7727 52.9261 52.0436 53.1591 51.1875 53.1591ZM51.1875 51.9091C52.036 51.9091 52.6951 51.5 53.1648 50.6818C53.6345 49.8636 53.8693 48.697 53.8693 47.1818C53.8693 46.1742 53.7614 45.3163 53.5455 44.608C53.3333 43.8996 53.0265 43.3598 52.625 42.9886C52.2273 42.6174 51.7481 42.4318 51.1875 42.4318C50.3466 42.4318 49.6894 42.8466 49.2159 43.6761C48.7424 44.5019 48.5057 45.6705 48.5057 47.1818C48.5057 48.1894 48.6117 49.0455 48.8239 49.75C49.036 50.4545 49.3409 50.9905 49.7386 51.358C50.1402 51.7254 50.6231 51.9091 51.1875 51.9091Z" fill="#003649"/>
<path d="M138.568 218.39V217.595H144.122V218.39H141.794V225H140.897V218.39H138.568ZM151.446 221.298C151.446 222.079 151.305 222.753 151.023 223.322C150.741 223.891 150.354 224.33 149.862 224.638C149.37 224.947 148.809 225.101 148.177 225.101C147.546 225.101 146.984 224.947 146.492 224.638C146.001 224.33 145.614 223.891 145.332 223.322C145.05 222.753 144.909 222.079 144.909 221.298C144.909 220.517 145.05 219.842 145.332 219.273C145.614 218.704 146.001 218.265 146.492 217.957C146.984 217.648 147.546 217.494 148.177 217.494C148.809 217.494 149.37 217.648 149.862 217.957C150.354 218.265 150.741 218.704 151.023 219.273C151.305 219.842 151.446 220.517 151.446 221.298ZM150.578 221.298C150.578 220.656 150.471 220.115 150.256 219.674C150.044 219.233 149.756 218.899 149.392 218.673C149.03 218.446 148.626 218.333 148.177 218.333C147.729 218.333 147.323 218.446 146.959 218.673C146.597 218.899 146.309 219.233 146.095 219.674C145.882 220.115 145.776 220.656 145.776 221.298C145.776 221.939 145.882 222.48 146.095 222.921C146.309 223.362 146.597 223.696 146.959 223.923C147.323 224.149 147.729 224.262 148.177 224.262C148.626 224.262 149.03 224.149 149.392 223.923C149.756 223.696 150.044 223.362 150.256 222.921C150.471 222.48 150.578 221.939 150.578 221.298ZM155.239 225H152.954V217.595H155.34C156.058 217.595 156.673 217.743 157.184 218.04C157.695 218.334 158.087 218.757 158.359 219.309C158.631 219.858 158.768 220.517 158.768 221.283C158.768 222.054 158.63 222.718 158.355 223.275C158.081 223.83 157.68 224.256 157.155 224.555C156.629 224.852 155.991 225 155.239 225ZM153.85 224.205H155.181C155.793 224.205 156.3 224.086 156.703 223.85C157.106 223.614 157.406 223.278 157.603 222.841C157.801 222.405 157.9 221.886 157.9 221.283C157.9 220.685 157.802 220.171 157.607 219.739C157.412 219.305 157.12 218.973 156.732 218.741C156.344 218.507 155.861 218.39 155.282 218.39H153.85V224.205ZM160.227 225H159.287L162.006 217.595H162.932L165.651 225H164.711L162.498 218.767H162.44L160.227 225ZM160.575 222.107H164.364V222.903H160.575V222.107ZM165.412 217.595H166.439L168.493 221.052H168.58L170.633 217.595H171.66L168.985 221.948V225H168.088V221.948L165.412 217.595Z" fill="black"/>
<g filter="url(#filter1_dd_12_1595)">
<rect x="74" y="101" width="32" height="20" rx="10" fill="#F8F8F8"/>
<path d="M80.9739 115.926V106.669H81.5668V115.926H80.9739ZM82.9697 109.446C82.9263 109.08 82.7504 108.795 82.4418 108.593C82.1333 108.39 81.7548 108.289 81.3065 108.289C80.9787 108.289 80.6918 108.342 80.446 108.448C80.2025 108.554 80.0121 108.7 79.8747 108.886C79.7397 109.071 79.6722 109.282 79.6722 109.519C79.6722 109.716 79.7192 109.886 79.8132 110.028C79.9096 110.168 80.0326 110.285 80.182 110.379C80.3315 110.471 80.4881 110.547 80.6521 110.607C80.816 110.665 80.9666 110.712 81.104 110.748L81.8561 110.95C82.0489 111.001 82.2635 111.071 82.4997 111.16C82.7383 111.249 82.9661 111.371 83.183 111.525C83.4024 111.677 83.5832 111.872 83.7254 112.111C83.8676 112.35 83.9387 112.643 83.9387 112.99C83.9387 113.39 83.8339 113.751 83.6242 114.074C83.4169 114.397 83.1131 114.654 82.713 114.845C82.3153 115.035 81.832 115.13 81.2631 115.13C80.7328 115.13 80.2736 115.045 79.8855 114.873C79.4998 114.702 79.1961 114.464 78.9744 114.158C78.755 113.851 78.6309 113.496 78.6019 113.091H79.5276C79.5517 113.371 79.6457 113.602 79.8096 113.785C79.9759 113.966 80.1856 114.101 80.4387 114.19C80.6942 114.277 80.969 114.32 81.2631 114.32C81.6054 114.32 81.9127 114.265 82.1851 114.154C82.4575 114.041 82.6732 113.884 82.8323 113.684C82.9914 113.481 83.071 113.245 83.071 112.975C83.071 112.729 83.0023 112.529 82.8649 112.375C82.7275 112.221 82.5467 112.095 82.3225 111.999C82.0983 111.903 81.8561 111.818 81.5958 111.746L80.6846 111.486C80.1061 111.319 79.6481 111.082 79.3106 110.773C78.9732 110.465 78.8044 110.061 78.8044 109.562C78.8044 109.147 78.9165 108.786 79.1407 108.477C79.3673 108.166 79.671 107.925 80.0518 107.754C80.4351 107.581 80.863 107.494 81.3354 107.494C81.8127 107.494 82.2369 107.579 82.6081 107.751C82.9794 107.919 83.2734 108.151 83.4904 108.445C83.7097 108.739 83.8254 109.073 83.8375 109.446H82.9697ZM87.8862 107.595V115H86.9895V108.535H86.9461L85.1382 109.736V108.824L86.9895 107.595H87.8862ZM92.4311 115.101C91.8863 115.101 91.4223 114.953 91.0391 114.657C90.6558 114.358 90.3629 113.925 90.1604 113.358C89.958 112.79 89.8567 112.103 89.8567 111.298C89.8567 110.497 89.958 109.814 90.1604 109.247C90.3653 108.679 90.6594 108.245 91.0427 107.946C91.4284 107.644 91.8912 107.494 92.4311 107.494C92.9711 107.494 93.4327 107.644 93.8159 107.946C94.2016 108.245 94.4957 108.679 94.6982 109.247C94.903 109.814 95.0055 110.497 95.0055 111.298C95.0055 112.103 94.9042 112.79 94.7018 113.358C94.4993 113.925 94.2064 114.358 93.8232 114.657C93.4399 114.953 92.9759 115.101 92.4311 115.101ZM92.4311 114.306C92.9711 114.306 93.3905 114.045 93.6894 113.525C93.9883 113.004 94.1377 112.262 94.1377 111.298C94.1377 110.656 94.069 110.11 93.9316 109.66C93.7966 109.209 93.6014 108.865 93.3459 108.629C93.0928 108.393 92.7879 108.275 92.4311 108.275C91.896 108.275 91.4778 108.539 91.1765 109.067C90.8752 109.592 90.7245 110.336 90.7245 111.298C90.7245 111.939 90.792 112.483 90.927 112.932C91.062 113.38 91.256 113.721 91.5091 113.955C91.7646 114.189 92.0719 114.306 92.4311 114.306ZM98.7947 115.101C98.25 115.101 97.786 114.953 97.4027 114.657C97.0194 114.358 96.7266 113.925 96.5241 113.358C96.3216 112.79 96.2204 112.103 96.2204 111.298C96.2204 110.497 96.3216 109.814 96.5241 109.247C96.729 108.679 97.0231 108.245 97.4063 107.946C97.792 107.644 98.2548 107.494 98.7947 107.494C99.3347 107.494 99.7963 107.644 100.18 107.946C100.565 108.245 100.859 108.679 101.062 109.247C101.267 109.814 101.369 110.497 101.369 111.298C101.369 112.103 101.268 112.79 101.065 113.358C100.863 113.925 100.57 114.358 100.187 114.657C99.8035 114.953 99.3395 115.101 98.7947 115.101ZM98.7947 114.306C99.3347 114.306 99.7541 114.045 100.053 113.525C100.352 113.004 100.501 112.262 100.501 111.298C100.501 110.656 100.433 110.11 100.295 109.66C100.16 109.209 99.965 108.865 99.7095 108.629C99.4564 108.393 99.1515 108.275 98.7947 108.275C98.2596 108.275 97.8414 108.539 97.5401 109.067C97.2388 109.592 97.0881 110.336 97.0881 111.298C97.0881 111.939 97.1556 112.483 97.2906 112.932C97.4256 113.38 97.6196 113.721 97.8727 113.955C98.1283 114.189 98.4356 114.306 98.7947 114.306Z" fill="black"/>
</g>
<defs>
<filter id="filter0_dd_12_1595" x="104" y="123" width="23" height="23" filterUnits="userSpaceOnUse" color-interpolation-filters="sRGB">
<feFlood flood-opacity="0" result="BackgroundImageFix"/>
<feColorMatrix in="SourceAlpha" type="matrix" values="0 0 0 0 0 0 0 0 0 0 0 0 0 0 0 0 0 0 127 0" result="hardAlpha"/>
<feOffset dy="1"/>
<feGaussianBlur stdDeviation="1.5"/>
<feComposite in2="hardAlpha" operator="out"/>
<feColorMatrix type="matrix" values="0 0 0 0 0 0 0 0 0 0 0 0 0 0 0 0 0 0 0.1 0"/>
<feBlend mode="normal" in2="BackgroundImageFix" result="effect1_dropShadow_12_1595"/>
<feColorMatrix in="SourceAlpha" type="matrix" values="0 0 0 0 0 0 0 0 0 0 0 0 0 0 0 0 0 0 127 0" result="hardAlpha"/>
<feMorphology radius="1" operator="erode" in="SourceAlpha" result="effect2_dropShadow_12_1595"/>
<feOffset dy="1"/>
<feGaussianBlur stdDeviation="1"/>
<feComposite in2="hardAlpha" operator="out"/>
<feColorMatrix type="matrix" values="0 0 0 0 0 0 0 0 0 0 0 0 0 0 0 0 0 0 0.1 0"/>
<feBlend mode="normal" in2="effect1_dropShadow_12_1595" result="effect2_dropShadow_12_1595"/>
<feBlend mode="normal" in="SourceGraphic" in2="effect2_dropShadow_12_1595" result="shape"/>
</filter>
<filter id="filter1_dd_12_1595" x="71" y="99" width="38" height="26" filterUnits="userSpaceOnUse" color-interpolation-filters="sRGB">
<feFlood flood-opacity="0" result="BackgroundImageFix"/>
<feColorMatrix in="SourceAlpha" type="matrix" values="0 0 0 0 0 0 0 0 0 0 0 0 0 0 0 0 0 0 127 0" result="hardAlpha"/>
<feOffset dy="1"/>
<feGaussianBlur stdDeviation="1.5"/>
<feComposite in2="hardAlpha" operator="out"/>
<feColorMatrix type="matrix" values="0 0 0 0 0 0 0 0 0 0 0 0 0 0 0 0 0 0 0.1 0"/>
<feBlend mode="normal" in2="BackgroundImageFix" result="effect1_dropShadow_12_1595"/>
<feColorMatrix in="SourceAlpha" type="matrix" values="0 0 0 0 0 0 0 0 0 0 0 0 0 0 0 0 0 0 127 0" result="hardAlpha"/>
<feMorphology radius="1" operator="erode" in="SourceAlpha" result="effect2_dropShadow_12_1595"/>
<feOffset dy="1"/>
<feGaussianBlur stdDeviation="1"/>
<feComposite in2="hardAlpha" operator="out"/>
<feColorMatrix type="matrix" values="0 0 0 0 0 0 0 0 0 0 0 0 0 0 0 0 0 0 0.1 0"/>
<feBlend mode="normal" in2="effect1_dropShadow_12_1595" result="effect2_dropShadow_12_1595"/>
<feBlend mode="normal" in="SourceGraphic" in2="effect2_dropShadow_12_1595" result="shape"/>
</filter>
<linearGradient id="paint0_linear_12_1595" x1="419" y1="70" x2="419" y2="265" gradientUnits="userSpaceOnUse">
<stop stop-color="#005C7C"/>
<stop offset="1" stop-color="#005C7C" stop-opacity="0"/>
</linearGradient>
<linearGradient id="paint1_linear_12_1595" x1="421.185" y1="66" x2="421.185" y2="263" gradientUnits="userSpaceOnUse">
<stop stop-color="#6D8B76"/>
<stop offset="1" stop-color="#6D8B76" stop-opacity="0"/>
</linearGradient>
<clipPath id="clip0_12_1595">
<rect width="280" height="145" fill="white" transform="translate(16 61)"/>
</clipPath>
</defs>
</svg>
