<svg width="313" height="242" viewBox="0 0 313 242" fill="none" xmlns="http://www.w3.org/2000/svg">
<rect width="313" height="242" fill="white"/>
<g clip-path="url(#clip0_12_1537)">
<path d="M-71.9085 214.207L-175 199.172V293H624V98L520.44 146.693C517.762 147.952 514.975 148.966 512.114 149.723L430.524 171.292C420.172 174.029 409.208 173.299 399.31 169.215L353.965 150.503C345.749 147.113 336.767 146.021 327.979 147.344L253.862 158.503C247.267 159.496 240.539 159.132 234.089 157.434L113.309 125.63C98.0165 121.603 81.7204 125.204 69.5487 135.3L-5.14366 197.255C-11.1856 202.267 -18.3432 205.754 -26.0138 207.422L-54.4242 213.6C-60.1687 214.85 -66.0912 215.055 -71.9085 214.207Z" fill="url(#paint0_linear_12_1537)"/>
<path d="M-175 199.082L-72.4923 213.762C-66.7758 214.581 -60.9595 214.383 -55.312 213.177L-26.9527 207.12C-19.3597 205.499 -12.2607 202.096 -6.24074 197.192L67.9831 136.734C80.0655 126.893 96.1087 123.385 111.196 127.287L231.488 158.392C237.831 160.032 244.44 160.384 250.922 159.425L324.799 148.503C333.442 147.225 342.27 148.281 350.368 151.563L395.651 169.912C405.407 173.865 416.177 174.572 426.365 171.927L507.531 150.856C510.404 150.11 513.204 149.104 515.895 147.852L623 98" stroke="#003649" stroke-width="2" stroke-linecap="round"/>
<path d="M-97.8019 199.709L-175 214.495V291H623V162.956L573.948 135.903C565.997 131.518 556.96 129.488 547.897 130.052L489.754 133.669C480.804 134.225 471.877 132.253 463.994 127.977L417.613 102.816C407.156 97.1436 394.959 95.5744 383.406 98.4155L316.988 114.749C314.464 115.37 311.994 116.196 309.604 117.218L247.007 143.995C244.605 145.023 242.122 145.852 239.584 146.474L156.377 166.862C151.561 168.042 146.591 168.466 141.645 168.118L80.0279 163.782C72.3181 163.239 64.5918 164.574 57.5112 167.673L-4.59109 194.847C-10.6333 197.491 -17.1572 198.856 -23.7525 198.856H-88.8102C-91.8276 198.856 -94.8383 199.141 -97.8019 199.709Z" fill="url(#paint1_linear_12_1537)"/>
<path d="M-174 215L-100.459 200.231C-97.3604 199.608 -94.2078 199.295 -91.0474 199.295H-26.4358C-19.8029 199.295 -13.2426 197.915 -7.17218 195.241L54.6555 168.015C61.77 164.882 69.5413 163.532 77.2956 164.081L138.622 168.424C143.598 168.776 148.599 168.348 153.443 167.153L236.386 146.7C238.936 146.071 241.43 145.233 243.842 144.195L306.258 117.325C308.658 116.292 311.139 115.457 313.675 114.83L379.781 98.4693C391.396 95.5948 403.666 97.1809 414.168 102.914L460.26 128.077C468.175 132.397 477.15 134.391 486.15 133.828L543.95 130.21C553.063 129.639 562.149 131.691 570.132 136.122L619 163.245" stroke="#0B7029" stroke-width="1.95099" stroke-linecap="round"/>
</g>
<line x1="17" y1="205.313" x2="295.103" y2="205.313" stroke="#003649" stroke-width="0.975494"/>
<g filter="url(#filter0_dd_12_1537)">
<circle cx="42.5" cy="177.5" r="8.5" fill="#F8F8F8"/>
<circle cx="42.5" cy="177.5" r="7.5" stroke="#0B7029" stroke-width="2"/>
</g>
<path d="M17.4091 30V18.3636H21.4773C22.2879 18.3636 22.9564 18.5038 23.483 18.7841C24.0095 19.0606 24.4015 19.4337 24.6591 19.9034C24.9167 20.3693 25.0455 20.8864 25.0455 21.4545C25.0455 21.9545 24.9564 22.3674 24.7784 22.6932C24.6042 23.0189 24.3731 23.2765 24.0852 23.4659C23.8011 23.6553 23.4924 23.7955 23.1591 23.8864V24C23.5152 24.0227 23.8731 24.1477 24.233 24.375C24.5928 24.6023 24.8939 24.928 25.1364 25.3523C25.3788 25.7765 25.5 26.2955 25.5 26.9091C25.5 27.4924 25.3674 28.017 25.1023 28.483C24.8371 28.9489 24.4186 29.3182 23.8466 29.5909C23.2746 29.8636 22.5303 30 21.6136 30H17.4091ZM18.8182 28.75H21.6136C22.5341 28.75 23.1875 28.572 23.5739 28.2159C23.964 27.8561 24.1591 27.4205 24.1591 26.9091C24.1591 26.5152 24.0587 26.1515 23.858 25.8182C23.6572 25.4811 23.3712 25.2121 23 25.0114C22.6288 24.8068 22.1894 24.7045 21.6818 24.7045H18.8182V28.75ZM18.8182 23.4773H21.4318C21.8561 23.4773 22.2386 23.3939 22.5795 23.2273C22.9242 23.0606 23.197 22.8258 23.3977 22.5227C23.6023 22.2197 23.7045 21.8636 23.7045 21.4545C23.7045 20.9432 23.5265 20.5095 23.1705 20.1534C22.8144 19.7936 22.25 19.6136 21.4773 19.6136H18.8182V23.4773ZM33.1335 26.4318V21.2727H34.4744V30H33.1335V28.5227H33.0426C32.8381 28.9659 32.5199 29.3428 32.0881 29.6534C31.6563 29.9602 31.1108 30.1136 30.4517 30.1136C29.9062 30.1136 29.4214 29.9943 28.9972 29.7557C28.5729 29.5133 28.2396 29.1496 27.9972 28.6648C27.7547 28.1761 27.6335 27.5606 27.6335 26.8182V21.2727H28.9744V26.7273C28.9744 27.3636 29.1525 27.8712 29.5085 28.25C29.8684 28.6288 30.3267 28.8182 30.8835 28.8182C31.2169 28.8182 31.5559 28.733 31.9006 28.5625C32.2491 28.392 32.5407 28.1307 32.7756 27.7784C33.0142 27.4261 33.1335 26.9773 33.1335 26.4318ZM40.2259 30.1818C39.4986 30.1818 38.8565 29.9981 38.2997 29.6307C37.7429 29.2595 37.3073 28.7367 36.9929 28.0625C36.6785 27.3845 36.5213 26.5833 36.5213 25.6591C36.5213 24.7424 36.6785 23.947 36.9929 23.2727C37.3073 22.5985 37.7448 22.0777 38.3054 21.7102C38.866 21.3428 39.5137 21.1591 40.2486 21.1591C40.8168 21.1591 41.2656 21.2538 41.5952 21.4432C41.9285 21.6288 42.1823 21.8409 42.3565 22.0795C42.5346 22.3144 42.6728 22.5076 42.7713 22.6591H42.8849V18.3636H44.2259V30H42.9304V28.6591H42.7713C42.6728 28.8182 42.5327 29.0189 42.3509 29.2614C42.169 29.5 41.9096 29.714 41.5724 29.9034C41.2353 30.089 40.7865 30.1818 40.2259 30.1818ZM40.4077 28.9773C40.9455 28.9773 41.4001 28.8371 41.7713 28.5568C42.1425 28.2727 42.4247 27.8807 42.6179 27.3807C42.8111 26.8769 42.9077 26.2955 42.9077 25.6364C42.9077 24.9848 42.813 24.4148 42.6236 23.9261C42.4342 23.4337 42.1539 23.0511 41.7827 22.7784C41.4115 22.5019 40.9531 22.3636 40.4077 22.3636C39.8395 22.3636 39.366 22.5095 38.9872 22.8011C38.6122 23.089 38.33 23.4811 38.1406 23.9773C37.955 24.4697 37.8622 25.0227 37.8622 25.6364C37.8622 26.2576 37.9569 26.822 38.1463 27.3295C38.3395 27.8333 38.6236 28.2348 38.9986 28.5341C39.3774 28.8295 39.8471 28.9773 40.4077 28.9773ZM50.3906 33.4545C49.7429 33.4545 49.1861 33.3712 48.7202 33.2045C48.2543 33.0417 47.866 32.8258 47.5554 32.5568C47.2486 32.2917 47.0043 32.0076 46.8224 31.7045L47.8906 30.9545C48.0118 31.1136 48.1652 31.2955 48.3509 31.5C48.5365 31.7083 48.7902 31.8883 49.1122 32.0398C49.438 32.1951 49.8641 32.2727 50.3906 32.2727C51.0952 32.2727 51.6766 32.1023 52.1349 31.7614C52.5933 31.4205 52.8224 30.8864 52.8224 30.1591V28.3864H52.7088C52.6103 28.5455 52.4702 28.7424 52.2884 28.9773C52.1103 29.2083 51.8527 29.4148 51.5156 29.5966C51.1823 29.7746 50.7315 29.8636 50.1634 29.8636C49.4588 29.8636 48.8262 29.697 48.2656 29.3636C47.7088 29.0303 47.2675 28.5455 46.9418 27.9091C46.6198 27.2727 46.4588 26.5 46.4588 25.5909C46.4588 24.697 46.616 23.9186 46.9304 23.2557C47.2448 22.589 47.6823 22.0739 48.2429 21.7102C48.8035 21.3428 49.4512 21.1591 50.1861 21.1591C50.7543 21.1591 51.205 21.2538 51.5384 21.4432C51.8755 21.6288 52.133 21.8409 52.3111 22.0795C52.4929 22.3144 52.633 22.5076 52.7315 22.6591H52.8679V21.2727H54.1634V30.25C54.1634 31 53.9929 31.6098 53.652 32.0795C53.3149 32.553 52.8603 32.8996 52.2884 33.1193C51.7202 33.3428 51.0876 33.4545 50.3906 33.4545ZM50.3452 28.6591C50.883 28.6591 51.3376 28.536 51.7088 28.2898C52.08 28.0436 52.3622 27.6894 52.5554 27.2273C52.7486 26.7652 52.8452 26.2121 52.8452 25.5682C52.8452 24.9394 52.7505 24.3845 52.5611 23.9034C52.3717 23.4223 52.0914 23.0455 51.7202 22.7727C51.349 22.5 50.8906 22.3636 50.3452 22.3636C49.777 22.3636 49.3035 22.5076 48.9247 22.7955C48.5497 23.0833 48.2675 23.4697 48.0781 23.9545C47.8925 24.4394 47.7997 24.9773 47.7997 25.5682C47.7997 26.1742 47.8944 26.7102 48.0838 27.1761C48.277 27.6383 48.5611 28.0019 48.9361 28.267C49.3149 28.5284 49.7846 28.6591 50.3452 28.6591ZM60.277 30.1818C59.4361 30.1818 58.7107 29.9962 58.1009 29.625C57.4948 29.25 57.027 28.7273 56.6974 28.0568C56.3717 27.3826 56.2088 26.5985 56.2088 25.7045C56.2088 24.8106 56.3717 24.0227 56.6974 23.3409C57.027 22.6553 57.4853 22.1212 58.0724 21.7386C58.6634 21.3523 59.3527 21.1591 60.1406 21.1591C60.5952 21.1591 61.044 21.2348 61.4872 21.3864C61.9304 21.5379 62.3338 21.7841 62.6974 22.125C63.0611 22.4621 63.3509 22.9091 63.5668 23.4659C63.7827 24.0227 63.8906 24.7083 63.8906 25.5227V26.0909H57.1634V24.9318H62.527C62.527 24.4394 62.4285 24 62.2315 23.6136C62.0384 23.2273 61.7618 22.9223 61.402 22.6989C61.0459 22.4754 60.6255 22.3636 60.1406 22.3636C59.6065 22.3636 59.1444 22.4962 58.7543 22.7614C58.3679 23.0227 58.0705 23.3636 57.8622 23.7841C57.6539 24.2045 57.5497 24.6553 57.5497 25.1364V25.9091C57.5497 26.5682 57.6634 27.1269 57.8906 27.5852C58.1217 28.0398 58.4418 28.3864 58.8509 28.625C59.2599 28.8598 59.7353 28.9773 60.277 28.9773C60.6293 28.9773 60.9474 28.928 61.2315 28.8295C61.5194 28.7273 61.7675 28.5758 61.9759 28.375C62.1842 28.1705 62.3452 27.9167 62.4588 27.6136L63.7543 27.9773C63.6179 28.4167 63.3887 28.803 63.0668 29.1364C62.7448 29.4659 62.3471 29.7235 61.8736 29.9091C61.4001 30.0909 60.8679 30.1818 60.277 30.1818ZM69.7259 21.2727V22.4091H65.2031V21.2727H69.7259ZM66.5213 19.1818H67.8622V27.5C67.8622 27.8788 67.9171 28.1629 68.027 28.3523C68.1406 28.5379 68.2846 28.6629 68.4588 28.7273C68.6368 28.7879 68.8243 28.8182 69.0213 28.8182C69.169 28.8182 69.2902 28.8106 69.3849 28.7955C69.4796 28.7765 69.5554 28.7614 69.6122 28.75L69.8849 29.9545C69.794 29.9886 69.6671 30.0227 69.5043 30.0568C69.3414 30.0947 69.1349 30.1136 68.8849 30.1136C68.5062 30.1136 68.1349 30.0322 67.7713 29.8693C67.4115 29.7064 67.1122 29.4583 66.8736 29.125C66.6387 28.7917 66.5213 28.3712 66.5213 27.8636V19.1818Z" fill="black"/>
<path d="M20.6364 54.4545V39.9091H21.5682V54.4545H20.6364ZM23.7727 44.2727C23.7045 43.697 23.428 43.25 22.9432 42.9318C22.4583 42.6136 21.8636 42.4545 21.1591 42.4545C20.6439 42.4545 20.1932 42.5379 19.8068 42.7045C19.4242 42.8712 19.125 43.1004 18.9091 43.392C18.697 43.6837 18.5909 44.0152 18.5909 44.3864C18.5909 44.697 18.6648 44.964 18.8125 45.1875C18.964 45.4072 19.1572 45.5909 19.392 45.7386C19.6269 45.8826 19.8731 46.0019 20.1307 46.0966C20.3883 46.1875 20.625 46.2614 20.8409 46.3182L22.0227 46.6364C22.3258 46.7159 22.6629 46.8258 23.0341 46.9659C23.4091 47.1061 23.767 47.2973 24.108 47.5398C24.4527 47.7784 24.7367 48.0852 24.9602 48.4602C25.1837 48.8352 25.2955 49.2955 25.2955 49.8409C25.2955 50.4697 25.1307 51.0379 24.8011 51.5455C24.4754 52.053 23.9981 52.4564 23.3693 52.7557C22.7443 53.0549 21.9848 53.2045 21.0909 53.2045C20.2576 53.2045 19.536 53.0701 18.9261 52.8011C18.3201 52.5322 17.8428 52.1572 17.4943 51.6761C17.1496 51.1951 16.9545 50.6364 16.9091 50H18.3636C18.4015 50.4394 18.5492 50.803 18.8068 51.0909C19.0682 51.375 19.3977 51.5871 19.7955 51.7273C20.197 51.8636 20.6288 51.9318 21.0909 51.9318C21.6288 51.9318 22.1117 51.8447 22.5398 51.6705C22.9678 51.4924 23.3068 51.2462 23.5568 50.9318C23.8068 50.6136 23.9318 50.2424 23.9318 49.8182C23.9318 49.4318 23.8239 49.1174 23.608 48.875C23.392 48.6326 23.108 48.4356 22.7557 48.2841C22.4034 48.1326 22.0227 48 21.6136 47.8864L20.1818 47.4773C19.2727 47.2159 18.553 46.8428 18.0227 46.358C17.4924 45.8731 17.2273 45.2386 17.2273 44.4545C17.2273 43.803 17.4034 43.2348 17.7557 42.75C18.1117 42.2614 18.589 41.8826 19.1875 41.6136C19.7898 41.3409 20.4621 41.2045 21.2045 41.2045C21.9545 41.2045 22.6212 41.339 23.2045 41.608C23.7879 41.8731 24.25 42.2367 24.5909 42.6989C24.9356 43.161 25.1174 43.6856 25.1364 44.2727H23.7727ZM27.4077 53V51.9773L31.2486 47.7727C31.6993 47.2803 32.0705 46.8523 32.3622 46.4886C32.6539 46.1212 32.8698 45.7765 33.0099 45.4545C33.1539 45.1288 33.2259 44.7879 33.2259 44.4318C33.2259 44.0227 33.1274 43.6686 32.9304 43.3693C32.7372 43.0701 32.4721 42.839 32.1349 42.6761C31.7978 42.5133 31.419 42.4318 30.9986 42.4318C30.5516 42.4318 30.1615 42.5246 29.8281 42.7102C29.4986 42.892 29.2429 43.1477 29.0611 43.4773C28.883 43.8068 28.794 44.1932 28.794 44.6364H27.4531C27.4531 43.9545 27.6103 43.3561 27.9247 42.8409C28.2391 42.3258 28.6671 41.9242 29.2088 41.6364C29.7543 41.3485 30.366 41.2045 31.044 41.2045C31.7259 41.2045 32.33 41.3485 32.8565 41.6364C33.383 41.9242 33.7959 42.3125 34.0952 42.8011C34.3944 43.2898 34.544 43.8333 34.544 44.4318C34.544 44.8598 34.4664 45.2784 34.3111 45.6875C34.1596 46.0928 33.8944 46.5455 33.5156 47.0455C33.1406 47.5417 32.6198 48.1477 31.9531 48.8636L29.3395 51.6591V51.75H34.7486V53H27.4077ZM40.7315 53.1591C40.0649 53.1591 39.4645 53.0265 38.9304 52.7614C38.3963 52.4962 37.9683 52.1326 37.6463 51.6705C37.3243 51.2083 37.1482 50.6818 37.1179 50.0909H38.4815C38.5346 50.6174 38.7732 51.053 39.1974 51.3977C39.6255 51.7386 40.1368 51.9091 40.7315 51.9091C41.2088 51.9091 41.633 51.7973 42.0043 51.5739C42.3793 51.3504 42.6728 51.0436 42.8849 50.6534C43.1009 50.2595 43.2088 49.8144 43.2088 49.3182C43.2088 48.8106 43.0971 48.358 42.8736 47.9602C42.6539 47.5587 42.3509 47.2424 41.9645 47.0114C41.5781 46.7803 41.1368 46.6629 40.6406 46.6591C40.2846 46.6553 39.919 46.7102 39.544 46.8239C39.169 46.9337 38.8603 47.0758 38.6179 47.25L37.2997 47.0909L38.0043 41.3636H44.0497V42.6136H39.1861L38.777 46.0455H38.8452C39.0838 45.8561 39.383 45.6989 39.7429 45.5739C40.1027 45.4489 40.4777 45.3864 40.8679 45.3864C41.58 45.3864 42.2145 45.5568 42.7713 45.8977C43.3319 46.2348 43.7713 46.697 44.0895 47.2841C44.4115 47.8712 44.5724 48.5417 44.5724 49.2955C44.5724 50.0379 44.4058 50.7008 44.0724 51.2841C43.7429 51.8636 43.2884 52.322 42.7088 52.6591C42.1293 52.9924 41.4702 53.1591 40.7315 53.1591ZM48.4148 51.4091L48.3239 52.0227C48.2595 52.4545 48.161 52.9167 48.0284 53.4091C47.8996 53.9015 47.7652 54.3655 47.625 54.8011C47.4848 55.2367 47.3693 55.5833 47.2784 55.8409H46.2557C46.3049 55.5985 46.3693 55.2784 46.4489 54.8807C46.5284 54.483 46.608 54.0379 46.6875 53.5455C46.7708 53.0568 46.839 52.5568 46.892 52.0455L46.9602 51.4091H48.4148ZM54.2656 53.1591C53.4096 53.1591 52.6804 52.9261 52.0781 52.4602C51.4759 51.9905 51.0156 51.3106 50.6974 50.4205C50.3793 49.5265 50.2202 48.447 50.2202 47.1818C50.2202 45.9242 50.3793 44.8504 50.6974 43.9602C51.0194 43.0663 51.4815 42.3845 52.0838 41.9148C52.6899 41.4413 53.4171 41.2045 54.2656 41.2045C55.1141 41.2045 55.8395 41.4413 56.4418 41.9148C57.0478 42.3845 57.5099 43.0663 57.8281 43.9602C58.1501 44.8504 58.3111 45.9242 58.3111 47.1818C58.3111 48.447 58.152 49.5265 57.8338 50.4205C57.5156 51.3106 57.0554 51.9905 56.4531 52.4602C55.8509 52.9261 55.1217 53.1591 54.2656 53.1591ZM54.2656 51.9091C55.1141 51.9091 55.7732 51.5 56.2429 50.6818C56.7126 49.8636 56.9474 48.697 56.9474 47.1818C56.9474 46.1742 56.8395 45.3163 56.6236 44.608C56.4115 43.8996 56.1046 43.3598 55.7031 42.9886C55.3054 42.6174 54.8262 42.4318 54.2656 42.4318C53.4247 42.4318 52.7675 42.8466 52.294 43.6761C51.8205 44.5019 51.5838 45.6705 51.5838 47.1818C51.5838 48.1894 51.6899 49.0455 51.902 49.75C52.1141 50.4545 52.419 50.9905 52.8168 51.358C53.2183 51.7254 53.7012 51.9091 54.2656 51.9091ZM64.2656 53.1591C63.4096 53.1591 62.6804 52.9261 62.0781 52.4602C61.4759 51.9905 61.0156 51.3106 60.6974 50.4205C60.3793 49.5265 60.2202 48.447 60.2202 47.1818C60.2202 45.9242 60.3793 44.8504 60.6974 43.9602C61.0194 43.0663 61.4815 42.3845 62.0838 41.9148C62.6899 41.4413 63.4171 41.2045 64.2656 41.2045C65.1141 41.2045 65.8395 41.4413 66.4418 41.9148C67.0478 42.3845 67.5099 43.0663 67.8281 43.9602C68.1501 44.8504 68.3111 45.9242 68.3111 47.1818C68.3111 48.447 68.152 49.5265 67.8338 50.4205C67.5156 51.3106 67.0554 51.9905 66.4531 52.4602C65.8509 52.9261 65.1217 53.1591 64.2656 53.1591ZM64.2656 51.9091C65.1141 51.9091 65.7732 51.5 66.2429 50.6818C66.7126 49.8636 66.9474 48.697 66.9474 47.1818C66.9474 46.1742 66.8395 45.3163 66.6236 44.608C66.4115 43.8996 66.1046 43.3598 65.7031 42.9886C65.3054 42.6174 64.8262 42.4318 64.2656 42.4318C63.4247 42.4318 62.7675 42.8466 62.294 43.6761C61.8205 44.5019 61.5838 45.6705 61.5838 47.1818C61.5838 48.1894 61.6899 49.0455 61.902 49.75C62.1141 50.4545 62.419 50.9905 62.8168 51.358C63.2183 51.7254 63.7012 51.9091 64.2656 51.9091ZM74.2656 53.1591C73.4096 53.1591 72.6804 52.9261 72.0781 52.4602C71.4759 51.9905 71.0156 51.3106 70.6974 50.4205C70.3793 49.5265 70.2202 48.447 70.2202 47.1818C70.2202 45.9242 70.3793 44.8504 70.6974 43.9602C71.0194 43.0663 71.4815 42.3845 72.0838 41.9148C72.6899 41.4413 73.4171 41.2045 74.2656 41.2045C75.1141 41.2045 75.8395 41.4413 76.4418 41.9148C77.0478 42.3845 77.5099 43.0663 77.8281 43.9602C78.1501 44.8504 78.3111 45.9242 78.3111 47.1818C78.3111 48.447 78.152 49.5265 77.8338 50.4205C77.5156 51.3106 77.0554 51.9905 76.4531 52.4602C75.8509 52.9261 75.1217 53.1591 74.2656 53.1591ZM74.2656 51.9091C75.1141 51.9091 75.7732 51.5 76.2429 50.6818C76.7126 49.8636 76.9474 48.697 76.9474 47.1818C76.9474 46.1742 76.8395 45.3163 76.6236 44.608C76.4115 43.8996 76.1046 43.3598 75.7031 42.9886C75.3054 42.6174 74.8262 42.4318 74.2656 42.4318C73.4247 42.4318 72.7675 42.8466 72.294 43.6761C71.8205 44.5019 71.5838 45.6705 71.5838 47.1818C71.5838 48.1894 71.6899 49.0455 71.902 49.75C72.1141 50.4545 72.419 50.9905 72.8168 51.358C73.2183 51.7254 73.7012 51.9091 74.2656 51.9091Z" fill="#003649"/>
<path d="M32.5429 225L30.5181 217.595H31.4292L32.9768 223.626H33.0491L34.6255 217.595H35.6379L37.2144 223.626H37.2867L38.8342 217.595H39.7454L37.7206 225H36.7949L35.1606 219.099H35.1028L33.4685 225H32.5429ZM43.3357 217.595V225H42.439V218.535H42.3957L40.5878 219.736V218.824L42.439 217.595H43.3357Z" fill="black"/>
<path d="M110.16 225L108.135 217.595H109.047L110.594 223.626H110.666L112.243 217.595H113.255L114.832 223.626H114.904L116.452 217.595H117.363L115.338 225H114.412L112.778 219.099H112.72L111.086 225H110.16ZM118.35 225V224.349L120.794 221.674C121.081 221.36 121.317 221.088 121.503 220.856C121.688 220.623 121.826 220.403 121.915 220.198C122.006 219.991 122.052 219.774 122.052 219.548C122.052 219.287 121.99 219.062 121.864 218.871C121.741 218.681 121.573 218.534 121.358 218.43C121.144 218.327 120.902 218.275 120.635 218.275C120.35 218.275 120.102 218.334 119.89 218.452C119.68 218.568 119.518 218.73 119.402 218.94C119.289 219.15 119.232 219.396 119.232 219.678H118.379C118.379 219.244 118.479 218.863 118.679 218.535C118.879 218.207 119.151 217.952 119.496 217.769C119.843 217.585 120.232 217.494 120.664 217.494C121.098 217.494 121.482 217.585 121.817 217.769C122.152 217.952 122.415 218.199 122.605 218.51C122.796 218.821 122.891 219.167 122.891 219.548C122.891 219.82 122.842 220.086 122.743 220.347C122.646 220.605 122.478 220.893 122.237 221.211C121.998 221.527 121.667 221.912 121.242 222.368L119.579 224.147V224.205H123.021V225H118.35Z" fill="black"/>
<path d="M188.335 225L186.31 217.595H187.221L188.769 223.626H188.841L190.417 217.595H191.43L193.006 223.626H193.078L194.626 217.595H195.537L193.512 225H192.587L190.952 219.099H190.895L189.26 225H188.335ZM199.026 225.101C198.549 225.101 198.124 225.019 197.75 224.855C197.379 224.691 197.083 224.464 196.864 224.172C196.647 223.878 196.529 223.537 196.51 223.149H197.421C197.44 223.387 197.522 223.593 197.667 223.767C197.811 223.938 198.001 224.071 198.234 224.165C198.468 224.259 198.727 224.306 199.012 224.306C199.33 224.306 199.612 224.25 199.858 224.139C200.104 224.029 200.297 223.874 200.436 223.677C200.576 223.479 200.646 223.25 200.646 222.99C200.646 222.717 200.579 222.477 200.444 222.27C200.309 222.06 200.111 221.897 199.851 221.778C199.59 221.66 199.272 221.601 198.896 221.601H198.303V220.806H198.896C199.19 220.806 199.448 220.753 199.67 220.647C199.894 220.541 200.069 220.391 200.194 220.198C200.322 220.006 200.386 219.779 200.386 219.519C200.386 219.268 200.33 219.05 200.219 218.864C200.109 218.679 199.952 218.534 199.749 218.43C199.549 218.327 199.313 218.275 199.041 218.275C198.785 218.275 198.544 218.322 198.318 218.416C198.093 218.507 197.91 218.641 197.768 218.817C197.626 218.991 197.549 219.2 197.537 219.446H196.669C196.683 219.058 196.8 218.718 197.02 218.427C197.239 218.133 197.526 217.904 197.88 217.74C198.237 217.576 198.629 217.494 199.055 217.494C199.513 217.494 199.906 217.587 200.234 217.772C200.562 217.955 200.814 218.198 200.99 218.499C201.166 218.8 201.254 219.126 201.254 219.475C201.254 219.892 201.144 220.248 200.924 220.542C200.708 220.836 200.412 221.04 200.039 221.153V221.211C200.506 221.288 200.871 221.487 201.134 221.807C201.397 222.126 201.528 222.52 201.528 222.99C201.528 223.392 201.419 223.754 201.199 224.074C200.982 224.393 200.686 224.643 200.31 224.826C199.934 225.01 199.506 225.101 199.026 225.101Z" fill="black"/>
<path d="M266.817 225L264.792 217.595H265.703L267.251 223.626H267.323L268.9 217.595H269.912L271.489 223.626H271.561L273.108 217.595H274.019L271.995 225H271.069L269.435 219.099H269.377L267.743 225H266.817ZM274.485 223.481V222.744L277.739 217.595H278.274V218.738H277.913L275.454 222.628V222.686H279.836V223.481H274.485ZM277.971 225V223.257V222.914V217.595H278.824V225H277.971Z" fill="black"/>
<g filter="url(#filter1_dd_12_1537)">
<rect x="18" y="134" width="43" height="20" rx="10" fill="#F8F8F8"/>
<path d="M25.4128 148.926V139.669H26.0057V148.926H25.4128ZM27.4086 142.446C27.3653 142.08 27.1893 141.795 26.8807 141.593C26.5722 141.39 26.1938 141.289 25.7454 141.289C25.4176 141.289 25.1307 141.342 24.8849 141.448C24.6414 141.554 24.451 141.7 24.3136 141.886C24.1786 142.071 24.1111 142.282 24.1111 142.519C24.1111 142.716 24.1581 142.886 24.2521 143.028C24.3485 143.168 24.4715 143.285 24.6209 143.379C24.7704 143.471 24.9271 143.547 25.091 143.607C25.2549 143.665 25.4055 143.712 25.5429 143.748L26.295 143.95C26.4878 144.001 26.7024 144.071 26.9386 144.16C27.1772 144.249 27.405 144.371 27.622 144.525C27.8413 144.677 28.0221 144.872 28.1643 145.111C28.3065 145.35 28.3776 145.643 28.3776 145.99C28.3776 146.39 28.2728 146.751 28.0631 147.074C27.8558 147.397 27.5521 147.654 27.1519 147.845C26.7542 148.035 26.2709 148.13 25.702 148.13C25.1717 148.13 24.7125 148.045 24.3244 147.873C23.9388 147.702 23.6351 147.464 23.4133 147.158C23.1939 146.851 23.0698 146.496 23.0409 146.091H23.9665C23.9906 146.371 24.0846 146.602 24.2485 146.785C24.4148 146.966 24.6245 147.101 24.8776 147.19C25.1332 147.277 25.408 147.32 25.702 147.32C26.0443 147.32 26.3516 147.265 26.624 147.154C26.8964 147.041 27.1122 146.884 27.2712 146.684C27.4303 146.481 27.5099 146.245 27.5099 145.975C27.5099 145.729 27.4412 145.529 27.3038 145.375C27.1664 145.221 26.9856 145.095 26.7614 144.999C26.5373 144.903 26.295 144.818 26.0347 144.746L25.1235 144.486C24.545 144.319 24.087 144.082 23.7495 143.773C23.4121 143.465 23.2434 143.061 23.2434 142.562C23.2434 142.147 23.3554 141.786 23.5796 141.477C23.8062 141.166 24.1099 140.925 24.4908 140.754C24.874 140.581 25.3019 140.494 25.7743 140.494C26.2516 140.494 26.6759 140.579 27.0471 140.751C27.4183 140.919 27.7124 141.151 27.9293 141.445C28.1487 141.739 28.2644 142.073 28.2764 142.446H27.4086ZM32.0358 148.101C31.6116 148.101 31.2295 148.017 30.8897 147.848C30.5498 147.679 30.2774 147.448 30.0725 147.154C29.8676 146.86 29.7555 146.525 29.7362 146.149H30.604C30.6378 146.484 30.7896 146.761 31.0596 146.98C31.332 147.197 31.6574 147.306 32.0358 147.306C32.3396 147.306 32.6095 147.235 32.8458 147.092C33.0844 146.95 33.2712 146.755 33.4062 146.507C33.5436 146.256 33.6123 145.973 33.6123 145.657C33.6123 145.334 33.5412 145.046 33.399 144.793C33.2591 144.537 33.0663 144.336 32.8204 144.189C32.5746 144.042 32.2938 143.967 31.978 143.965C31.7514 143.962 31.5188 143.997 31.2802 144.07C31.0415 144.14 30.8451 144.23 30.6908 144.341L29.852 144.24L30.3003 140.595H34.1474V141.39H31.0524L30.792 143.574H30.8354C30.9873 143.454 31.1777 143.354 31.4067 143.274C31.6357 143.195 31.8743 143.155 32.1226 143.155C32.5758 143.155 32.9795 143.263 33.3339 143.48C33.6906 143.695 33.9702 143.989 34.1727 144.363C34.3776 144.736 34.48 145.163 34.48 145.643C34.48 146.115 34.374 146.537 34.1619 146.908C33.9522 147.277 33.6629 147.569 33.2941 147.783C32.9253 147.995 32.5059 148.101 32.0358 148.101ZM36.9252 146.988L36.8673 147.378C36.8263 147.653 36.7637 147.947 36.6793 148.26C36.5973 148.574 36.5118 148.869 36.4226 149.146C36.3334 149.423 36.2599 149.644 36.202 149.808H35.5512C35.5825 149.654 35.6235 149.45 35.6741 149.197C35.7248 148.944 35.7754 148.66 35.826 148.347C35.879 148.036 35.9224 147.718 35.9562 147.393L35.9995 146.988H36.9252ZM40.7795 140.494C41.0832 140.496 41.3869 140.554 41.6907 140.667C41.9944 140.781 42.2716 140.969 42.5223 141.231C42.773 141.492 42.9742 141.847 43.1261 142.298C43.278 142.749 43.3539 143.314 43.3539 143.994C43.3539 144.652 43.2912 145.236 43.1659 145.747C43.0429 146.256 42.8646 146.685 42.6307 147.035C42.3993 147.384 42.1173 147.649 41.7847 147.83C41.4544 148.011 41.0808 148.101 40.6638 148.101C40.2492 148.101 39.8792 148.019 39.5538 147.855C39.2308 147.689 38.9656 147.459 38.7583 147.165C38.5534 146.868 38.4221 146.525 38.3642 146.134H39.2464C39.326 146.474 39.4839 146.755 39.7201 146.977C39.9587 147.196 40.2733 147.306 40.6638 147.306C41.2351 147.306 41.6858 147.056 42.0161 146.557C42.3487 146.058 42.515 145.353 42.515 144.442H42.4572C42.3222 144.645 42.1619 144.819 41.9763 144.966C41.7907 145.113 41.5846 145.227 41.358 145.306C41.1314 145.386 40.8904 145.426 40.6349 145.426C40.2106 145.426 39.8213 145.321 39.467 145.111C39.1151 144.899 38.8331 144.608 38.6209 144.24C38.4112 143.868 38.3064 143.444 38.3064 142.967C38.3064 142.514 38.4076 142.099 38.6101 141.723C38.815 141.345 39.1018 141.043 39.4706 140.819C39.8418 140.595 40.2781 140.487 40.7795 140.494ZM40.7795 141.289C40.4758 141.289 40.2022 141.365 39.9587 141.517C39.7177 141.666 39.5261 141.869 39.3838 142.124C39.244 142.378 39.1741 142.658 39.1741 142.967C39.1741 143.275 39.2416 143.556 39.3766 143.809C39.514 144.06 39.7008 144.26 39.937 144.41C40.1757 144.557 40.4469 144.63 40.7506 144.63C40.9796 144.63 41.1929 144.586 41.3906 144.496C41.5882 144.405 41.7606 144.281 41.9076 144.124C42.0571 143.965 42.174 143.785 42.2583 143.585C42.3427 143.383 42.3849 143.172 42.3849 142.952C42.3849 142.663 42.315 142.392 42.1752 142.139C42.0378 141.886 41.8473 141.681 41.6039 141.524C41.3628 141.368 41.088 141.289 40.7795 141.289ZM47.1911 148.101C46.6463 148.101 46.1823 147.953 45.799 147.657C45.4157 147.358 45.1229 146.925 44.9204 146.358C44.7179 145.79 44.6167 145.103 44.6167 144.298C44.6167 143.497 44.7179 142.814 44.9204 142.247C45.1253 141.679 45.4194 141.245 45.8026 140.946C46.1883 140.644 46.6511 140.494 47.1911 140.494C47.731 140.494 48.1926 140.644 48.5759 140.946C48.9615 141.245 49.2556 141.679 49.4581 142.247C49.663 142.814 49.7654 143.497 49.7654 144.298C49.7654 145.103 49.6642 145.79 49.4617 146.358C49.2592 146.925 48.9664 147.358 48.5831 147.657C48.1998 147.953 47.7358 148.101 47.1911 148.101ZM47.1911 147.306C47.731 147.306 48.1504 147.045 48.4493 146.525C48.7482 146.004 48.8977 145.262 48.8977 144.298C48.8977 143.656 48.829 143.11 48.6916 142.66C48.5566 142.209 48.3613 141.865 48.1058 141.629C47.8527 141.393 47.5478 141.275 47.1911 141.275C46.6559 141.275 46.2377 141.539 45.9364 142.067C45.6351 142.592 45.4844 143.336 45.4844 144.298C45.4844 144.939 45.5519 145.483 45.6869 145.932C45.8219 146.38 46.0159 146.721 46.269 146.955C46.5246 147.189 46.8319 147.306 47.1911 147.306ZM51.1394 148V147.349L53.5836 144.674C53.8705 144.36 54.1067 144.088 54.2923 143.856C54.4779 143.623 54.6153 143.403 54.7045 143.198C54.7961 142.991 54.8419 142.774 54.8419 142.548C54.8419 142.287 54.7792 142.062 54.6539 141.871C54.5309 141.681 54.3622 141.534 54.1477 141.43C53.9331 141.327 53.6921 141.275 53.4245 141.275C53.1401 141.275 52.8918 141.334 52.6797 141.452C52.47 141.568 52.3073 141.73 52.1916 141.94C52.0783 142.15 52.0216 142.396 52.0216 142.678H51.1683C51.1683 142.244 51.2684 141.863 51.4684 141.535C51.6685 141.207 51.9409 140.952 52.2856 140.769C52.6327 140.585 53.022 140.494 53.4534 140.494C53.8873 140.494 54.2718 140.585 54.6069 140.769C54.9419 140.952 55.2047 141.199 55.3951 141.51C55.5855 141.821 55.6807 142.167 55.6807 142.548C55.6807 142.82 55.6313 143.086 55.5325 143.347C55.4361 143.605 55.2673 143.893 55.0263 144.211C54.7876 144.527 54.4562 144.912 54.032 145.368L52.3687 147.147V147.205H55.8109V148H51.1394Z" fill="black"/>
</g>
<defs>
<filter id="filter0_dd_12_1537" x="31" y="167" width="23" height="23" filterUnits="userSpaceOnUse" color-interpolation-filters="sRGB">
<feFlood flood-opacity="0" result="BackgroundImageFix"/>
<feColorMatrix in="SourceAlpha" type="matrix" values="0 0 0 0 0 0 0 0 0 0 0 0 0 0 0 0 0 0 127 0" result="hardAlpha"/>
<feOffset dy="1"/>
<feGaussianBlur stdDeviation="1.5"/>
<feComposite in2="hardAlpha" operator="out"/>
<feColorMatrix type="matrix" values="0 0 0 0 0 0 0 0 0 0 0 0 0 0 0 0 0 0 0.1 0"/>
<feBlend mode="normal" in2="BackgroundImageFix" result="effect1_dropShadow_12_1537"/>
<feColorMatrix in="SourceAlpha" type="matrix" values="0 0 0 0 0 0 0 0 0 0 0 0 0 0 0 0 0 0 127 0" result="hardAlpha"/>
<feMorphology radius="1" operator="erode" in="SourceAlpha" result="effect2_dropShadow_12_1537"/>
<feOffset dy="1"/>
<feGaussianBlur stdDeviation="1"/>
<feComposite in2="hardAlpha" operator="out"/>
<feColorMatrix type="matrix" values="0 0 0 0 0 0 0 0 0 0 0 0 0 0 0 0 0 0 0.1 0"/>
<feBlend mode="normal" in2="effect1_dropShadow_12_1537" result="effect2_dropShadow_12_1537"/>
<feBlend mode="normal" in="SourceGraphic" in2="effect2_dropShadow_12_1537" result="shape"/>
</filter>
<filter id="filter1_dd_12_1537" x="15" y="132" width="49" height="26" filterUnits="userSpaceOnUse" color-interpolation-filters="sRGB">
<feFlood flood-opacity="0" result="BackgroundImageFix"/>
<feColorMatrix in="SourceAlpha" type="matrix" values="0 0 0 0 0 0 0 0 0 0 0 0 0 0 0 0 0 0 127 0" result="hardAlpha"/>
<feOffset dy="1"/>
<feGaussianBlur stdDeviation="1.5"/>
<feComposite in2="hardAlpha" operator="out"/>
<feColorMatrix type="matrix" values="0 0 0 0 0 0 0 0 0 0 0 0 0 0 0 0 0 0 0.1 0"/>
<feBlend mode="normal" in2="BackgroundImageFix" result="effect1_dropShadow_12_1537"/>
<feColorMatrix in="SourceAlpha" type="matrix" values="0 0 0 0 0 0 0 0 0 0 0 0 0 0 0 0 0 0 127 0" result="hardAlpha"/>
<feMorphology radius="1" operator="erode" in="SourceAlpha" result="effect2_dropShadow_12_1537"/>
<feOffset dy="1"/>
<feGaussianBlur stdDeviation="1"/>
<feComposite in2="hardAlpha" operator="out"/>
<feColorMatrix type="matrix" values="0 0 0 0 0 0 0 0 0 0 0 0 0 0 0 0 0 0 0.1 0"/>
<feBlend mode="normal" in2="effect1_dropShadow_12_1537" result="effect2_dropShadow_12_1537"/>
<feBlend mode="normal" in="SourceGraphic" in2="effect2_dropShadow_12_1537" result="shape"/>
</filter>
<linearGradient id="paint0_linear_12_1537" x1="224.5" y1="98" x2="224.5" y2="293" gradientUnits="userSpaceOnUse">
<stop stop-color="#005C7C"/>
<stop offset="1" stop-color="#005C7C" stop-opacity="0"/>
</linearGradient>
<linearGradient id="paint1_linear_12_1537" x1="225.642" y1="94" x2="225.642" y2="291" gradientUnits="userSpaceOnUse">
<stop stop-color="#6D8B76"/>
<stop offset="1" stop-color="#6D8B76" stop-opacity="0"/>
</linearGradient>
<clipPath id="clip0_12_1537">
<rect width="280" height="145" fill="white" transform="translate(16 61)"/>
</clipPath>
</defs>
</svg>
