<svg width="313" height="242" viewBox="0 0 313 242" fill="none" xmlns="http://www.w3.org/2000/svg">
<rect width="313" height="242" fill="white"/>
<g clip-path="url(#clip0_12_1447)">
<path d="M1.51383 169.826L-45 160.23V230H375V85L323.141 119.493C320.022 121.568 316.676 123.278 313.167 124.59L286.692 134.49C272.908 139.645 257.536 138.332 244.827 130.913L242.824 129.744C232.291 123.595 219.844 121.596 207.915 124.137L189.127 128.138C180.018 130.078 170.544 129.382 161.816 126.131L125.89 112.749C106.589 105.559 84.8519 111.207 71.492 126.883L48.7039 153.622C42.6616 160.711 34.7235 165.932 25.8201 168.671C17.9441 171.094 9.58419 171.491 1.51383 169.826Z" fill="url(#paint0_linear_12_1447)"/>
<path d="M-45 159.163L1.25706 168.545C9.20193 170.157 17.4495 169.763 25.209 167.417V167.417C34.0676 164.737 42.0173 159.595 48.0795 152.602L70.5333 126.701C83.8607 111.327 105.302 105.789 124.408 112.785L160.311 125.933C168.917 129.085 178.233 129.76 187.203 127.881L206.103 123.924C217.861 121.462 230.114 123.406 240.533 129.385L242.682 130.618C255.254 137.833 270.375 139.111 283.979 134.109L310.316 124.427C313.853 123.126 317.228 121.422 320.375 119.348L374 84" stroke="#003649" stroke-width="2" stroke-linecap="round"/>
<path d="M-8.29174 162.921L-45 172.913V230H374V134.454L356.725 120.914C347.17 113.425 335.123 109.853 323.03 110.922L315.449 111.592C303.487 112.649 291.566 109.165 282.055 101.834L278.134 98.8108C265.34 88.9475 248.43 86.2138 233.18 91.5436L216.089 97.517C212.927 98.6219 209.89 100.056 207.029 101.796L179.013 118.827C176.136 120.576 173.082 122.016 169.902 123.124L135.148 135.226C128.58 137.513 121.593 138.34 114.672 137.648L98.928 136.073C88.4334 135.023 77.8863 137.474 68.9299 143.044L51.2566 154.034C43.6804 158.746 34.9367 161.243 26.015 161.243H4.26242C0.0217857 161.243 -4.19999 161.807 -8.29174 162.921Z" fill="url(#paint1_linear_12_1447)"/>
<path d="M-44 173L-9.39461 163.146C-5.13678 161.934 -0.731142 161.319 3.69595 161.319H24.9903C33.9415 161.319 42.7127 158.805 50.3054 154.065L67.7859 143.15C76.7629 137.545 87.3463 135.078 97.8764 136.135L113.392 137.693C120.339 138.391 127.353 137.558 133.944 135.254L168.501 123.171C171.688 122.057 174.747 120.609 177.628 118.85L205.52 101.826C208.386 100.077 211.428 98.6342 214.596 97.5225L231.453 91.6073C246.748 86.2403 263.72 88.99 276.538 98.9116L280.263 101.795C289.789 109.169 301.748 112.674 313.747 111.609L321.065 110.959C333.196 109.883 345.28 113.477 354.851 121.009L372 134.504" stroke="#0B7029" stroke-width="1.95099" stroke-linecap="round"/>
</g>
<line x1="17" y1="205.313" x2="295.103" y2="205.313" stroke="#003649" stroke-width="0.975494"/>
<g filter="url(#filter0_dd_12_1447)">
<circle cx="90.5" cy="135.5" r="8.5" fill="#F8F8F8"/>
<circle cx="90.5" cy="135.5" r="7.5" stroke="#0B7029" stroke-width="2"/>
</g>
<path d="M17.4091 30V18.3636H21.4773C22.2879 18.3636 22.9564 18.5038 23.483 18.7841C24.0095 19.0606 24.4015 19.4337 24.6591 19.9034C24.9167 20.3693 25.0455 20.8864 25.0455 21.4545C25.0455 21.9545 24.9564 22.3674 24.7784 22.6932C24.6042 23.0189 24.3731 23.2765 24.0852 23.4659C23.8011 23.6553 23.4924 23.7955 23.1591 23.8864V24C23.5152 24.0227 23.8731 24.1477 24.233 24.375C24.5928 24.6023 24.8939 24.928 25.1364 25.3523C25.3788 25.7765 25.5 26.2955 25.5 26.9091C25.5 27.4924 25.3674 28.017 25.1023 28.483C24.8371 28.9489 24.4186 29.3182 23.8466 29.5909C23.2746 29.8636 22.5303 30 21.6136 30H17.4091ZM18.8182 28.75H21.6136C22.5341 28.75 23.1875 28.572 23.5739 28.2159C23.964 27.8561 24.1591 27.4205 24.1591 26.9091C24.1591 26.5152 24.0587 26.1515 23.858 25.8182C23.6572 25.4811 23.3712 25.2121 23 25.0114C22.6288 24.8068 22.1894 24.7045 21.6818 24.7045H18.8182V28.75ZM18.8182 23.4773H21.4318C21.8561 23.4773 22.2386 23.3939 22.5795 23.2273C22.9242 23.0606 23.197 22.8258 23.3977 22.5227C23.6023 22.2197 23.7045 21.8636 23.7045 21.4545C23.7045 20.9432 23.5265 20.5095 23.1705 20.1534C22.8144 19.7936 22.25 19.6136 21.4773 19.6136H18.8182V23.4773ZM33.1335 26.4318V21.2727H34.4744V30H33.1335V28.5227H33.0426C32.8381 28.9659 32.5199 29.3428 32.0881 29.6534C31.6563 29.9602 31.1108 30.1136 30.4517 30.1136C29.9062 30.1136 29.4214 29.9943 28.9972 29.7557C28.5729 29.5133 28.2396 29.1496 27.9972 28.6648C27.7547 28.1761 27.6335 27.5606 27.6335 26.8182V21.2727H28.9744V26.7273C28.9744 27.3636 29.1525 27.8712 29.5085 28.25C29.8684 28.6288 30.3267 28.8182 30.8835 28.8182C31.2169 28.8182 31.5559 28.733 31.9006 28.5625C32.2491 28.392 32.5407 28.1307 32.7756 27.7784C33.0142 27.4261 33.1335 26.9773 33.1335 26.4318ZM40.2259 30.1818C39.4986 30.1818 38.8565 29.9981 38.2997 29.6307C37.7429 29.2595 37.3073 28.7367 36.9929 28.0625C36.6785 27.3845 36.5213 26.5833 36.5213 25.6591C36.5213 24.7424 36.6785 23.947 36.9929 23.2727C37.3073 22.5985 37.7448 22.0777 38.3054 21.7102C38.866 21.3428 39.5137 21.1591 40.2486 21.1591C40.8168 21.1591 41.2656 21.2538 41.5952 21.4432C41.9285 21.6288 42.1823 21.8409 42.3565 22.0795C42.5346 22.3144 42.6728 22.5076 42.7713 22.6591H42.8849V18.3636H44.2259V30H42.9304V28.6591H42.7713C42.6728 28.8182 42.5327 29.0189 42.3509 29.2614C42.169 29.5 41.9096 29.714 41.5724 29.9034C41.2353 30.089 40.7865 30.1818 40.2259 30.1818ZM40.4077 28.9773C40.9455 28.9773 41.4001 28.8371 41.7713 28.5568C42.1425 28.2727 42.4247 27.8807 42.6179 27.3807C42.8111 26.8769 42.9077 26.2955 42.9077 25.6364C42.9077 24.9848 42.813 24.4148 42.6236 23.9261C42.4342 23.4337 42.1539 23.0511 41.7827 22.7784C41.4115 22.5019 40.9531 22.3636 40.4077 22.3636C39.8395 22.3636 39.366 22.5095 38.9872 22.8011C38.6122 23.089 38.33 23.4811 38.1406 23.9773C37.955 24.4697 37.8622 25.0227 37.8622 25.6364C37.8622 26.2576 37.9569 26.822 38.1463 27.3295C38.3395 27.8333 38.6236 28.2348 38.9986 28.5341C39.3774 28.8295 39.8471 28.9773 40.4077 28.9773ZM50.3906 33.4545C49.7429 33.4545 49.1861 33.3712 48.7202 33.2045C48.2543 33.0417 47.866 32.8258 47.5554 32.5568C47.2486 32.2917 47.0043 32.0076 46.8224 31.7045L47.8906 30.9545C48.0118 31.1136 48.1652 31.2955 48.3509 31.5C48.5365 31.7083 48.7902 31.8883 49.1122 32.0398C49.438 32.1951 49.8641 32.2727 50.3906 32.2727C51.0952 32.2727 51.6766 32.1023 52.1349 31.7614C52.5933 31.4205 52.8224 30.8864 52.8224 30.1591V28.3864H52.7088C52.6103 28.5455 52.4702 28.7424 52.2884 28.9773C52.1103 29.2083 51.8527 29.4148 51.5156 29.5966C51.1823 29.7746 50.7315 29.8636 50.1634 29.8636C49.4588 29.8636 48.8262 29.697 48.2656 29.3636C47.7088 29.0303 47.2675 28.5455 46.9418 27.9091C46.6198 27.2727 46.4588 26.5 46.4588 25.5909C46.4588 24.697 46.616 23.9186 46.9304 23.2557C47.2448 22.589 47.6823 22.0739 48.2429 21.7102C48.8035 21.3428 49.4512 21.1591 50.1861 21.1591C50.7543 21.1591 51.205 21.2538 51.5384 21.4432C51.8755 21.6288 52.133 21.8409 52.3111 22.0795C52.4929 22.3144 52.633 22.5076 52.7315 22.6591H52.8679V21.2727H54.1634V30.25C54.1634 31 53.9929 31.6098 53.652 32.0795C53.3149 32.553 52.8603 32.8996 52.2884 33.1193C51.7202 33.3428 51.0876 33.4545 50.3906 33.4545ZM50.3452 28.6591C50.883 28.6591 51.3376 28.536 51.7088 28.2898C52.08 28.0436 52.3622 27.6894 52.5554 27.2273C52.7486 26.7652 52.8452 26.2121 52.8452 25.5682C52.8452 24.9394 52.7505 24.3845 52.5611 23.9034C52.3717 23.4223 52.0914 23.0455 51.7202 22.7727C51.349 22.5 50.8906 22.3636 50.3452 22.3636C49.777 22.3636 49.3035 22.5076 48.9247 22.7955C48.5497 23.0833 48.2675 23.4697 48.0781 23.9545C47.8925 24.4394 47.7997 24.9773 47.7997 25.5682C47.7997 26.1742 47.8944 26.7102 48.0838 27.1761C48.277 27.6383 48.5611 28.0019 48.9361 28.267C49.3149 28.5284 49.7846 28.6591 50.3452 28.6591ZM60.277 30.1818C59.4361 30.1818 58.7107 29.9962 58.1009 29.625C57.4948 29.25 57.027 28.7273 56.6974 28.0568C56.3717 27.3826 56.2088 26.5985 56.2088 25.7045C56.2088 24.8106 56.3717 24.0227 56.6974 23.3409C57.027 22.6553 57.4853 22.1212 58.0724 21.7386C58.6634 21.3523 59.3527 21.1591 60.1406 21.1591C60.5952 21.1591 61.044 21.2348 61.4872 21.3864C61.9304 21.5379 62.3338 21.7841 62.6974 22.125C63.0611 22.4621 63.3509 22.9091 63.5668 23.4659C63.7827 24.0227 63.8906 24.7083 63.8906 25.5227V26.0909H57.1634V24.9318H62.527C62.527 24.4394 62.4285 24 62.2315 23.6136C62.0384 23.2273 61.7618 22.9223 61.402 22.6989C61.0459 22.4754 60.6255 22.3636 60.1406 22.3636C59.6065 22.3636 59.1444 22.4962 58.7543 22.7614C58.3679 23.0227 58.0705 23.3636 57.8622 23.7841C57.6539 24.2045 57.5497 24.6553 57.5497 25.1364V25.9091C57.5497 26.5682 57.6634 27.1269 57.8906 27.5852C58.1217 28.0398 58.4418 28.3864 58.8509 28.625C59.2599 28.8598 59.7353 28.9773 60.277 28.9773C60.6293 28.9773 60.9474 28.928 61.2315 28.8295C61.5194 28.7273 61.7675 28.5758 61.9759 28.375C62.1842 28.1705 62.3452 27.9167 62.4588 27.6136L63.7543 27.9773C63.6179 28.4167 63.3887 28.803 63.0668 29.1364C62.7448 29.4659 62.3471 29.7235 61.8736 29.9091C61.4001 30.0909 60.8679 30.1818 60.277 30.1818ZM69.7259 21.2727V22.4091H65.2031V21.2727H69.7259ZM66.5213 19.1818H67.8622V27.5C67.8622 27.8788 67.9171 28.1629 68.027 28.3523C68.1406 28.5379 68.2846 28.6629 68.4588 28.7273C68.6368 28.7879 68.8243 28.8182 69.0213 28.8182C69.169 28.8182 69.2902 28.8106 69.3849 28.7955C69.4796 28.7765 69.5554 28.7614 69.6122 28.75L69.8849 29.9545C69.794 29.9886 69.6671 30.0227 69.5043 30.0568C69.3414 30.0947 69.1349 30.1136 68.8849 30.1136C68.5062 30.1136 68.1349 30.0322 67.7713 29.8693C67.4115 29.7064 67.1122 29.4583 66.8736 29.125C66.6387 28.7917 66.5213 28.3712 66.5213 27.8636V19.1818Z" fill="black"/>
<path d="M20.6364 54.4545V39.9091H21.5682V54.4545H20.6364ZM23.7727 44.2727C23.7045 43.697 23.428 43.25 22.9432 42.9318C22.4583 42.6136 21.8636 42.4545 21.1591 42.4545C20.6439 42.4545 20.1932 42.5379 19.8068 42.7045C19.4242 42.8712 19.125 43.1004 18.9091 43.392C18.697 43.6837 18.5909 44.0152 18.5909 44.3864C18.5909 44.697 18.6648 44.964 18.8125 45.1875C18.964 45.4072 19.1572 45.5909 19.392 45.7386C19.6269 45.8826 19.8731 46.0019 20.1307 46.0966C20.3883 46.1875 20.625 46.2614 20.8409 46.3182L22.0227 46.6364C22.3258 46.7159 22.6629 46.8258 23.0341 46.9659C23.4091 47.1061 23.767 47.2973 24.108 47.5398C24.4527 47.7784 24.7367 48.0852 24.9602 48.4602C25.1837 48.8352 25.2955 49.2955 25.2955 49.8409C25.2955 50.4697 25.1307 51.0379 24.8011 51.5455C24.4754 52.053 23.9981 52.4564 23.3693 52.7557C22.7443 53.0549 21.9848 53.2045 21.0909 53.2045C20.2576 53.2045 19.536 53.0701 18.9261 52.8011C18.3201 52.5322 17.8428 52.1572 17.4943 51.6761C17.1496 51.1951 16.9545 50.6364 16.9091 50H18.3636C18.4015 50.4394 18.5492 50.803 18.8068 51.0909C19.0682 51.375 19.3977 51.5871 19.7955 51.7273C20.197 51.8636 20.6288 51.9318 21.0909 51.9318C21.6288 51.9318 22.1117 51.8447 22.5398 51.6705C22.9678 51.4924 23.3068 51.2462 23.5568 50.9318C23.8068 50.6136 23.9318 50.2424 23.9318 49.8182C23.9318 49.4318 23.8239 49.1174 23.608 48.875C23.392 48.6326 23.108 48.4356 22.7557 48.2841C22.4034 48.1326 22.0227 48 21.6136 47.8864L20.1818 47.4773C19.2727 47.2159 18.553 46.8428 18.0227 46.358C17.4924 45.8731 17.2273 45.2386 17.2273 44.4545C17.2273 43.803 17.4034 43.2348 17.7557 42.75C18.1117 42.2614 18.589 41.8826 19.1875 41.6136C19.7898 41.3409 20.4621 41.2045 21.2045 41.2045C21.9545 41.2045 22.6212 41.339 23.2045 41.608C23.7879 41.8731 24.25 42.2367 24.5909 42.6989C24.9356 43.161 25.1174 43.6856 25.1364 44.2727H23.7727ZM31.4986 41.3636V53H30.0895V42.8409H30.0213L27.1804 44.7273V43.2955L30.0895 41.3636H31.4986ZM34.8452 53V51.9773L38.6861 47.7727C39.1368 47.2803 39.508 46.8523 39.7997 46.4886C40.0914 46.1212 40.3073 45.7765 40.4474 45.4545C40.5914 45.1288 40.6634 44.7879 40.6634 44.4318C40.6634 44.0227 40.5649 43.6686 40.3679 43.3693C40.1747 43.0701 39.9096 42.839 39.5724 42.6761C39.2353 42.5133 38.8565 42.4318 38.4361 42.4318C37.9891 42.4318 37.599 42.5246 37.2656 42.7102C36.9361 42.892 36.6804 43.1477 36.4986 43.4773C36.3205 43.8068 36.2315 44.1932 36.2315 44.6364H34.8906C34.8906 43.9545 35.0478 43.3561 35.3622 42.8409C35.6766 42.3258 36.1046 41.9242 36.6463 41.6364C37.1918 41.3485 37.8035 41.2045 38.4815 41.2045C39.1634 41.2045 39.7675 41.3485 40.294 41.6364C40.8205 41.9242 41.2334 42.3125 41.5327 42.8011C41.8319 43.2898 41.9815 43.8333 41.9815 44.4318C41.9815 44.8598 41.9039 45.2784 41.7486 45.6875C41.5971 46.0928 41.3319 46.5455 40.9531 47.0455C40.5781 47.5417 40.0573 48.1477 39.3906 48.8636L36.777 51.6591V51.75H42.1861V53H34.8452ZM48.169 53.1591C47.5024 53.1591 46.902 53.0265 46.3679 52.7614C45.8338 52.4962 45.4058 52.1326 45.0838 51.6705C44.7618 51.2083 44.5857 50.6818 44.5554 50.0909H45.919C45.9721 50.6174 46.2107 51.053 46.6349 51.3977C47.063 51.7386 47.5743 51.9091 48.169 51.9091C48.6463 51.9091 49.0705 51.7973 49.4418 51.5739C49.8168 51.3504 50.1103 51.0436 50.3224 50.6534C50.5384 50.2595 50.6463 49.8144 50.6463 49.3182C50.6463 48.8106 50.5346 48.358 50.3111 47.9602C50.0914 47.5587 49.7884 47.2424 49.402 47.0114C49.0156 46.7803 48.5743 46.6629 48.0781 46.6591C47.7221 46.6553 47.3565 46.7102 46.9815 46.8239C46.6065 46.9337 46.2978 47.0758 46.0554 47.25L44.7372 47.0909L45.4418 41.3636H51.4872V42.6136H46.6236L46.2145 46.0455H46.2827C46.5213 45.8561 46.8205 45.6989 47.1804 45.5739C47.5402 45.4489 47.9152 45.3864 48.3054 45.3864C49.0175 45.3864 49.652 45.5568 50.2088 45.8977C50.7694 46.2348 51.2088 46.697 51.527 47.2841C51.849 47.8712 52.0099 48.5417 52.0099 49.2955C52.0099 50.0379 51.8433 50.7008 51.5099 51.2841C51.1804 51.8636 50.7259 52.322 50.1463 52.6591C49.5668 52.9924 48.9077 53.1591 48.169 53.1591ZM55.8523 51.4091L55.7614 52.0227C55.697 52.4545 55.5985 52.9167 55.4659 53.4091C55.3371 53.9015 55.2027 54.3655 55.0625 54.8011C54.9223 55.2367 54.8068 55.5833 54.7159 55.8409H53.6932C53.7424 55.5985 53.8068 55.2784 53.8864 54.8807C53.9659 54.483 54.0455 54.0379 54.125 53.5455C54.2083 53.0568 54.2765 52.5568 54.3295 52.0455L54.3977 51.4091H55.8523ZM61.7031 53.1591C60.8471 53.1591 60.1179 52.9261 59.5156 52.4602C58.9134 51.9905 58.4531 51.3106 58.1349 50.4205C57.8168 49.5265 57.6577 48.447 57.6577 47.1818C57.6577 45.9242 57.8168 44.8504 58.1349 43.9602C58.4569 43.0663 58.919 42.3845 59.5213 41.9148C60.1274 41.4413 60.8546 41.2045 61.7031 41.2045C62.5516 41.2045 63.277 41.4413 63.8793 41.9148C64.4853 42.3845 64.9474 43.0663 65.2656 43.9602C65.5876 44.8504 65.7486 45.9242 65.7486 47.1818C65.7486 48.447 65.5895 49.5265 65.2713 50.4205C64.9531 51.3106 64.4929 51.9905 63.8906 52.4602C63.2884 52.9261 62.5592 53.1591 61.7031 53.1591ZM61.7031 51.9091C62.5516 51.9091 63.2107 51.5 63.6804 50.6818C64.1501 49.8636 64.3849 48.697 64.3849 47.1818C64.3849 46.1742 64.277 45.3163 64.0611 44.608C63.849 43.8996 63.5421 43.3598 63.1406 42.9886C62.7429 42.6174 62.2637 42.4318 61.7031 42.4318C60.8622 42.4318 60.205 42.8466 59.7315 43.6761C59.258 44.5019 59.0213 45.6705 59.0213 47.1818C59.0213 48.1894 59.1274 49.0455 59.3395 49.75C59.5516 50.4545 59.8565 50.9905 60.2543 51.358C60.6558 51.7254 61.1387 51.9091 61.7031 51.9091ZM71.7031 53.1591C70.8471 53.1591 70.1179 52.9261 69.5156 52.4602C68.9134 51.9905 68.4531 51.3106 68.1349 50.4205C67.8168 49.5265 67.6577 48.447 67.6577 47.1818C67.6577 45.9242 67.8168 44.8504 68.1349 43.9602C68.4569 43.0663 68.919 42.3845 69.5213 41.9148C70.1274 41.4413 70.8546 41.2045 71.7031 41.2045C72.5516 41.2045 73.277 41.4413 73.8793 41.9148C74.4853 42.3845 74.9474 43.0663 75.2656 43.9602C75.5876 44.8504 75.7486 45.9242 75.7486 47.1818C75.7486 48.447 75.5895 49.5265 75.2713 50.4205C74.9531 51.3106 74.4929 51.9905 73.8906 52.4602C73.2884 52.9261 72.5592 53.1591 71.7031 53.1591ZM71.7031 51.9091C72.5516 51.9091 73.2107 51.5 73.6804 50.6818C74.1501 49.8636 74.3849 48.697 74.3849 47.1818C74.3849 46.1742 74.277 45.3163 74.0611 44.608C73.849 43.8996 73.5421 43.3598 73.1406 42.9886C72.7429 42.6174 72.2637 42.4318 71.7031 42.4318C70.8622 42.4318 70.205 42.8466 69.7315 43.6761C69.258 44.5019 69.0213 45.6705 69.0213 47.1818C69.0213 48.1894 69.1274 49.0455 69.3395 49.75C69.5516 50.4545 69.8565 50.9905 70.2543 51.358C70.6558 51.7254 71.1387 51.9091 71.7031 51.9091ZM81.7031 53.1591C80.8471 53.1591 80.1179 52.9261 79.5156 52.4602C78.9134 51.9905 78.4531 51.3106 78.1349 50.4205C77.8168 49.5265 77.6577 48.447 77.6577 47.1818C77.6577 45.9242 77.8168 44.8504 78.1349 43.9602C78.4569 43.0663 78.919 42.3845 79.5213 41.9148C80.1274 41.4413 80.8546 41.2045 81.7031 41.2045C82.5516 41.2045 83.277 41.4413 83.8793 41.9148C84.4853 42.3845 84.9474 43.0663 85.2656 43.9602C85.5876 44.8504 85.7486 45.9242 85.7486 47.1818C85.7486 48.447 85.5895 49.5265 85.2713 50.4205C84.9531 51.3106 84.4929 51.9905 83.8906 52.4602C83.2884 52.9261 82.5592 53.1591 81.7031 53.1591ZM81.7031 51.9091C82.5516 51.9091 83.2107 51.5 83.6804 50.6818C84.1501 49.8636 84.3849 48.697 84.3849 47.1818C84.3849 46.1742 84.277 45.3163 84.0611 44.608C83.849 43.8996 83.5421 43.3598 83.1406 42.9886C82.7429 42.6174 82.2637 42.4318 81.7031 42.4318C80.8622 42.4318 80.205 42.8466 79.7315 43.6761C79.258 44.5019 79.0213 45.6705 79.0213 47.1818C79.0213 48.1894 79.1274 49.0455 79.3395 49.75C79.5516 50.4545 79.8565 50.9905 80.2543 51.358C80.6558 51.7254 81.1387 51.9091 81.7031 51.9091Z" fill="#003649"/>
<path d="M34.301 217.595H35.1977V222.888C35.1977 223.361 35.1109 223.762 34.9374 224.092C34.7638 224.423 34.5192 224.673 34.2034 224.845C33.8876 225.016 33.5152 225.101 33.0861 225.101C32.6812 225.101 32.3208 225.028 32.005 224.881C31.6893 224.731 31.441 224.519 31.2602 224.244C31.0794 223.97 30.989 223.643 30.989 223.264H31.8713C31.8713 223.474 31.9231 223.657 32.0267 223.814C32.1328 223.968 32.2774 224.089 32.4606 224.176C32.6438 224.262 32.8523 224.306 33.0861 224.306C33.3441 224.306 33.5634 224.252 33.7442 224.143C33.925 224.035 34.0624 223.876 34.1564 223.666C34.2528 223.454 34.301 223.195 34.301 222.888V217.595ZM40.379 222.729V219.446H41.2323V225H40.379V224.06H40.3212C40.191 224.342 39.9885 224.582 39.7137 224.779C39.4389 224.975 39.0918 225.072 38.6724 225.072C38.3253 225.072 38.0167 224.996 37.7468 224.845C37.4768 224.69 37.2647 224.459 37.1104 224.15C36.9561 223.839 36.879 223.448 36.879 222.975V219.446H37.7323V222.917C37.7323 223.322 37.8456 223.645 38.0722 223.886C38.3012 224.127 38.5928 224.248 38.9472 224.248C39.1593 224.248 39.375 224.194 39.5944 224.085C39.8162 223.977 40.0018 223.81 40.1512 223.586C40.3031 223.362 40.379 223.076 40.379 222.729ZM43.6485 217.595V225H42.7952V217.595H43.6485Z" fill="black"/>
<path d="M76.1997 225H75.2596L77.9786 217.595H78.9042L81.6233 225H80.6832L78.4704 218.767H78.4125L76.1997 225ZM76.5468 222.107H80.3361V222.903H76.5468V222.107ZM86.161 222.729V219.446H87.0143V225H86.161V224.06H86.1031C85.9729 224.342 85.7705 224.582 85.4957 224.779C85.2209 224.975 84.8738 225.072 84.4544 225.072C84.1072 225.072 83.7987 224.996 83.5287 224.845C83.2588 224.69 83.0466 224.459 82.8924 224.15C82.7381 223.839 82.661 223.448 82.661 222.975V219.446H83.5143V222.917C83.5143 223.322 83.6276 223.645 83.8541 223.886C84.0831 224.127 84.3748 224.248 84.7291 224.248C84.9413 224.248 85.157 224.194 85.3764 224.085C85.5981 223.977 85.7837 223.81 85.9332 223.586C86.085 223.362 86.161 223.076 86.161 222.729ZM90.8189 227.198C90.4067 227.198 90.0524 227.145 89.7559 227.039C89.4594 226.936 89.2123 226.798 89.0147 226.627C88.8194 226.458 88.6639 226.278 88.5482 226.085L89.228 225.607C89.3051 225.709 89.4027 225.824 89.5209 225.955C89.639 226.087 89.8005 226.202 90.0054 226.298C90.2127 226.397 90.4838 226.446 90.8189 226.446C91.2672 226.446 91.6372 226.338 91.9289 226.121C92.2206 225.904 92.3664 225.564 92.3664 225.101V223.973H92.2941C92.2314 224.074 92.1422 224.2 92.0265 224.349C91.9132 224.496 91.7493 224.628 91.5348 224.743C91.3227 224.857 91.0358 224.913 90.6743 224.913C90.2259 224.913 89.8234 224.807 89.4666 224.595C89.1123 224.383 88.8315 224.074 88.6242 223.669C88.4193 223.264 88.3168 222.773 88.3168 222.194C88.3168 221.625 88.4169 221.13 88.6169 220.708C88.817 220.284 89.0954 219.956 89.4522 219.725C89.8089 219.491 90.2211 219.374 90.6887 219.374C91.0503 219.374 91.3371 219.434 91.5493 219.555C91.7638 219.673 91.9277 219.808 92.041 219.96C92.1567 220.109 92.2459 220.232 92.3086 220.329H92.3953V219.446H93.2197V225.159C93.2197 225.636 93.1112 226.024 92.8943 226.323C92.6798 226.625 92.3905 226.845 92.0265 226.985C91.665 227.127 91.2624 227.198 90.8189 227.198ZM90.79 224.147C91.1323 224.147 91.4215 224.068 91.6577 223.912C91.894 223.755 92.0735 223.53 92.1965 223.236C92.3194 222.941 92.3809 222.59 92.3809 222.18C92.3809 221.78 92.3206 221.426 92.2001 221.12C92.0796 220.814 91.9012 220.574 91.665 220.401C91.4287 220.227 91.1371 220.14 90.79 220.14C90.4284 220.14 90.1271 220.232 89.886 220.415C89.6474 220.598 89.4678 220.844 89.3473 221.153C89.2292 221.461 89.1701 221.804 89.1701 222.18C89.1701 222.565 89.2304 222.907 89.3509 223.203C89.4739 223.497 89.6546 223.728 89.8933 223.897C90.1343 224.064 90.4332 224.147 90.79 224.147Z" fill="black"/>
<path d="M127.134 219.446C127.091 219.08 126.915 218.795 126.607 218.593C126.298 218.39 125.92 218.289 125.471 218.289C125.143 218.289 124.857 218.342 124.611 218.448C124.367 218.554 124.177 218.7 124.039 218.886C123.904 219.071 123.837 219.282 123.837 219.519C123.837 219.716 123.884 219.886 123.978 220.028C124.074 220.168 124.197 220.285 124.347 220.379C124.496 220.471 124.653 220.547 124.817 220.607C124.981 220.665 125.131 220.712 125.269 220.748L126.021 220.95C126.214 221.001 126.428 221.071 126.664 221.16C126.903 221.249 127.131 221.371 127.348 221.525C127.567 221.677 127.748 221.872 127.89 222.111C128.032 222.35 128.103 222.643 128.103 222.99C128.103 223.39 127.999 223.751 127.789 224.074C127.582 224.397 127.278 224.654 126.878 224.845C126.48 225.035 125.997 225.13 125.428 225.13C124.898 225.13 124.438 225.045 124.05 224.873C123.665 224.702 123.361 224.464 123.139 224.158C122.92 223.851 122.796 223.496 122.767 223.091H123.692C123.716 223.371 123.81 223.602 123.974 223.785C124.141 223.966 124.35 224.101 124.603 224.19C124.859 224.277 125.134 224.32 125.428 224.32C125.77 224.32 126.078 224.265 126.35 224.154C126.622 224.041 126.838 223.884 126.997 223.684C127.156 223.481 127.236 223.245 127.236 222.975C127.236 222.729 127.167 222.529 127.03 222.375C126.892 222.221 126.711 222.095 126.487 221.999C126.263 221.903 126.021 221.818 125.761 221.746L124.849 221.486C124.271 221.319 123.813 221.082 123.475 220.773C123.138 220.465 122.969 220.061 122.969 219.562C122.969 219.147 123.081 218.786 123.305 218.477C123.532 218.166 123.836 217.925 124.217 217.754C124.6 217.581 125.028 217.494 125.5 217.494C125.977 217.494 126.402 217.579 126.773 217.751C127.144 217.919 127.438 218.151 127.655 218.445C127.875 218.739 127.99 219.073 128.002 219.446H127.134ZM131.791 225.116C131.255 225.116 130.794 224.998 130.406 224.761C130.02 224.523 129.722 224.19 129.513 223.763C129.305 223.334 129.202 222.835 129.202 222.267C129.202 221.698 129.305 221.196 129.513 220.762C129.722 220.326 130.014 219.986 130.388 219.743C130.764 219.497 131.202 219.374 131.704 219.374C131.993 219.374 132.279 219.422 132.561 219.519C132.843 219.615 133.099 219.772 133.331 219.989C133.562 220.203 133.747 220.488 133.884 220.842C134.022 221.196 134.09 221.633 134.09 222.151V222.512H129.809V221.775H133.222C133.222 221.461 133.16 221.182 133.034 220.936C132.911 220.69 132.736 220.496 132.507 220.354C132.28 220.212 132.012 220.14 131.704 220.14C131.364 220.14 131.07 220.225 130.822 220.394C130.576 220.56 130.387 220.777 130.254 221.044C130.121 221.312 130.055 221.599 130.055 221.905V222.397C130.055 222.816 130.127 223.172 130.272 223.463C130.419 223.753 130.623 223.973 130.883 224.125C131.143 224.274 131.446 224.349 131.791 224.349C132.015 224.349 132.217 224.318 132.398 224.255C132.581 224.19 132.739 224.094 132.872 223.966C133.004 223.836 133.107 223.674 133.179 223.481L134.003 223.713C133.917 223.992 133.771 224.238 133.566 224.45C133.361 224.66 133.108 224.824 132.807 224.942C132.505 225.058 132.167 225.116 131.791 225.116ZM135.388 227.083V219.446H136.213V220.329H136.314C136.377 220.232 136.463 220.109 136.574 219.96C136.687 219.808 136.849 219.673 137.059 219.555C137.271 219.434 137.558 219.374 137.919 219.374C138.387 219.374 138.799 219.491 139.156 219.725C139.513 219.959 139.791 220.29 139.991 220.719C140.191 221.148 140.291 221.654 140.291 222.238C140.291 222.826 140.191 223.336 139.991 223.767C139.791 224.196 139.514 224.529 139.159 224.765C138.805 224.999 138.397 225.116 137.934 225.116C137.577 225.116 137.291 225.057 137.077 224.939C136.862 224.818 136.697 224.682 136.581 224.53C136.466 224.376 136.377 224.248 136.314 224.147H136.242V227.083H135.388ZM136.227 222.223C136.227 222.643 136.289 223.013 136.411 223.333C136.534 223.651 136.714 223.901 136.95 224.082C137.186 224.26 137.476 224.349 137.818 224.349C138.175 224.349 138.472 224.255 138.711 224.067C138.952 223.877 139.133 223.621 139.253 223.301C139.376 222.978 139.438 222.618 139.438 222.223C139.438 221.833 139.378 221.481 139.257 221.167C139.139 220.852 138.959 220.602 138.718 220.419C138.48 220.233 138.18 220.14 137.818 220.14C137.471 220.14 137.179 220.228 136.943 220.404C136.707 220.578 136.528 220.821 136.408 221.135C136.287 221.446 136.227 221.809 136.227 222.223Z" fill="black"/>
<path d="M177.074 221.298C177.074 222.079 176.933 222.753 176.651 223.322C176.369 223.891 175.982 224.33 175.49 224.638C174.998 224.947 174.437 225.101 173.805 225.101C173.173 225.101 172.612 224.947 172.12 224.638C171.628 224.33 171.241 223.891 170.959 223.322C170.677 222.753 170.536 222.079 170.536 221.298C170.536 220.517 170.677 219.842 170.959 219.273C171.241 218.704 171.628 218.265 172.12 217.957C172.612 217.648 173.173 217.494 173.805 217.494C174.437 217.494 174.998 217.648 175.49 217.957C175.982 218.265 176.369 218.704 176.651 219.273C176.933 219.842 177.074 220.517 177.074 221.298ZM176.206 221.298C176.206 220.656 176.099 220.115 175.884 219.674C175.672 219.233 175.384 218.899 175.02 218.673C174.658 218.446 174.253 218.333 173.805 218.333C173.357 218.333 172.951 218.446 172.587 218.673C172.225 218.899 171.937 219.233 171.722 219.674C171.51 220.115 171.404 220.656 171.404 221.298C171.404 221.939 171.51 222.48 171.722 222.921C171.937 223.362 172.225 223.696 172.587 223.923C172.951 224.149 173.357 224.262 173.805 224.262C174.253 224.262 174.658 224.149 175.02 223.923C175.384 223.696 175.672 223.362 175.884 222.921C176.099 222.48 176.206 221.939 176.206 221.298ZM180.722 225.116C180.201 225.116 179.753 224.993 179.377 224.747C179.001 224.501 178.712 224.162 178.509 223.731C178.307 223.299 178.205 222.806 178.205 222.252C178.205 221.688 178.309 221.19 178.516 220.759C178.726 220.325 179.018 219.986 179.391 219.743C179.767 219.497 180.206 219.374 180.707 219.374C181.098 219.374 181.45 219.446 181.763 219.591C182.077 219.736 182.333 219.938 182.533 220.198C182.733 220.459 182.858 220.762 182.906 221.11H182.052C181.987 220.856 181.843 220.632 181.619 220.437C181.397 220.239 181.098 220.14 180.722 220.14C180.389 220.14 180.098 220.227 179.847 220.401C179.599 220.572 179.405 220.814 179.265 221.128C179.127 221.439 179.059 221.804 179.059 222.223C179.059 222.652 179.126 223.026 179.261 223.344C179.399 223.662 179.591 223.909 179.84 224.085C180.09 224.261 180.384 224.349 180.722 224.349C180.944 224.349 181.145 224.311 181.326 224.233C181.506 224.156 181.66 224.045 181.785 223.901C181.91 223.756 181.999 223.583 182.052 223.38H182.906C182.858 223.708 182.738 224.003 182.548 224.266C182.36 224.526 182.11 224.734 181.799 224.888C181.491 225.04 181.132 225.116 180.722 225.116ZM186.568 219.446V220.169H183.69V219.446H186.568ZM184.529 218.116H185.382V223.409C185.382 223.65 185.417 223.831 185.487 223.951C185.56 224.07 185.651 224.149 185.762 224.19C185.875 224.229 185.995 224.248 186.12 224.248C186.214 224.248 186.291 224.243 186.351 224.233C186.412 224.221 186.46 224.212 186.496 224.205L186.67 224.971C186.612 224.993 186.531 225.014 186.427 225.036C186.324 225.06 186.192 225.072 186.033 225.072C185.792 225.072 185.556 225.02 185.325 224.917C185.096 224.813 184.905 224.655 184.753 224.443C184.604 224.231 184.529 223.963 184.529 223.64V218.116Z" fill="black"/>
<path d="M222.663 217.595V225H221.796L217.761 219.186H217.688V225H216.792V217.595H217.659L221.709 223.424H221.781V217.595H222.663ZM226.598 225.116C226.097 225.116 225.657 224.996 225.279 224.758C224.903 224.519 224.608 224.185 224.396 223.756C224.187 223.327 224.082 222.826 224.082 222.252C224.082 221.674 224.187 221.169 224.396 220.737C224.608 220.306 224.903 219.971 225.279 219.732C225.657 219.493 226.097 219.374 226.598 219.374C227.1 219.374 227.538 219.493 227.914 219.732C228.293 219.971 228.587 220.306 228.797 220.737C229.009 221.169 229.115 221.674 229.115 222.252C229.115 222.826 229.009 223.327 228.797 223.756C228.587 224.185 228.293 224.519 227.914 224.758C227.538 224.996 227.1 225.116 226.598 225.116ZM226.598 224.349C226.979 224.349 227.292 224.252 227.538 224.056C227.784 223.861 227.966 223.604 228.084 223.286C228.202 222.968 228.261 222.623 228.261 222.252C228.261 221.881 228.202 221.535 228.084 221.214C227.966 220.894 227.784 220.635 227.538 220.437C227.292 220.239 226.979 220.14 226.598 220.14C226.217 220.14 225.904 220.239 225.658 220.437C225.412 220.635 225.23 220.894 225.112 221.214C224.994 221.535 224.935 221.881 224.935 222.252C224.935 222.623 224.994 222.968 225.112 223.286C225.23 223.604 225.412 223.861 225.658 224.056C225.904 224.252 226.217 224.349 226.598 224.349ZM234.76 219.446L232.706 225H231.838L229.785 219.446H230.71L232.243 223.872H232.301L233.834 219.446H234.76Z" fill="black"/>
<path d="M266.216 225H263.931V217.595H266.317C267.035 217.595 267.65 217.743 268.161 218.04C268.672 218.334 269.064 218.757 269.336 219.309C269.609 219.858 269.745 220.517 269.745 221.283C269.745 222.054 269.607 222.718 269.333 223.275C269.058 223.83 268.658 224.256 268.132 224.555C267.607 224.852 266.968 225 266.216 225ZM264.827 224.205H266.158C266.77 224.205 267.278 224.086 267.68 223.85C268.083 223.614 268.383 223.278 268.581 222.841C268.778 222.405 268.877 221.886 268.877 221.283C268.877 220.685 268.779 220.171 268.584 219.739C268.389 219.305 268.097 218.973 267.709 218.741C267.321 218.507 266.838 218.39 266.259 218.39H264.827V224.205ZM273.462 225.116C272.927 225.116 272.465 224.998 272.077 224.761C271.691 224.523 271.394 224.19 271.184 223.763C270.977 223.334 270.873 222.835 270.873 222.267C270.873 221.698 270.977 221.196 271.184 220.762C271.394 220.326 271.685 219.986 272.059 219.743C272.435 219.497 272.874 219.374 273.375 219.374C273.664 219.374 273.95 219.422 274.232 219.519C274.514 219.615 274.771 219.772 275.002 219.989C275.233 220.203 275.418 220.488 275.555 220.842C275.693 221.196 275.761 221.633 275.761 222.151V222.512H271.48V221.775H274.894C274.894 221.461 274.831 221.182 274.706 220.936C274.583 220.69 274.407 220.496 274.178 220.354C273.951 220.212 273.684 220.14 273.375 220.14C273.035 220.14 272.741 220.225 272.493 220.394C272.247 220.56 272.058 220.777 271.925 221.044C271.793 221.312 271.726 221.599 271.726 221.905V222.397C271.726 222.816 271.799 223.172 271.943 223.463C272.09 223.753 272.294 223.973 272.554 224.125C272.815 224.274 273.117 224.349 273.462 224.349C273.686 224.349 273.888 224.318 274.069 224.255C274.252 224.19 274.41 224.094 274.543 223.966C274.675 223.836 274.778 223.674 274.85 223.481L275.675 223.713C275.588 223.992 275.442 224.238 275.237 224.45C275.032 224.66 274.779 224.824 274.478 224.942C274.176 225.058 273.838 225.116 273.462 225.116ZM279.316 225.116C278.795 225.116 278.347 224.993 277.971 224.747C277.595 224.501 277.305 224.162 277.103 223.731C276.9 223.299 276.799 222.806 276.799 222.252C276.799 221.688 276.903 221.19 277.11 220.759C277.32 220.325 277.611 219.986 277.985 219.743C278.361 219.497 278.8 219.374 279.301 219.374C279.692 219.374 280.044 219.446 280.357 219.591C280.67 219.736 280.927 219.938 281.127 220.198C281.327 220.459 281.451 220.762 281.499 221.11H280.646C280.581 220.856 280.436 220.632 280.212 220.437C279.991 220.239 279.692 220.14 279.316 220.14C278.983 220.14 278.691 220.227 278.441 220.401C278.192 220.572 277.998 220.814 277.858 221.128C277.721 221.439 277.652 221.804 277.652 222.223C277.652 222.652 277.72 223.026 277.855 223.344C277.992 223.662 278.185 223.909 278.433 224.085C278.684 224.261 278.978 224.349 279.316 224.349C279.537 224.349 279.739 224.311 279.919 224.233C280.1 224.156 280.253 224.045 280.379 223.901C280.504 223.756 280.593 223.583 280.646 223.38H281.499C281.451 223.708 281.332 224.003 281.142 224.266C280.954 224.526 280.704 224.734 280.393 224.888C280.085 225.04 279.725 225.116 279.316 225.116Z" fill="black"/>
<g filter="url(#filter1_dd_12_1447)">
<rect x="74" y="101" width="47" height="20" rx="10" fill="#F8F8F8"/>
<path d="M80.9767 115.926V106.669H81.5697V115.926H80.9767ZM82.9726 109.446C82.9292 109.08 82.7532 108.795 82.4447 108.593C82.1361 108.39 81.7577 108.289 81.3093 108.289C80.9815 108.289 80.6947 108.342 80.4488 108.448C80.2053 108.554 80.0149 108.7 79.8775 108.886C79.7425 109.071 79.675 109.282 79.675 109.519C79.675 109.716 79.722 109.886 79.8161 110.028C79.9125 110.168 80.0354 110.285 80.1849 110.379C80.3343 110.471 80.491 110.547 80.6549 110.607C80.8188 110.665 80.9695 110.712 81.1069 110.748L81.8589 110.95C82.0518 111.001 82.2663 111.071 82.5025 111.16C82.7412 111.249 82.9689 111.371 83.1859 111.525C83.4052 111.677 83.586 111.872 83.7282 112.111C83.8705 112.35 83.9416 112.643 83.9416 112.99C83.9416 113.39 83.8367 113.751 83.627 114.074C83.4197 114.397 83.116 114.654 82.7158 114.845C82.3181 115.035 81.8348 115.13 81.2659 115.13C80.7356 115.13 80.2765 115.045 79.8884 114.873C79.5027 114.702 79.199 114.464 78.9772 114.158C78.7579 113.851 78.6337 113.496 78.6048 113.091H79.5304C79.5545 113.371 79.6485 113.602 79.8124 113.785C79.9788 113.966 80.1885 114.101 80.4416 114.19C80.6971 114.277 80.9719 114.32 81.2659 114.32C81.6082 114.32 81.9156 114.265 82.188 114.154C82.4603 114.041 82.6761 113.884 82.8352 113.684C82.9943 113.481 83.0738 113.245 83.0738 112.975C83.0738 112.729 83.0051 112.529 82.8677 112.375C82.7303 112.221 82.5495 112.095 82.3253 111.999C82.1012 111.903 81.8589 111.818 81.5986 111.746L80.6874 111.486C80.1089 111.319 79.6509 111.082 79.3135 110.773C78.976 110.465 78.8073 110.061 78.8073 109.562C78.8073 109.147 78.9194 108.786 79.1435 108.477C79.3701 108.166 79.6738 107.925 80.0547 107.754C80.438 107.581 80.8658 107.494 81.3383 107.494C81.8155 107.494 82.2398 107.579 82.611 107.751C82.9822 107.919 83.2763 108.151 83.4932 108.445C83.7126 108.739 83.8283 109.073 83.8403 109.446H82.9726ZM85.2857 115V114.349L87.7299 111.674C88.0168 111.36 88.253 111.088 88.4386 110.856C88.6242 110.623 88.7616 110.403 88.8508 110.198C88.9424 109.991 88.9882 109.774 88.9882 109.548C88.9882 109.287 88.9255 109.062 88.8002 108.871C88.6772 108.681 88.5085 108.534 88.294 108.43C88.0794 108.327 87.8384 108.275 87.5708 108.275C87.2864 108.275 87.0381 108.334 86.826 108.452C86.6163 108.568 86.4536 108.73 86.3379 108.94C86.2246 109.15 86.1679 109.396 86.1679 109.678H85.3146C85.3146 109.244 85.4147 108.863 85.6147 108.535C85.8148 108.207 86.0872 107.952 86.4319 107.769C86.779 107.585 87.1683 107.494 87.5998 107.494C88.0336 107.494 88.4181 107.585 88.7532 107.769C89.0882 107.952 89.351 108.199 89.5414 108.51C89.7318 108.821 89.827 109.167 89.827 109.548C89.827 109.82 89.7776 110.086 89.6788 110.347C89.5824 110.605 89.4136 110.893 89.1726 111.211C88.9339 111.527 88.6025 111.912 88.1783 112.368L86.515 114.147V114.205H89.9572V115H85.2857ZM93.9525 115.101C93.4753 115.101 93.0498 115.019 92.6762 114.855C92.305 114.691 92.0097 114.464 91.7904 114.172C91.5734 113.878 91.4553 113.537 91.436 113.149H92.3472C92.3665 113.387 92.4484 113.593 92.593 113.767C92.7377 113.938 92.9269 114.071 93.1607 114.165C93.3945 114.259 93.6536 114.306 93.9381 114.306C94.2563 114.306 94.5383 114.25 94.7842 114.139C95.03 114.029 95.2229 113.874 95.3627 113.677C95.5025 113.479 95.5724 113.25 95.5724 112.99C95.5724 112.717 95.5049 112.477 95.3699 112.27C95.2349 112.06 95.0373 111.897 94.7769 111.778C94.5166 111.66 94.1984 111.601 93.8224 111.601H93.2294V110.806H93.8224C94.1165 110.806 94.3744 110.753 94.5961 110.647C94.8203 110.541 94.9951 110.391 95.1204 110.198C95.2482 110.006 95.312 109.779 95.312 109.519C95.312 109.268 95.2566 109.05 95.1457 108.864C95.0348 108.679 94.8782 108.534 94.6757 108.43C94.4756 108.327 94.2394 108.275 93.967 108.275C93.7115 108.275 93.4705 108.322 93.2439 108.416C93.0197 108.507 92.8365 108.641 92.6943 108.817C92.5521 108.991 92.4749 109.2 92.4629 109.446H91.5951C91.6096 109.058 91.7265 108.718 91.9458 108.427C92.1652 108.133 92.452 107.904 92.8064 107.74C93.1631 107.576 93.5548 107.494 93.9815 107.494C94.4395 107.494 94.8324 107.587 95.1602 107.772C95.488 107.955 95.7399 108.198 95.9159 108.499C96.0918 108.8 96.1798 109.126 96.1798 109.475C96.1798 109.892 96.0701 110.248 95.8508 110.542C95.6338 110.836 95.3386 111.04 94.9649 111.153V111.211C95.4326 111.288 95.7978 111.487 96.0605 111.807C96.3232 112.126 96.4546 112.52 96.4546 112.99C96.4546 113.392 96.3449 113.754 96.1256 114.074C95.9086 114.393 95.6122 114.643 95.2361 114.826C94.8601 115.01 94.4322 115.101 93.9525 115.101ZM98.9919 113.988L98.9341 114.378C98.8931 114.653 98.8304 114.947 98.7461 115.26C98.6641 115.574 98.5785 115.869 98.4893 116.146C98.4002 116.423 98.3266 116.644 98.2688 116.808H97.618C97.6493 116.654 97.6903 116.45 97.7409 116.197C97.7915 115.944 97.8421 115.66 97.8928 115.347C97.9458 115.036 97.9892 114.718 98.0229 114.393L98.0663 113.988H98.9919ZM102.846 107.494C103.15 107.496 103.454 107.554 103.757 107.667C104.061 107.781 104.338 107.969 104.589 108.231C104.84 108.492 105.041 108.847 105.193 109.298C105.345 109.749 105.421 110.314 105.421 110.994C105.421 111.652 105.358 112.236 105.233 112.747C105.11 113.256 104.931 113.685 104.698 114.035C104.466 114.384 104.184 114.649 103.851 114.83C103.521 115.011 103.148 115.101 102.731 115.101C102.316 115.101 101.946 115.019 101.621 114.855C101.298 114.689 101.032 114.459 100.825 114.165C100.62 113.868 100.489 113.525 100.431 113.134H101.313C101.393 113.474 101.551 113.755 101.787 113.977C102.026 114.196 102.34 114.306 102.731 114.306C103.302 114.306 103.753 114.056 104.083 113.557C104.415 113.058 104.582 112.353 104.582 111.442H104.524C104.389 111.645 104.229 111.819 104.043 111.966C103.857 112.113 103.651 112.227 103.425 112.306C103.198 112.386 102.957 112.426 102.702 112.426C102.277 112.426 101.888 112.321 101.534 112.111C101.182 111.899 100.9 111.608 100.688 111.24C100.478 110.868 100.373 110.444 100.373 109.967C100.373 109.514 100.474 109.099 100.677 108.723C100.882 108.345 101.169 108.043 101.537 107.819C101.909 107.595 102.345 107.487 102.846 107.494ZM102.846 108.289C102.543 108.289 102.269 108.365 102.026 108.517C101.784 108.666 101.593 108.869 101.451 109.124C101.311 109.378 101.241 109.658 101.241 109.967C101.241 110.275 101.308 110.556 101.443 110.809C101.581 111.06 101.768 111.26 102.004 111.41C102.242 111.557 102.514 111.63 102.817 111.63C103.046 111.63 103.26 111.586 103.457 111.496C103.655 111.405 103.827 111.281 103.974 111.124C104.124 110.965 104.241 110.785 104.325 110.585C104.409 110.383 104.452 110.172 104.452 109.952C104.452 109.663 104.382 109.392 104.242 109.139C104.105 108.886 103.914 108.681 103.671 108.524C103.43 108.368 103.155 108.289 102.846 108.289ZM106.843 115V114.349L109.287 111.674C109.574 111.36 109.81 111.088 109.995 110.856C110.181 110.623 110.318 110.403 110.408 110.198C110.499 109.991 110.545 109.774 110.545 109.548C110.545 109.287 110.482 109.062 110.357 108.871C110.234 108.681 110.065 108.534 109.851 108.43C109.636 108.327 109.395 108.275 109.128 108.275C108.843 108.275 108.595 108.334 108.383 108.452C108.173 108.568 108.01 108.73 107.895 108.94C107.781 109.15 107.725 109.396 107.725 109.678H106.871C106.871 109.244 106.971 108.863 107.172 108.535C107.372 108.207 107.644 107.952 107.989 107.769C108.336 107.585 108.725 107.494 109.157 107.494C109.59 107.494 109.975 107.585 110.31 107.769C110.645 107.952 110.908 108.199 111.098 108.51C111.289 108.821 111.384 109.167 111.384 109.548C111.384 109.82 111.334 110.086 111.236 110.347C111.139 110.605 110.97 110.893 110.729 111.211C110.491 111.527 110.159 111.912 109.735 112.368L108.072 114.147V114.205H111.514V115H106.843ZM115.611 107.595V115H114.714V108.535H114.671L112.863 109.736V108.824L114.714 107.595H115.611Z" fill="black"/>
</g>
<defs>
<filter id="filter0_dd_12_1447" x="79" y="125" width="23" height="23" filterUnits="userSpaceOnUse" color-interpolation-filters="sRGB">
<feFlood flood-opacity="0" result="BackgroundImageFix"/>
<feColorMatrix in="SourceAlpha" type="matrix" values="0 0 0 0 0 0 0 0 0 0 0 0 0 0 0 0 0 0 127 0" result="hardAlpha"/>
<feOffset dy="1"/>
<feGaussianBlur stdDeviation="1.5"/>
<feComposite in2="hardAlpha" operator="out"/>
<feColorMatrix type="matrix" values="0 0 0 0 0 0 0 0 0 0 0 0 0 0 0 0 0 0 0.1 0"/>
<feBlend mode="normal" in2="BackgroundImageFix" result="effect1_dropShadow_12_1447"/>
<feColorMatrix in="SourceAlpha" type="matrix" values="0 0 0 0 0 0 0 0 0 0 0 0 0 0 0 0 0 0 127 0" result="hardAlpha"/>
<feMorphology radius="1" operator="erode" in="SourceAlpha" result="effect2_dropShadow_12_1447"/>
<feOffset dy="1"/>
<feGaussianBlur stdDeviation="1"/>
<feComposite in2="hardAlpha" operator="out"/>
<feColorMatrix type="matrix" values="0 0 0 0 0 0 0 0 0 0 0 0 0 0 0 0 0 0 0.1 0"/>
<feBlend mode="normal" in2="effect1_dropShadow_12_1447" result="effect2_dropShadow_12_1447"/>
<feBlend mode="normal" in="SourceGraphic" in2="effect2_dropShadow_12_1447" result="shape"/>
</filter>
<filter id="filter1_dd_12_1447" x="71" y="99" width="53" height="26" filterUnits="userSpaceOnUse" color-interpolation-filters="sRGB">
<feFlood flood-opacity="0" result="BackgroundImageFix"/>
<feColorMatrix in="SourceAlpha" type="matrix" values="0 0 0 0 0 0 0 0 0 0 0 0 0 0 0 0 0 0 127 0" result="hardAlpha"/>
<feOffset dy="1"/>
<feGaussianBlur stdDeviation="1.5"/>
<feComposite in2="hardAlpha" operator="out"/>
<feColorMatrix type="matrix" values="0 0 0 0 0 0 0 0 0 0 0 0 0 0 0 0 0 0 0.1 0"/>
<feBlend mode="normal" in2="BackgroundImageFix" result="effect1_dropShadow_12_1447"/>
<feColorMatrix in="SourceAlpha" type="matrix" values="0 0 0 0 0 0 0 0 0 0 0 0 0 0 0 0 0 0 127 0" result="hardAlpha"/>
<feMorphology radius="1" operator="erode" in="SourceAlpha" result="effect2_dropShadow_12_1447"/>
<feOffset dy="1"/>
<feGaussianBlur stdDeviation="1"/>
<feComposite in2="hardAlpha" operator="out"/>
<feColorMatrix type="matrix" values="0 0 0 0 0 0 0 0 0 0 0 0 0 0 0 0 0 0 0.1 0"/>
<feBlend mode="normal" in2="effect1_dropShadow_12_1447" result="effect2_dropShadow_12_1447"/>
<feBlend mode="normal" in="SourceGraphic" in2="effect2_dropShadow_12_1447" result="shape"/>
</filter>
<linearGradient id="paint0_linear_12_1447" x1="165" y1="85" x2="165" y2="230" gradientUnits="userSpaceOnUse">
<stop stop-color="#005C7C"/>
<stop offset="1" stop-color="#005C7C" stop-opacity="0"/>
</linearGradient>
<linearGradient id="paint1_linear_12_1447" x1="165.362" y1="83" x2="165.362" y2="230" gradientUnits="userSpaceOnUse">
<stop stop-color="#6D8B76"/>
<stop offset="1" stop-color="#6D8B76" stop-opacity="0"/>
</linearGradient>
<clipPath id="clip0_12_1447">
<rect width="280" height="145" fill="white" transform="translate(16 61)"/>
</clipPath>
</defs>
</svg>
