<svg width="24" height="24" viewBox="0 0 24 24" fill="none" xmlns="http://www.w3.org/2000/svg">
<path fill-rule="evenodd" clip-rule="evenodd" d="M1.17962 1.66883C-0.490134 6.01019 1.96997 10.641 3.26681 12.205C3.88462 11.5482 5.82822 10.6721 8.66012 12.422C9.0052 12.0714 10.0594 11.3634 11.5154 11.3367C12.9714 11.31 14.7158 12.2495 15.4059 12.7226L19.4694 12.0677C20.0561 12.0629 20.8196 12.2064 21.4456 13.2699C21.545 13.4387 22.5455 13.681 22.6121 13.8914C22.7082 13.6684 22.8052 13.4348 22.9031 13.1901C24.4259 9.38309 21.9569 6.82837 20.5321 6.02689C20.354 6.12151 19.9376 6.25397 19.6972 6.02689C19.4567 5.7998 19.931 5.43134 20.1981 5.2755C19.8864 5.38682 19.0159 5.49257 18.0274 5.02504C17.376 4.71693 16.0192 4.53413 14.571 4.45707C13.1796 4.84676 10.0928 5.62615 8.87719 5.62615C7.66161 5.62615 6.12209 2.32003 5.50428 0.666978C4.43564 2.5371 4.78072 4.51854 5.08685 5.2755C5.44306 6.32744 6.74992 8.44803 9.12765 8.51482C4.10503 8.67512 2.00161 4.7857 1.57773 2.82096C1.38051 2.39915 1.25022 1.99303 1.17962 1.66883ZM18.3447 6.69479C19.438 7.02318 21.7233 8.11074 22.1183 9.83393C22.6121 11.9879 19.7807 7.54636 18.3447 6.69479Z" fill="#0B7029"/>
<path d="M16.5917 14.0474L18.3447 13.7245L17.5599 17.2309C17.148 17.2699 17.106 17.1431 17.0926 16.9027C17.0793 16.6622 16.7531 14.899 16.5917 14.0474Z" fill="#0B7029"/>
<path d="M19.1462 20.0361C19.3465 20.1831 19.7751 19.9749 19.9644 19.8525C19.4258 18.5537 20.8405 18.0061 22.6121 13.8914C22.5455 13.681 21.545 13.4387 21.4456 13.2699L21.417 14.3924C21.2723 15.6057 20.4987 17.9423 18.5618 17.5816C18.293 18.641 17.9332 20.2031 16.5917 21.5073C17.0421 21.222 17.3305 21.0159 17.4096 21.0046C17.7603 20.9545 18.8957 19.8525 19.1462 20.0361Z" fill="#0B7029"/>
<path d="M14.7223 13.7245C14.6393 13.5198 14.5426 13.3385 14.4375 13.1901C13.9542 12.5079 12.4387 11.944 11.1814 12.255L11.5154 14.192L12.3503 13.1233L13.8531 17.7353C15.22 16.7742 15.1896 14.8775 14.7223 13.7245Z" fill="#0B7029"/>
<path d="M9.32802 14.8265C9.32903 14.9059 9.33234 14.9897 9.33823 15.077C9.43013 16.44 10.1488 18.6554 12.4839 18.2662C12.5759 18.2508 12.6649 18.233 12.751 18.2128L12.2334 15.2272L11.1814 17.0473L10.2335 12.7226C9.73554 13.1362 9.38357 13.8081 9.32802 14.8265Z" fill="#0B7029"/>
<path d="M8.37626 15.077C8.37626 13.9582 7.67496 11.8985 5.08685 11.9879C4.55309 12.0064 4.12521 12.143 3.78444 12.3515L4.28536 14.192L5.52098 12.9898L6.7232 18.0016C7.98835 17.3656 8.37626 15.8808 8.37626 15.077Z" fill="#0B7029"/>
<path d="M2.55918 14.8265C2.6447 16.2512 3.30869 17.7649 4.80299 18.2662C5.19988 18.3179 5.55581 18.314 5.87445 18.2662L5.08685 14.8265L4.0349 16.4462L2.97816 13.1901C2.65095 13.7535 2.54967 14.394 2.55918 14.8265Z" fill="#0B7029"/>
<path fill-rule="evenodd" clip-rule="evenodd" d="M5.4808 0.384093C5.57398 0.376356 5.665 0.415006 5.72414 0.487428C6.26041 1.14408 7.17099 2.12181 8.15217 2.91402C8.64279 3.31014 9.14372 3.65389 9.61843 3.88865C10.0974 4.12551 10.5233 4.23822 10.8731 4.20792C11.8913 4.11972 13.2769 4.10394 14.5861 4.17361C15.3165 4.21248 16.0278 4.27818 16.6418 4.37395C17.2491 4.46867 17.7846 4.59619 18.1488 4.76843C19.0686 5.20348 19.8611 5.09445 20.1026 5.00818C20.2407 4.95887 20.3936 5.02282 20.4555 5.15574C20.5173 5.28866 20.4678 5.44682 20.3411 5.52069C20.2206 5.59101 20.0647 5.70377 19.9714 5.81089C19.9587 5.82541 19.9483 5.8386 19.9399 5.85034C19.9781 5.86578 20.0323 5.87327 20.1081 5.86525C20.2214 5.85325 20.3351 5.81009 20.3989 5.77621C20.4843 5.73083 20.5869 5.73207 20.6712 5.77948C21.4258 6.20394 22.4432 7.08216 23.0771 8.35488C23.7164 9.63852 23.9596 11.3133 23.1667 13.2956C23.0679 13.5425 22.9699 13.7784 22.8728 14.0037C22.0851 15.8332 21.3648 16.9694 20.8586 17.7677C20.7892 17.8772 20.7237 17.9804 20.6627 18.0782C20.4069 18.488 20.2469 18.7749 20.1748 19.0292C20.1083 19.2639 20.1156 19.4761 20.2266 19.7437C20.2791 19.8703 20.2336 20.0163 20.1186 20.0908C20.0087 20.1618 19.831 20.2575 19.6445 20.3161C19.5512 20.3454 19.4438 20.3693 19.335 20.3705C19.2481 20.3714 19.1459 20.3579 19.0489 20.3085C19.0263 20.3168 18.9943 20.3309 18.9518 20.3535C18.8239 20.4216 18.6619 20.5329 18.4815 20.663C18.433 20.6979 18.3831 20.7343 18.3327 20.771C18.2032 20.8654 18.0707 20.962 17.9522 21.0418C17.8689 21.0979 17.7855 21.1505 17.7078 21.1918C17.6432 21.226 17.5624 21.2637 17.478 21.2807C17.4718 21.2838 17.4629 21.2885 17.4507 21.2953C17.4132 21.3163 17.3616 21.3482 17.293 21.3922C17.2448 21.4231 17.1874 21.4605 17.1228 21.5025C17.0148 21.5729 16.8867 21.6564 16.7484 21.7441C16.7119 21.7691 16.6747 21.7926 16.6367 21.8144C15.0432 22.8101 11.5375 24.688 8.00994 22.8252C7.44052 22.5245 6.60933 21.921 5.90236 21.138C5.23933 20.4036 4.65683 19.4793 4.53653 18.4706C3.01078 17.8609 2.36141 16.2692 2.27584 14.8435C2.24145 14.2706 2.29567 13.7075 2.42694 13.2179C2.53082 12.8303 2.68685 12.4747 2.89745 12.1973C2.23852 11.3431 1.37612 9.85196 0.838842 8.05993C0.25893 6.12571 0.0502205 3.81453 0.914682 1.56693C0.959706 1.44987 1.07622 1.37623 1.20128 1.3858C1.32634 1.39537 1.43029 1.48588 1.45698 1.60843C1.52301 1.91162 1.64643 2.29769 1.83487 2.70074C2.33837 3.77764 3.25527 4.8833 4.69275 4.98778C4.42447 4.01057 4.28611 2.22665 5.25783 0.526145C5.30422 0.44496 5.38761 0.39183 5.4808 0.384093ZM4.89068 5.56357C3.96826 5.55827 3.22648 5.21577 2.64381 4.72621C3.40121 6.02692 4.69902 7.37834 6.70975 7.95158C6.50607 7.80042 6.31895 7.6362 6.14823 7.46508C5.52378 6.8392 5.10893 6.11235 4.89068 5.56357ZM1.30713 2.91221C1.25946 2.80889 1.21558 2.70646 1.1754 2.60575C0.695139 4.43487 0.89947 6.28533 1.38264 7.89689C1.8877 9.58144 2.69121 10.9832 3.30199 11.7917C4.16759 11.1164 6.06676 10.568 8.62575 12.07C9.11827 11.6608 10.1518 11.0778 11.5102 11.0529C12.2943 11.0385 13.1362 11.2827 13.8561 11.5798C14.5195 11.8536 15.101 12.1814 15.4711 12.4246L19.4242 11.7874C19.4384 11.7852 19.4527 11.784 19.4671 11.7838C19.7846 11.7812 20.1711 11.8185 20.5679 12.0134C20.9601 12.206 21.3397 12.5414 21.6725 13.0961C21.6942 13.1096 21.7287 13.1277 21.7785 13.1505C21.8609 13.1882 21.9608 13.2278 22.0718 13.2718C22.0961 13.2815 22.121 13.2913 22.1463 13.3014C22.2599 13.3467 22.3831 13.3969 22.4909 13.4493C22.5402 13.3307 22.5898 13.2092 22.6396 13.0847C23.3695 11.2599 23.1396 9.75383 22.5689 8.60798C22.0267 7.51943 21.1716 6.74692 20.5141 6.34541C20.4141 6.38332 20.2942 6.41644 20.1679 6.42981C19.9707 6.45068 19.7077 6.42726 19.5023 6.23326C19.366 6.10457 19.3244 5.93637 19.3589 5.77592C19.3683 5.73261 19.3827 5.69147 19.4003 5.6528C18.9742 5.63838 18.4548 5.54117 17.9061 5.28164C17.6188 5.14578 17.1503 5.02784 16.5543 4.93488C15.9776 4.84494 15.3035 4.78151 14.6024 4.74303C13.9001 4.93882 12.7998 5.22517 11.7197 5.46486C10.6266 5.7074 9.52106 5.91001 8.87719 5.91001C8.45142 5.91001 8.05606 5.62818 7.72024 5.28113C7.37335 4.92266 7.03462 4.43654 6.72256 3.91149C6.23367 3.08892 5.79318 2.14154 5.4748 1.36746C4.80505 2.96496 5.09669 4.5427 5.35 5.16908C5.35205 5.17415 5.35395 5.17928 5.35571 5.18446C5.52148 5.67401 5.91577 6.4283 6.55013 7.06411C7.18091 7.69634 8.0366 8.2002 9.13562 8.23108C9.28902 8.23538 9.41121 8.36082 9.41151 8.51428C9.4118 8.66774 9.29008 8.79364 9.1367 8.79854C3.94957 8.96408 1.76226 4.95979 1.30713 2.91221ZM6.41384 2.09603C6.65214 2.60754 6.92339 3.13821 7.21058 3.62143C7.51258 4.12954 7.82526 4.57327 8.12822 4.88634C8.44224 5.21086 8.69517 5.34229 8.87719 5.34229C9.44889 5.34229 10.4945 5.1552 11.5967 4.91062C11.8997 4.84338 12.2045 4.77237 12.5016 4.70074C11.9241 4.70885 11.3826 4.73362 10.9221 4.77351C10.4237 4.81668 9.88764 4.65513 9.36677 4.39754C8.84164 4.13784 8.30482 3.76693 7.79553 3.35573C7.30497 2.95965 6.83315 2.52063 6.41384 2.09603ZM22.2674 13.9722C22.1795 13.9275 22.0646 13.88 21.936 13.8287C21.9137 13.8198 21.8909 13.8108 21.8678 13.8017C21.8181 13.782 21.7673 13.7618 21.7176 13.7416L21.7008 14.3996C21.7006 14.4084 21.6999 14.4172 21.6989 14.426C21.6512 14.8257 21.5385 15.3448 21.34 15.8592C21.629 15.3327 21.9414 14.7135 22.2674 13.9722ZM20.5797 17.1461C20.1411 17.6263 19.5465 17.9566 18.7751 17.896C18.5918 18.6179 18.3377 19.5505 17.7752 20.4736C17.8436 20.4249 17.9151 20.3729 17.9889 20.319C18.0413 20.2809 18.0948 20.2418 18.1495 20.2024C18.328 20.0737 18.5188 19.9408 18.6852 19.8523C18.7674 19.8086 18.8594 19.767 18.9511 19.7461C19.0332 19.7275 19.1769 19.7117 19.306 19.8014C19.3099 19.8021 19.3172 19.8029 19.3289 19.8028C19.3627 19.8024 19.4118 19.7942 19.4743 19.7745C19.5227 19.7593 19.572 19.7396 19.6189 19.7181C19.5418 19.4299 19.5483 19.1578 19.6287 18.8743C19.7257 18.532 19.9291 18.1813 20.1811 17.7776C20.2432 17.6782 20.3093 17.5739 20.3791 17.4637C20.4429 17.363 20.5099 17.2574 20.5797 17.1461ZM16.4147 21.2834C17.6363 20.0837 17.9961 18.6605 18.2619 17.6094C18.2702 17.5765 18.2785 17.5439 18.2866 17.5118C18.3234 17.3667 18.4666 17.2751 18.6137 17.3025C19.4316 17.4548 20.0089 17.0538 20.4242 16.4214C20.8305 15.8028 21.0496 14.9998 21.127 14.4236C21.0499 14.2159 20.9539 14.0568 20.8474 13.9352C20.8331 13.9246 20.818 13.9134 20.8024 13.9018C20.7076 13.8313 20.59 13.744 20.4612 13.6511C20.3081 13.5844 20.1386 13.5512 19.9582 13.5457C19.4796 13.531 18.9614 13.7126 18.5941 13.9097L17.8369 17.2929C17.8101 17.4129 17.709 17.502 17.5866 17.5135C17.3768 17.5334 17.1494 17.5277 16.9877 17.3833C16.8269 17.2396 16.8153 17.0292 16.8095 16.9231L16.8092 16.9184C16.8069 16.8773 16.7874 16.74 16.7513 16.521C16.7167 16.3104 16.6699 16.0424 16.6183 15.7542C16.5151 15.1781 16.3934 14.5254 16.3128 14.1002C16.2987 14.026 16.3148 13.9493 16.3575 13.8869C16.4002 13.8246 16.466 13.7819 16.5403 13.7682L18.2448 13.4542C18.5484 13.2809 18.972 13.1015 19.4263 13.0209C19.4164 13.0175 19.4073 13.0147 19.3992 13.0124L15.0978 13.9343C15.273 14.5007 15.3507 15.1786 15.2566 15.8417C15.1435 16.6377 14.7788 17.4314 14.0163 17.9675C13.6863 18.1996 13.2881 18.3784 12.8158 18.4892C12.7235 18.5108 12.6284 18.5299 12.5305 18.5462C11.8995 18.6514 11.36 18.5828 10.9061 18.3837C10.4535 18.1851 10.1042 17.8647 9.83895 17.4938C9.35104 16.8114 9.13437 15.9403 9.0677 15.2505C8.8985 15.1672 8.78689 15.1631 8.72569 15.1728C8.69658 15.1774 8.6743 15.1857 8.65775 15.1944C8.64081 15.6231 8.5316 16.1817 8.28176 16.7215C8.00736 17.3143 7.55498 17.9012 6.85069 18.2552C6.57526 18.3937 6.26469 18.4946 5.9166 18.5469C5.67136 18.5837 5.40857 18.5962 5.12734 18.5811C5.27134 19.3597 5.74036 20.1114 6.32374 20.7576C6.98663 21.4918 7.76508 22.0538 8.27505 22.3231C11.5019 24.0272 14.7508 22.3241 16.3408 21.3298C16.3659 21.3141 16.3905 21.2986 16.4147 21.2834ZM4.86734 17.9882C5.1044 18.0176 5.32349 18.0255 5.52587 18.0156L4.95977 15.5433L4.27295 16.6008C4.21335 16.6925 4.10629 16.7419 3.99779 16.7276C3.8893 16.7133 3.79869 16.6379 3.76491 16.5338L2.94622 14.0113C2.86692 14.3083 2.83852 14.5926 2.84286 14.815C2.92591 16.1743 3.55046 17.5316 4.86734 17.9882ZM3.28861 13.2272L4.12111 15.7923L4.84879 14.6719C4.91088 14.5763 5.02415 14.5271 5.1364 14.547C5.24864 14.5669 5.3381 14.652 5.36354 14.7631L6.08968 17.9344C6.19605 17.9078 6.29677 17.8756 6.39216 17.8385L5.36133 13.5411L4.48331 14.3954C4.41127 14.4655 4.30752 14.4923 4.21056 14.4658C4.11359 14.4393 4.03786 14.3635 4.01147 14.2665L3.62061 12.8304C3.49167 12.9504 3.38178 13.0844 3.28861 13.2272ZM4.11733 12.4937L4.43273 13.6526L5.32303 12.7863C5.39618 12.7151 5.5019 12.6887 5.59993 12.7171C5.69796 12.7455 5.7732 12.8243 5.79701 12.9235L6.90874 17.5581C7.3 17.2761 7.57765 16.8911 7.76656 16.483C8.00345 15.9712 8.0924 15.44 8.0924 15.077C8.0924 14.5661 7.93002 13.8368 7.47774 13.2533C7.0365 12.684 6.30239 12.2299 5.09665 12.2716C4.70406 12.2852 4.38204 12.368 4.11733 12.4937ZM5.04952 11.7053C5.91476 11.6003 7.08438 11.782 8.51091 12.6635C8.62361 12.7332 8.76951 12.7156 8.86244 12.6212C9.16257 12.3162 10.1484 11.6457 11.5206 11.6205C12.1925 11.6082 12.9508 11.8204 13.6396 12.1046C14.3248 12.3874 14.916 12.7309 15.2454 12.9567C15.3055 12.9979 15.3792 13.0144 15.4511 13.0028L19.4928 12.3514C19.7559 12.3511 20.037 12.3851 20.3176 12.523C20.5898 12.6567 20.8827 12.8985 21.1598 13.3456L21.1574 13.4398C21.0992 13.3852 21.0381 13.3356 20.9742 13.2909C20.901 13.2397 20.8255 13.1957 20.7482 13.1583C20.6312 13.0746 20.5056 12.9869 20.3796 12.9034C20.2162 12.7951 20.0473 12.6905 19.8918 12.6089C19.7451 12.5321 19.5789 12.4585 19.4303 12.4407C19.3992 12.437 19.3677 12.4385 19.3371 12.445L14.8877 13.3987C14.8214 13.263 14.7481 13.1376 14.6691 13.0261C14.3772 12.614 13.8112 12.2761 13.1848 12.0793C12.5504 11.88 11.8032 11.8088 11.1133 11.9795C10.7336 12.0734 10.3685 12.2414 10.0521 12.5043C9.51159 12.9533 9.1444 13.6517 9.05674 14.6407C8.90601 14.5996 8.76556 14.5917 8.6368 14.6121C8.63352 14.6126 8.63024 14.6132 8.62698 14.6137C8.55237 14.0749 8.34414 13.4444 7.92646 12.9055C7.37002 12.1876 6.45942 11.6565 5.07704 11.7042C5.06784 11.7045 5.05867 11.7049 5.04952 11.7053ZM9.61199 14.8324C9.61306 14.9037 9.61613 14.9791 9.62144 15.0579C9.66546 15.7107 9.85981 16.5468 10.3008 17.1636C10.5186 17.4682 10.7925 17.7139 11.1342 17.8638C11.4719 18.0119 11.8937 18.0746 12.424 17.9884L12.0874 16.047L11.4272 17.1893C11.3686 17.2908 11.2536 17.3457 11.1379 17.3278C11.0221 17.3098 10.9293 17.2225 10.9042 17.108L10.0725 13.3139C9.82408 13.6683 9.65007 14.1595 9.61199 14.8324ZM10.5496 12.8389L11.302 16.2715L11.9876 15.0852C12.0474 14.9818 12.1655 14.9268 12.2832 14.9478C12.4008 14.9687 12.4927 15.061 12.5131 15.1787L12.9771 17.8549C13.1777 17.7887 13.3564 17.7077 13.5153 17.615L12.2456 13.7184L11.7391 14.3667C11.6699 14.4552 11.5551 14.4947 11.4462 14.4673C11.3373 14.4399 11.2547 14.3509 11.2357 14.2402L10.9569 12.6234C10.813 12.6801 10.6764 12.7515 10.5496 12.8389ZM11.5084 12.4805L11.6862 13.5122L12.1266 12.9486C12.1912 12.8659 12.2961 12.8256 12.3994 12.8438C12.5028 12.862 12.5877 12.9356 12.6202 13.0354L13.993 17.2486C14.3988 16.8431 14.6156 16.3177 14.6945 15.7619C14.7918 15.0769 14.6756 14.365 14.4592 13.8311C14.3829 13.6427 14.296 13.4815 14.2058 13.3542C14.0145 13.0841 13.5811 12.7989 13.0147 12.6209C12.5397 12.4717 12.0063 12.4094 11.5084 12.4805ZM17.9739 14.0814L16.9235 14.2749C16.9994 14.6794 17.0942 15.1912 17.1771 15.6542C17.2289 15.9433 17.2762 16.2144 17.3115 16.4287C17.3354 16.5739 17.3555 16.7028 17.3668 16.794L17.9739 14.0814ZM22.3735 14.0361C22.3758 14.0381 22.3767 14.0391 22.3766 14.0391C22.3765 14.0391 22.3754 14.0381 22.3735 14.0361ZM21.6576 13.0857C21.6576 13.0857 21.6586 13.0864 21.6602 13.0878C21.6583 13.0864 21.6575 13.0857 21.6576 13.0857ZM19.084 20.2985C19.0839 20.2986 19.0827 20.2988 19.0804 20.299C19.0829 20.2985 19.084 20.2984 19.084 20.2985ZM18.0848 6.58072C18.1424 6.44937 18.289 6.38167 18.4264 6.42293C18.9969 6.59431 19.8699 6.96025 20.6558 7.5085C21.4359 8.05274 22.1743 8.80765 22.395 9.7705C22.4276 9.91267 22.4488 10.0372 22.4563 10.143C22.4632 10.2417 22.461 10.3556 22.4207 10.4572C22.3989 10.5121 22.3621 10.573 22.3008 10.6217C22.2374 10.672 22.1647 10.6957 22.0952 10.7003C21.9718 10.7084 21.8643 10.6568 21.7965 10.6174C21.651 10.533 21.485 10.3813 21.3175 10.2107C21.1442 10.0344 20.9484 9.81574 20.7412 9.57792C20.6049 9.42153 20.4638 9.25693 20.3196 9.08883C20.0205 8.74002 19.7085 8.3761 19.4001 8.03904C18.9384 7.53433 18.518 7.12757 18.1999 6.93894C18.0765 6.86578 18.0271 6.71207 18.0848 6.58072ZM19.8078 7.64363C19.8116 7.6477 19.8153 7.65177 19.819 7.65585C20.1334 7.9995 20.4564 8.37618 20.7588 8.72879C20.9012 8.89485 21.039 9.05556 21.1692 9.20497C21.3748 9.44094 21.5616 9.64912 21.7225 9.81287C21.769 9.86022 21.8118 9.90228 21.851 9.93923C21.8481 9.9257 21.845 9.91174 21.8417 9.89735C21.6674 9.13701 21.0655 8.48656 20.331 7.97412C20.1598 7.85469 19.9837 7.74445 19.8078 7.64363ZM22.1054 10.1385C22.1054 10.1385 22.1048 10.1383 22.1035 10.1377C22.1048 10.1382 22.1054 10.1385 22.1054 10.1385ZM19.759 15.2099C19.772 15.2016 19.7848 15.1936 19.7972 15.1861C19.8477 15.1557 19.8892 15.1352 19.9216 15.1229C19.9517 15.1115 19.965 15.1104 19.965 15.1104L19.965 15.1104C20.1215 15.11 20.2482 14.9831 20.2482 14.8265C20.2482 14.6697 20.1211 14.5426 19.9644 14.5426C19.7972 14.5426 19.632 14.6229 19.5043 14.6998C19.3658 14.7832 19.2213 14.8943 19.0842 15.0113C18.7993 15.2545 18.519 15.5471 18.3485 15.7412C18.2451 15.8589 18.2566 16.0383 18.3744 16.1418C18.4921 16.2452 18.6715 16.2337 18.775 16.1159C18.9019 15.9715 19.0948 15.768 19.2997 15.5792C19.3719 15.6276 19.4482 15.6843 19.5159 15.7438C19.5788 15.7992 19.626 15.85 19.6553 15.8921C19.6733 15.918 19.6791 15.9325 19.6806 15.9368C19.685 16.0897 19.8103 16.2124 19.9644 16.2124C20.1211 16.2124 20.2482 16.0853 20.2482 15.9285C20.2482 15.7819 20.1833 15.6568 20.1212 15.5676C20.0563 15.4745 19.9729 15.3898 19.8909 15.3176C19.8483 15.2801 19.8038 15.244 19.759 15.2099ZM10.6452 20.0661C10.7209 20.2034 10.671 20.376 10.5337 20.4517C9.42595 21.0624 8.44716 20.9949 8.04851 20.855C7.90059 20.8031 7.82274 20.6411 7.87465 20.4932C7.92655 20.3452 8.08855 20.2674 8.23648 20.3193C8.47234 20.4021 9.28353 20.4926 10.2596 19.9545C10.3969 19.8788 10.5696 19.9288 10.6452 20.0661Z"/>
</svg>
