<svg width="22" height="23" viewBox="0 0 22 23" fill="none" xmlns="http://www.w3.org/2000/svg">
<path d="M14.25 21.7499V13.0833C14.25 12.796 14.1359 12.5204 13.9327 12.3172C13.7295 12.1141 13.454 11.9999 13.1667 11.9999H8.83333C8.54602 11.9999 8.27047 12.1141 8.0673 12.3172C7.86414 12.5204 7.75 12.796 7.75 13.0833V21.7499" stroke-width="2.16667" stroke-linecap="round" stroke-linejoin="round"/>
<path d="M1.25 9.83328C1.24992 9.5181 1.31861 9.2067 1.45127 8.9208C1.58393 8.63491 1.77736 8.38139 2.01808 8.17794L9.60142 1.67903C9.99248 1.34851 10.488 1.16718 11 1.16718C11.512 1.16718 12.0075 1.34851 12.3986 1.67903L19.9819 8.17794C20.2226 8.38139 20.4161 8.63491 20.5487 8.9208C20.6814 9.2067 20.7501 9.5181 20.75 9.83328V19.5833C20.75 20.1579 20.5217 20.709 20.1154 21.1153C19.7091 21.5217 19.158 21.7499 18.5833 21.7499H3.41667C2.84203 21.7499 2.29093 21.5217 1.8846 21.1153C1.47827 20.709 1.25 20.1579 1.25 19.5833V9.83328Z" stroke="#0B7029" stroke-width="2.16667" stroke-linecap="round" stroke-linejoin="round"/>
</svg>
