<svg width="20" height="20" viewBox="0 0 20 20" fill="none" xmlns="http://www.w3.org/2000/svg">
<path d="M8.82498 20C8.37498 20 7.98765 19.85 7.66298 19.55C7.33831 19.25 7.14231 18.8833 7.07498 18.45L6.84998 16.8C6.63331 16.7167 6.42931 16.6167 6.23798 16.5C6.04665 16.3833 5.85898 16.2583 5.67498 16.125L4.12498 16.775C3.70831 16.9583 3.29165 16.975 2.87498 16.825C2.45831 16.675 2.13331 16.4083 1.89998 16.025L0.72498 13.975C0.491647 13.5917 0.424981 13.1833 0.524981 12.75C0.624981 12.3167 0.84998 11.9583 1.19998 11.675L2.52498 10.675C2.50831 10.5583 2.49998 10.4457 2.49998 10.337V9.662C2.49998 9.554 2.50831 9.44167 2.52498 9.325L1.19998 8.325C0.84998 8.04167 0.624981 7.68333 0.524981 7.25C0.424981 6.81667 0.491647 6.40833 0.72498 6.025L1.89998 3.975C2.13331 3.59167 2.45831 3.325 2.87498 3.175C3.29165 3.025 3.70831 3.04167 4.12498 3.225L5.67498 3.875C5.85831 3.74167 6.04998 3.61667 6.24998 3.5C6.44998 3.38333 6.64998 3.28333 6.84998 3.2L7.07498 1.55C7.14165 1.11667 7.33765 0.75 7.66298 0.45C7.98831 0.15 8.37565 0 8.82498 0H11.175C11.625 0 12.0126 0.15 12.338 0.45C12.6633 0.75 12.859 1.11667 12.925 1.55L13.15 3.2C13.3666 3.28333 13.571 3.38333 13.763 3.5C13.955 3.61667 14.1423 3.74167 14.325 3.875L15.875 3.225C16.2916 3.04167 16.7083 3.025 17.125 3.175C17.5416 3.325 17.8666 3.59167 18.1 3.975L19.275 6.025C19.5083 6.40833 19.575 6.81667 19.475 7.25C19.375 7.68333 19.15 8.04167 18.8 8.325L17.475 9.325C17.4916 9.44167 17.5 9.55433 17.5 9.663V10.337C17.5 10.4457 17.4833 10.5583 17.45 10.675L18.775 11.675C19.125 11.9583 19.35 12.3167 19.45 12.75C19.55 13.1833 19.4833 13.5917 19.25 13.975L18.05 16.025C17.8166 16.4083 17.4916 16.675 17.075 16.825C16.6583 16.975 16.2416 16.9583 15.825 16.775L14.325 16.125C14.1416 16.2583 13.95 16.3833 13.75 16.5C13.55 16.6167 13.35 16.7167 13.15 16.8L12.925 18.45C12.8583 18.8833 12.6626 19.25 12.338 19.55C12.0133 19.85 11.6256 20 11.175 20H8.82498ZM8.99998 18H10.975L11.325 15.35C11.8416 15.2167 12.321 15.021 12.763 14.763C13.205 14.505 13.609 14.1923 13.975 13.825L16.45 14.85L17.425 13.15L15.275 11.525C15.3583 11.2917 15.4166 11.046 15.45 10.788C15.4833 10.53 15.5 10.2673 15.5 10C15.5 9.73267 15.4833 9.47033 15.45 9.213C15.4166 8.95567 15.3583 8.70967 15.275 8.475L17.425 6.85L16.45 5.15L13.975 6.2C13.6083 5.81667 13.2043 5.496 12.763 5.238C12.3216 4.98 11.8423 4.784 11.325 4.65L11 2H9.02498L8.67498 4.65C8.15831 4.78333 7.67931 4.97933 7.23798 5.238C6.79665 5.49667 6.39231 5.809 6.02498 6.175L3.54998 5.15L2.57498 6.85L4.72498 8.45C4.64165 8.7 4.58331 8.95 4.54998 9.2C4.51665 9.45 4.49998 9.71667 4.49998 10C4.49998 10.2667 4.51665 10.525 4.54998 10.775C4.58331 11.025 4.64165 11.275 4.72498 11.525L2.57498 13.15L3.54998 14.85L6.02498 13.8C6.39165 14.1833 6.79598 14.5043 7.23798 14.763C7.67998 15.0217 8.15898 15.2173 8.67498 15.35L8.99998 18ZM10.05 13.5C11.0166 13.5 11.8416 13.1583 12.525 12.475C13.2083 11.7917 13.55 10.9667 13.55 10C13.55 9.03333 13.2083 8.20833 12.525 7.525C11.8416 6.84167 11.0166 6.5 10.05 6.5C9.06665 6.5 8.23765 6.84167 7.56298 7.525C6.88831 8.20833 6.55065 9.03333 6.54998 10C6.54931 10.9667 6.88698 11.7917 7.56298 12.475C8.23898 13.1583 9.06798 13.5 10.05 13.5Z" fill="#6D8B76"/>
</svg>
