<svg width="24" height="22" viewBox="0 0 24 22" fill="none" xmlns="http://www.w3.org/2000/svg">
<path d="M20.6666 0.166687H9.83325C8.9713 0.166687 8.14465 0.509097 7.53516 1.11859C6.92566 1.72808 6.58325 2.55473 6.58325 3.41669V11C6.58325 11.862 6.92566 12.6886 7.53516 13.2981C8.14465 13.9076 8.9713 14.25 9.83325 14.25H20.6666C21.5285 14.25 22.3552 13.9076 22.9647 13.2981C23.5742 12.6886 23.9166 11.862 23.9166 11V3.41669C23.9166 2.55473 23.5742 1.72808 22.9647 1.11859C22.3552 0.509097 21.5285 0.166687 20.6666 0.166687ZM21.7499 11C21.7499 11.2873 21.6358 11.5629 21.4326 11.7661C21.2295 11.9692 20.9539 12.0834 20.6666 12.0834H9.83325C9.54593 12.0834 9.27038 11.9692 9.06722 11.7661C8.86406 11.5629 8.74992 11.2873 8.74992 11V3.41669C8.74992 3.12937 8.86406 2.85382 9.06722 2.65065C9.27038 2.44749 9.54593 2.33335 9.83325 2.33335H20.6666C20.9539 2.33335 21.2295 2.44749 21.4326 2.65065C21.6358 2.85382 21.7499 3.12937 21.7499 3.41669V11ZM17.9583 6.66669C17.5574 6.66908 17.1716 6.81955 16.8749 7.08919C16.642 6.87745 16.3525 6.73793 16.0418 6.6876C15.731 6.63726 15.4124 6.67826 15.1245 6.80563C14.8366 6.933 14.5919 7.14124 14.4201 7.40505C14.2484 7.66886 14.1569 7.97689 14.1569 8.29169C14.1569 8.60649 14.2484 8.91451 14.4201 9.17832C14.5919 9.44213 14.8366 9.65038 15.1245 9.77774C15.4124 9.90511 15.731 9.94611 16.0418 9.89578C16.3525 9.84544 16.642 9.70592 16.8749 9.49419C17.0706 9.67199 17.3066 9.79939 17.5626 9.86531C17.8186 9.93124 18.0869 9.93372 18.344 9.87252C18.6012 9.81133 18.8396 9.68831 19.0385 9.51414C19.2373 9.33997 19.3907 9.11991 19.4853 8.87305C19.5799 8.62619 19.6128 8.35998 19.5812 8.09751C19.5496 7.83504 19.4545 7.58424 19.3041 7.36687C19.1536 7.14949 18.9524 6.9721 18.7179 6.85009C18.4834 6.72808 18.2226 6.66512 17.9583 6.66669ZM16.3333 16.4167C16.0459 16.4167 15.7704 16.5308 15.5672 16.734C15.3641 16.9372 15.2499 17.2127 15.2499 17.5V18.5834C15.2499 18.8707 15.1358 19.1462 14.9326 19.3494C14.7295 19.5525 14.4539 19.6667 14.1666 19.6667H3.33325C3.04593 19.6667 2.77038 19.5525 2.56722 19.3494C2.36406 19.1462 2.24992 18.8707 2.24992 18.5834V14.25H3.33325C3.62057 14.25 3.89612 14.1359 4.09928 13.9327C4.30245 13.7296 4.41659 13.454 4.41659 13.1667C4.41659 12.8794 4.30245 12.6038 4.09928 12.4007C3.89612 12.1975 3.62057 12.0834 3.33325 12.0834H2.24992V11C2.24992 10.7127 2.36406 10.4372 2.56722 10.234C2.77038 10.0308 3.04593 9.91669 3.33325 9.91669C3.62057 9.91669 3.89612 9.80255 4.09928 9.59939C4.30245 9.39622 4.41659 9.12067 4.41659 8.83335C4.41659 8.54603 4.30245 8.27048 4.09928 8.06732C3.89612 7.86416 3.62057 7.75002 3.33325 7.75002C2.4713 7.75002 1.64465 8.09243 1.03515 8.70192C0.425662 9.31142 0.083252 10.1381 0.083252 11V18.5834C0.083252 19.4453 0.425662 20.272 1.03515 20.8814C1.64465 21.4909 2.4713 21.8334 3.33325 21.8334H14.1666C15.0285 21.8334 15.8552 21.4909 16.4647 20.8814C17.0742 20.272 17.4166 19.4453 17.4166 18.5834V17.5C17.4166 17.2127 17.3025 16.9372 17.0993 16.734C16.8961 16.5308 16.6206 16.4167 16.3333 16.4167ZM5.49992 17.5H6.58325C6.87057 17.5 7.14612 17.3859 7.34928 17.1827C7.55245 16.9796 7.66659 16.704 7.66659 16.4167C7.66659 16.1294 7.55245 15.8538 7.34928 15.6507C7.14612 15.4475 6.87057 15.3334 6.58325 15.3334H5.49992C5.2126 15.3334 4.93705 15.4475 4.73389 15.6507C4.53072 15.8538 4.41659 16.1294 4.41659 16.4167C4.41659 16.704 4.53072 16.9796 4.73389 17.1827C4.93705 17.3859 5.2126 17.5 5.49992 17.5Z" fill="#6D8B76"/>
</svg>
