<?xml version="1.0" encoding="UTF-8"?>
<svg id="_图层_1" data-name="图层_1" xmlns="http://www.w3.org/2000/svg" version="1.1" xmlns:xlink="http://www.w3.org/1999/xlink" viewBox="0 0 80.6 48.4">
  <!-- Generator: Adobe Illustrator 29.3.1, SVG Export Plug-In . SVG Version: 2.1.0 Build 151)  -->
  <defs>
    <style>
      .st0 {
        fill: #fff;
      }

      .st1 {
        stroke: #0b7029;
        stroke-width: 2px;
      }

      .st1, .st2 {
        fill: none;
      }

      .st3 {
        fill: #003649;
      }
    </style>
  </defs>
  <g>
    <rect class="st3" x=".3" y=".2" width="80" height="48" rx="6" ry="6"/>
    <rect class="st1" x="1.3" y="1.2" width="78" height="46" rx="5" ry="5"/>
    <rect class="st2" x="5.3" y="6.2" width="22" height="7"/>
  </g>
  <path class="st0" d="M21.3,6.8c-.5-.2-1.1-.3-1.6-.3-1.8,0-3,.9-3,2.2,0,.9.9,1.5,1.6,1.8.7.3.9.5.9.8,0,.4-.6.6-1.1.6s-1.1,0-1.7-.3h-.2c0-.1-.3,1.4-.3,1.4.4.2,1.2.3,2,.3,1.9,0,3.1-.9,3.1-2.3,0-.8-.5-1.3-1.5-1.8-.6-.3-1-.5-1-.8s.3-.6,1-.6c.5,0,.9,0,1.3.3h.2c0,0,.3-1.4.3-1.4h0s0,0,0,0ZM25.9,6.6h-1.4c-.4,0-.8.1-.9.5l-2.7,6h1.9l.4-1h2.3c0,.2.2,1,.2,1h1.7l-1.5-6.6h0ZM14.1,6.6h1.8l-1.1,6.6h-1.8l1.1-6.6h0ZM9.6,10.2l.2.9,1.8-4.5h1.9l-2.8,6.6h-1.9l-1.6-5.6c0,0,0-.2-.2-.2-.6-.3-1.2-.5-1.8-.7h0c0-.1,2.9-.1,2.9-.1.4,0,.7.1.8.6l.6,3h0s0,0,0,0ZM23.7,10.9l.7-1.8s.1-.4.2-.6v.6c.1,0,.5,1.9.5,1.9h-1.5s0,0,0,0h0Z"/>
</svg>